M48
METRIC,LZ,000.000
;FILE_FORMAT=3:3
;TYPE=PLATED
;Layer: PTH_Through
;EasyEDA v6.4.32, 2022-03-02 21:26:25
;a14d7df274ef46f18a143bcdf5e9aa52,ed70181f279245e6aff80281ee7dc86a,10
;Gerber Generator version 0.2
;Holesize 1 = 0.889 mm
T01C0.889
;Holesize 2 = 0.900 mm
T02C0.900
;Holesize 3 = 1.000 mm
T03C1.000
;Holesize 4 = 1.250 mm
T04C1.250
;Holesize 5 = 1.301 mm
T05C1.301
;Holesize 6 = 1.701 mm
T06C1.701
%
G05
G90
T01
X052324Y014224
X054864Y014224
X057404Y014224
X033528Y033401
X049911Y033274
X049911Y020193
X033528Y020320
X029083Y033147
X029083Y019685
X043815Y033274
X059309Y033274
X059309Y019685
X073152Y033274
X073152Y021209
X043815Y022987
T02
X015748Y012065
X015748Y022225
X018034Y012065
X018034Y022225
X037211Y036195
X037211Y046355
X020955Y046355
X020955Y036195
X028448Y046355
X028448Y036195
X044704Y046355
X044704Y036195
X020320Y012065
X020320Y022225
X059944Y036195
X059944Y046355
X052451Y036195
X052451Y046355
X022606Y022225
X022606Y012065
X074295Y046355
X074295Y036195
X066802Y036195
X066802Y046355
X036703Y020193
X046863Y020193
T03
X083284Y050419
X079784Y050419
X070866Y037687
X070866Y046387
X040767Y046387
X040767Y037687
X056007Y046387
X056007Y037687
X024892Y037687
X024892Y046387
X079883Y020004
X079883Y044004
X067696Y025654
X067686Y033274
X065146Y033274
X065156Y025654
X039756Y025654
X039746Y033274
X037206Y033274
X037216Y025654
X054869Y025654
X054859Y033274
X052319Y033274
X052329Y025654
X021976Y025527
X021966Y033147
X019426Y033147
X019436Y025527
T04
X070358Y049789
X072898Y049779
X067818Y049789
X039751Y049789
X042291Y049779
X037211Y049789
X054991Y049789
X057531Y049779
X052451Y049789
X024511Y049789
X027051Y049779
X021971Y049789
T05
X044287Y012573
X039279Y012573
X070195Y012573
X065187Y012573
T06
X086741Y030607
X086741Y045847
M30
