G04 Layer: TopSilkscreenLayer*
G04 EasyEDA v6.4.32, 2022-03-02 21:26:25*
G04 a14d7df274ef46f18a143bcdf5e9aa52,ed70181f279245e6aff80281ee7dc86a,10*
G04 Gerber Generator version 0.2*
G04 Scale: 100 percent, Rotated: No, Reflected: No *
G04 Dimensions in millimeters *
G04 leading zeros omitted , absolute positions ,4 integer and 5 decimal *
%FSLAX45Y45*%
%MOMM*%

%ADD10C,0.2540*%
%ADD23C,1.0000*%
%ADD28C,0.2032*%
%ADD29C,0.2030*%
%ADD30C,0.1524*%

%LPD*%
G36*
X2737713Y1071422D02*
G01*
X2719628Y1071321D01*
X2710129Y1070813D01*
X2706268Y1069441D01*
X2705100Y1066800D01*
X2695143Y1015237D01*
X2693263Y1006805D01*
X2690520Y1005281D01*
X2678125Y1000150D01*
X2662326Y994410D01*
X2650236Y990549D01*
X2647797Y990193D01*
X2644800Y991920D01*
X2630627Y1001318D01*
X2611780Y1014221D01*
X2598318Y1023010D01*
X2595880Y1024331D01*
X2594508Y1023467D01*
X2588006Y1017727D01*
X2578404Y1008329D01*
X2567990Y997610D01*
X2558897Y987755D01*
X2553258Y981049D01*
X2552446Y979627D01*
X2553766Y976630D01*
X2557272Y970635D01*
X2562504Y962507D01*
X2575204Y943610D01*
X2580436Y935482D01*
X2583942Y929538D01*
X2585212Y926642D01*
X2584500Y923950D01*
X2579522Y911250D01*
X2566619Y881532D01*
X2505354Y870254D01*
X2505354Y805840D01*
X2533904Y800658D01*
X2549956Y797458D01*
X2565654Y793953D01*
X2577744Y763778D01*
X2582367Y750316D01*
X2583129Y747166D01*
X2581910Y743966D01*
X2578658Y737971D01*
X2573782Y730148D01*
X2561844Y712419D01*
X2556967Y704748D01*
X2553665Y699109D01*
X2552446Y696315D01*
X2554173Y693521D01*
X2558745Y688035D01*
X2573883Y672134D01*
X2595372Y650798D01*
X2645003Y684225D01*
X2669082Y672084D01*
X2672943Y679805D01*
X2682748Y702665D01*
X2712669Y775208D01*
X2701544Y783437D01*
X2696768Y787450D01*
X2692501Y791464D01*
X2688691Y795528D01*
X2685338Y799642D01*
X2682494Y803910D01*
X2680055Y808278D01*
X2678023Y812800D01*
X2676398Y817524D01*
X2675128Y822401D01*
X2674264Y827532D01*
X2673705Y832967D01*
X2673553Y839825D01*
X2674010Y846480D01*
X2675026Y852830D01*
X2676652Y858926D01*
X2678836Y864717D01*
X2681579Y870203D01*
X2684830Y875334D01*
X2688640Y880110D01*
X2693009Y884529D01*
X2697886Y888593D01*
X2703271Y892251D01*
X2709164Y895451D01*
X2714142Y897686D01*
X2719171Y899464D01*
X2724200Y900836D01*
X2729280Y901801D01*
X2734310Y902309D01*
X2739339Y902462D01*
X2744317Y902157D01*
X2749245Y901496D01*
X2754071Y900430D01*
X2758795Y899007D01*
X2763469Y897128D01*
X2767939Y894943D01*
X2772308Y892352D01*
X2776524Y889457D01*
X2780538Y886155D01*
X2784398Y882497D01*
X2788005Y878535D01*
X2791409Y874217D01*
X2794558Y869543D01*
X2797454Y864565D01*
X2799283Y860196D01*
X2800451Y854862D01*
X2801061Y847699D01*
X2801264Y837946D01*
X2801061Y827379D01*
X2800299Y820064D01*
X2798673Y814222D01*
X2795778Y808126D01*
X2793644Y804468D01*
X2791155Y800811D01*
X2788310Y797153D01*
X2785160Y793546D01*
X2777693Y786434D01*
X2773426Y782929D01*
X2762961Y775208D01*
X2789377Y711200D01*
X2799588Y686968D01*
X2806242Y671931D01*
X2830931Y684428D01*
X2880156Y650697D01*
X2909976Y680669D01*
X2916783Y688035D01*
X2921406Y693572D01*
X2923133Y696315D01*
X2921914Y699160D01*
X2918612Y704850D01*
X2913735Y712520D01*
X2901797Y730300D01*
X2896920Y738124D01*
X2893669Y744067D01*
X2892501Y747268D01*
X2893212Y750366D01*
X2895092Y756158D01*
X2901289Y772414D01*
X2909976Y793953D01*
X2970225Y805992D01*
X2970072Y850900D01*
X2969717Y861212D01*
X2969158Y868171D01*
X2968498Y870712D01*
X2958134Y872388D01*
X2918358Y879906D01*
X2909163Y881938D01*
X2905607Y889253D01*
X2899206Y904138D01*
X2891078Y924356D01*
X2890367Y926846D01*
X2891739Y929741D01*
X2901035Y944575D01*
X2925267Y980135D01*
X2880207Y1025194D01*
X2843530Y1000404D01*
X2828493Y990904D01*
X2825699Y989533D01*
X2822448Y990244D01*
X2817063Y992174D01*
X2810306Y994918D01*
X2795778Y1001623D01*
X2789428Y1004874D01*
X2784805Y1007567D01*
X2782570Y1009345D01*
X2781350Y1012799D01*
X2779623Y1019454D01*
X2777693Y1028395D01*
X2770225Y1067816D01*
X2768752Y1069746D01*
X2764231Y1070813D01*
X2754579Y1071321D01*
G37*
G36*
X2958947Y604469D02*
G01*
X2954985Y603300D01*
X2948330Y600557D01*
X2941320Y596188D01*
X2936697Y590245D01*
X2934157Y582168D01*
X2933344Y571347D01*
X2933598Y565505D01*
X2934258Y560425D01*
X2935427Y556006D01*
X2937154Y552246D01*
X2939491Y549046D01*
X2942386Y546354D01*
X2945993Y544068D01*
X2950260Y542137D01*
X2958338Y540258D01*
X2966364Y540512D01*
X2973527Y542747D01*
X2979115Y546811D01*
X2980893Y548995D01*
X2981452Y550570D01*
X2980690Y552094D01*
X2978607Y554177D01*
X2976473Y555802D01*
X2974594Y556564D01*
X2972714Y556463D01*
X2968345Y554685D01*
X2965500Y553974D01*
X2959201Y553313D01*
X2953207Y554431D01*
X2948940Y557834D01*
X2946450Y563575D01*
X2945638Y571754D01*
X2946450Y579932D01*
X2948940Y585673D01*
X2953207Y589076D01*
X2959201Y590194D01*
X2965500Y589534D01*
X2968345Y588822D01*
X2972714Y587044D01*
X2974594Y586943D01*
X2976473Y587705D01*
X2978607Y589330D01*
X2980690Y591362D01*
X2981452Y592937D01*
X2980893Y594512D01*
X2979115Y596646D01*
X2975457Y599287D01*
X2969920Y601827D01*
X2963976Y603758D01*
G37*
G36*
X2462733Y604316D02*
G01*
X2457856Y603402D01*
X2452116Y600913D01*
X2448458Y598728D01*
X2445410Y596138D01*
X2442921Y593039D01*
X2440940Y589432D01*
X2439517Y585266D01*
X2438603Y580542D01*
X2438196Y575208D01*
X2438226Y571754D01*
X2451100Y571754D01*
X2451811Y580847D01*
X2453894Y586790D01*
X2458212Y589534D01*
X2463850Y590194D01*
X2469388Y588873D01*
X2473502Y585622D01*
X2474722Y583133D01*
X2475738Y579678D01*
X2476449Y575716D01*
X2476703Y571754D01*
X2475890Y563676D01*
X2473401Y557936D01*
X2469286Y554482D01*
X2463495Y553313D01*
X2460650Y553567D01*
X2457856Y554278D01*
X2455519Y555396D01*
X2453894Y556717D01*
X2451811Y562660D01*
X2451100Y571754D01*
X2438226Y571754D01*
X2438247Y569264D01*
X2438755Y563422D01*
X2439619Y558393D01*
X2440990Y554075D01*
X2442819Y550468D01*
X2445156Y547471D01*
X2448153Y544982D01*
X2451709Y542950D01*
X2456027Y541324D01*
X2460752Y540004D01*
X2464460Y539546D01*
X2467965Y540004D01*
X2472182Y541375D01*
X2476195Y543255D01*
X2479700Y545642D01*
X2482596Y548538D01*
X2484932Y551992D01*
X2486710Y555955D01*
X2487980Y560578D01*
X2488742Y565759D01*
X2488996Y571550D01*
X2488742Y577342D01*
X2488082Y582472D01*
X2486914Y587044D01*
X2485237Y591007D01*
X2483104Y594410D01*
X2480462Y597306D01*
X2477312Y599694D01*
X2473655Y601573D01*
X2467660Y603707D01*
G37*
G36*
X2790342Y604316D02*
G01*
X2785516Y603402D01*
X2779776Y600913D01*
X2776118Y598728D01*
X2773070Y596138D01*
X2770530Y593039D01*
X2768600Y589432D01*
X2767126Y585266D01*
X2766212Y580542D01*
X2765806Y575208D01*
X2765865Y571754D01*
X2777744Y571754D01*
X2778556Y579729D01*
X2780944Y585470D01*
X2784957Y588975D01*
X2790494Y590194D01*
X2793238Y589889D01*
X2796082Y589178D01*
X2798622Y588111D01*
X2800604Y586790D01*
X2802331Y584606D01*
X2803499Y581660D01*
X2804160Y577545D01*
X2804363Y572109D01*
X2803601Y563422D01*
X2801264Y557631D01*
X2797048Y554329D01*
X2790850Y553313D01*
X2785110Y554482D01*
X2780995Y557936D01*
X2778556Y563676D01*
X2777744Y571754D01*
X2765865Y571754D01*
X2766415Y563422D01*
X2767279Y558393D01*
X2768600Y554075D01*
X2770428Y550468D01*
X2772816Y547471D01*
X2775762Y544982D01*
X2779369Y542950D01*
X2783636Y541324D01*
X2788361Y540004D01*
X2792069Y539546D01*
X2795625Y540004D01*
X2799842Y541375D01*
X2803855Y543255D01*
X2807309Y545642D01*
X2810205Y548538D01*
X2812542Y551992D01*
X2814370Y555955D01*
X2815640Y560578D01*
X2816352Y565759D01*
X2816606Y571550D01*
X2816402Y577342D01*
X2815691Y582472D01*
X2814523Y587044D01*
X2812897Y591007D01*
X2810764Y594410D01*
X2808122Y597306D01*
X2804972Y599694D01*
X2801315Y601573D01*
X2795270Y603707D01*
G37*
G36*
X2583637Y604266D02*
G01*
X2578862Y603402D01*
X2573172Y601014D01*
X2568600Y597814D01*
X2564790Y593344D01*
X2561894Y587857D01*
X2559913Y581609D01*
X2559639Y579678D01*
X2570886Y579678D01*
X2571242Y580796D01*
X2573477Y584606D01*
X2575153Y586841D01*
X2579319Y590550D01*
X2584043Y592074D01*
X2588869Y591261D01*
X2593441Y588111D01*
X2597302Y583285D01*
X2597200Y580136D01*
X2592933Y578408D01*
X2584196Y577900D01*
X2579014Y578053D01*
X2574798Y578408D01*
X2571953Y578967D01*
X2570886Y579678D01*
X2559639Y579678D01*
X2558948Y574802D01*
X2558999Y567791D01*
X2560167Y560832D01*
X2562555Y554075D01*
X2565704Y548944D01*
X2569921Y544931D01*
X2575001Y542036D01*
X2580690Y540308D01*
X2586736Y539800D01*
X2592882Y540512D01*
X2598978Y542594D01*
X2604719Y545947D01*
X2607005Y547776D01*
X2607716Y549148D01*
X2606852Y550824D01*
X2601823Y555853D01*
X2599893Y556768D01*
X2597962Y556310D01*
X2595219Y554583D01*
X2590190Y552043D01*
X2585212Y551484D01*
X2580436Y552907D01*
X2575915Y556310D01*
X2571089Y562102D01*
X2571445Y565556D01*
X2577642Y567232D01*
X2590342Y567639D01*
X2609799Y567639D01*
X2609799Y576376D01*
X2608681Y584454D01*
X2605532Y591718D01*
X2600706Y597611D01*
X2594457Y601573D01*
X2588564Y603656D01*
G37*
G36*
X2731465Y604266D02*
G01*
X2726639Y603554D01*
X2721406Y601675D01*
X2715971Y598678D01*
X2712313Y595122D01*
X2710332Y590600D01*
X2709722Y584860D01*
X2711043Y577494D01*
X2715006Y572008D01*
X2721864Y568248D01*
X2731668Y566115D01*
X2737713Y565150D01*
X2741574Y564083D01*
X2743708Y562610D01*
X2744622Y560628D01*
X2743301Y555040D01*
X2737662Y552043D01*
X2729382Y551992D01*
X2720035Y555244D01*
X2715717Y557479D01*
X2713126Y558190D01*
X2711246Y557479D01*
X2709062Y555294D01*
X2706979Y551484D01*
X2708249Y548081D01*
X2713024Y544931D01*
X2721457Y541934D01*
X2727248Y540664D01*
X2732735Y540156D01*
X2737866Y540410D01*
X2742641Y541324D01*
X2746857Y542899D01*
X2750515Y544982D01*
X2753563Y547674D01*
X2755849Y550773D01*
X2757322Y554278D01*
X2757982Y558190D01*
X2757627Y562356D01*
X2756255Y566826D01*
X2753258Y571754D01*
X2748940Y575208D01*
X2743149Y577240D01*
X2729534Y578256D01*
X2725369Y579475D01*
X2723134Y581710D01*
X2722422Y585063D01*
X2724150Y589635D01*
X2728722Y591972D01*
X2735224Y591870D01*
X2742742Y589229D01*
X2745994Y587705D01*
X2748229Y587349D01*
X2750058Y588162D01*
X2752140Y590194D01*
X2754172Y593852D01*
X2753360Y597154D01*
X2749702Y599998D01*
X2743200Y602437D01*
X2736748Y603910D01*
G37*
G36*
X2920390Y604266D02*
G01*
X2916529Y603504D01*
X2908757Y600506D01*
X2906623Y599998D01*
X2905201Y599998D01*
X2904185Y601268D01*
X2902864Y601878D01*
X2900934Y602335D01*
X2892399Y602488D01*
X2892399Y541020D01*
X2904693Y541020D01*
X2904744Y571703D01*
X2905048Y578205D01*
X2905709Y583031D01*
X2906776Y586384D01*
X2908401Y588518D01*
X2910738Y589686D01*
X2913786Y590092D01*
X2921152Y589889D01*
X2924149Y590397D01*
X2926791Y591464D01*
X2929128Y593140D01*
X2932176Y596188D01*
X2933039Y598424D01*
X2931718Y600202D01*
X2928112Y602132D01*
X2923895Y603808D01*
G37*
G36*
X2528671Y604215D02*
G01*
X2525217Y603504D01*
X2517648Y600506D01*
X2515514Y599998D01*
X2514092Y599998D01*
X2512974Y601268D01*
X2511450Y601878D01*
X2509164Y602335D01*
X2499207Y602488D01*
X2499207Y571754D01*
X2513533Y571754D01*
X2513736Y577342D01*
X2514244Y582117D01*
X2515006Y585724D01*
X2516022Y587705D01*
X2519934Y589635D01*
X2525268Y590092D01*
X2530551Y589127D01*
X2534259Y586841D01*
X2535377Y584606D01*
X2536240Y581152D01*
X2536850Y576732D01*
X2537053Y571754D01*
X2536444Y563016D01*
X2534412Y557326D01*
X2530703Y554228D01*
X2524963Y553313D01*
X2519222Y554075D01*
X2515717Y556818D01*
X2513990Y562406D01*
X2513533Y571754D01*
X2499207Y571754D01*
X2499207Y442722D01*
X2513533Y442722D01*
X2513685Y477418D01*
X2514193Y484479D01*
X2515463Y488035D01*
X2517749Y489915D01*
X2522931Y491540D01*
X2528011Y491286D01*
X2532430Y489305D01*
X2535478Y485749D01*
X2536545Y482295D01*
X2537358Y476758D01*
X2537917Y469696D01*
X2538120Y461670D01*
X2538120Y442722D01*
X2550414Y442722D01*
X2550312Y472185D01*
X2549956Y479094D01*
X2549347Y484885D01*
X2548432Y489610D01*
X2547213Y493471D01*
X2545588Y496570D01*
X2543556Y499008D01*
X2541117Y500938D01*
X2535885Y503123D01*
X2529433Y504037D01*
X2522880Y503732D01*
X2515311Y501345D01*
X2514092Y503377D01*
X2513634Y509828D01*
X2513533Y544779D01*
X2525826Y540156D01*
X2529179Y539648D01*
X2532532Y540207D01*
X2536850Y541832D01*
X2542946Y545795D01*
X2547213Y551891D01*
X2549652Y560476D01*
X2550414Y571754D01*
X2549652Y582930D01*
X2547213Y591464D01*
X2543149Y597611D01*
X2537256Y601522D01*
X2532126Y603554D01*
G37*
G36*
X2649423Y604215D02*
G01*
X2646019Y603504D01*
X2638450Y600506D01*
X2636316Y599998D01*
X2634894Y599998D01*
X2633827Y601268D01*
X2632252Y601878D01*
X2629966Y602335D01*
X2620060Y602488D01*
X2620060Y541020D01*
X2634386Y541020D01*
X2634386Y563168D01*
X2634691Y577697D01*
X2636215Y585825D01*
X2639720Y589381D01*
X2645918Y590194D01*
X2649524Y589889D01*
X2652420Y588924D01*
X2654655Y587197D01*
X2656382Y584454D01*
X2657602Y580644D01*
X2658414Y575564D01*
X2658821Y569061D01*
X2658973Y541020D01*
X2671216Y541020D01*
X2671114Y572617D01*
X2670657Y579983D01*
X2669844Y585978D01*
X2668625Y590753D01*
X2666847Y594512D01*
X2664510Y597458D01*
X2661564Y599744D01*
X2657856Y601624D01*
X2652877Y603554D01*
G37*
G36*
X3014268Y603910D02*
G01*
X3009950Y603808D01*
X3005531Y602894D01*
X3001111Y601014D01*
X2994863Y596341D01*
X2990291Y589788D01*
X2987548Y581558D01*
X2987382Y579882D01*
X2999486Y579882D01*
X2999994Y582523D01*
X3003702Y588873D01*
X3009239Y591870D01*
X3015538Y591261D01*
X3021279Y586841D01*
X3024276Y582523D01*
X3025190Y580796D01*
X3025495Y579678D01*
X3024428Y578967D01*
X3021533Y578408D01*
X3017266Y578053D01*
X3012033Y577900D01*
X3004515Y578002D01*
X3000654Y578510D01*
X2999486Y579882D01*
X2987382Y579882D01*
X2986582Y571804D01*
X2986836Y566115D01*
X2987548Y561136D01*
X2988767Y556717D01*
X2990494Y552907D01*
X2992729Y549605D01*
X2995574Y546760D01*
X2999028Y544372D01*
X3003042Y542391D01*
X3008071Y540562D01*
X3012135Y539750D01*
X3015996Y539851D01*
X3020517Y540816D01*
X3024022Y541883D01*
X3027476Y543204D01*
X3030524Y544677D01*
X3032709Y545998D01*
X3034995Y547776D01*
X3035706Y549148D01*
X3034893Y550773D01*
X3030067Y555548D01*
X3028035Y556463D01*
X3025698Y556056D01*
X3016707Y552043D01*
X3012135Y551535D01*
X3008071Y552958D01*
X3003905Y556310D01*
X2999079Y562102D01*
X2999435Y565556D01*
X3005632Y567232D01*
X3018332Y567639D01*
X3037789Y567639D01*
X3037789Y574903D01*
X3037382Y580136D01*
X3036316Y585063D01*
X3034538Y589483D01*
X3032201Y593394D01*
X3029356Y596798D01*
X3026054Y599592D01*
X3022396Y601776D01*
X3018434Y603199D01*
G37*
G36*
X2826867Y602488D02*
G01*
X2827020Y571398D01*
X2827528Y563880D01*
X2828493Y557682D01*
X2829966Y552704D01*
X2831947Y548741D01*
X2834538Y545592D01*
X2837840Y543204D01*
X2841904Y541274D01*
X2846070Y539902D01*
X2849372Y539597D01*
X2852877Y540461D01*
X2861513Y544423D01*
X2864053Y545236D01*
X2865374Y545033D01*
X2866186Y542645D01*
X2867406Y541782D01*
X2869336Y541223D01*
X2871927Y541020D01*
X2878074Y541020D01*
X2878074Y602488D01*
X2865780Y602488D01*
X2865628Y574446D01*
X2865221Y567944D01*
X2864459Y562864D01*
X2863240Y559054D01*
X2861513Y556310D01*
X2859227Y554532D01*
X2856331Y553618D01*
X2852775Y553313D01*
X2846527Y554126D01*
X2843072Y557682D01*
X2841548Y565810D01*
X2841193Y580339D01*
X2841193Y602488D01*
G37*
G36*
X2703982Y528726D02*
G01*
X2703880Y507492D01*
X2703372Y503072D01*
X2702458Y500735D01*
X2701036Y500075D01*
X2699816Y500227D01*
X2698597Y500684D01*
X2695651Y502920D01*
X2693365Y503580D01*
X2686761Y504190D01*
X2681071Y503631D01*
X2676245Y501954D01*
X2672334Y499160D01*
X2669286Y495198D01*
X2667101Y490067D01*
X2665730Y483717D01*
X2665222Y476097D01*
X2665415Y469341D01*
X2677871Y469341D01*
X2677972Y477012D01*
X2679344Y484378D01*
X2681833Y488950D01*
X2685796Y491185D01*
X2691536Y491490D01*
X2695498Y490880D01*
X2698089Y489661D01*
X2699867Y487172D01*
X2701442Y483006D01*
X2702915Y476656D01*
X2703118Y470611D01*
X2702306Y465074D01*
X2700477Y460400D01*
X2697886Y456793D01*
X2694584Y454456D01*
X2690723Y453694D01*
X2686456Y454710D01*
X2682240Y457911D01*
X2679344Y462838D01*
X2677871Y469341D01*
X2665415Y469341D01*
X2665476Y467207D01*
X2667050Y457403D01*
X2670251Y449986D01*
X2675178Y444906D01*
X2681884Y441909D01*
X2685694Y441248D01*
X2689047Y441248D01*
X2692349Y442010D01*
X2698953Y444855D01*
X2701290Y445516D01*
X2702864Y445516D01*
X2704388Y444042D01*
X2705862Y443382D01*
X2707944Y442925D01*
X2710332Y442722D01*
X2716276Y442722D01*
X2716276Y528726D01*
G37*
G36*
X2584704Y504494D02*
G01*
X2579370Y504342D01*
X2574340Y503580D01*
X2569921Y502208D01*
X2566517Y500227D01*
X2563825Y497890D01*
X2562809Y496366D01*
X2563520Y494944D01*
X2565755Y493064D01*
X2567686Y491896D01*
X2569870Y491134D01*
X2572054Y490829D01*
X2573985Y491032D01*
X2580741Y492810D01*
X2585466Y493369D01*
X2589022Y492810D01*
X2592374Y491032D01*
X2594406Y489407D01*
X2596032Y487476D01*
X2597099Y485495D01*
X2597505Y483666D01*
X2597200Y481634D01*
X2596032Y480364D01*
X2593695Y479755D01*
X2581097Y478942D01*
X2573223Y477316D01*
X2566974Y474929D01*
X2563164Y472033D01*
X2560624Y467512D01*
X2559468Y463397D01*
X2570988Y463397D01*
X2572258Y465937D01*
X2573731Y466496D01*
X2580843Y467207D01*
X2591816Y467156D01*
X2595473Y466648D01*
X2597099Y465429D01*
X2597505Y463346D01*
X2595372Y457606D01*
X2589885Y453948D01*
X2582519Y452932D01*
X2574848Y455117D01*
X2572410Y457301D01*
X2571089Y460298D01*
X2570988Y463397D01*
X2559468Y463397D01*
X2559253Y458520D01*
X2560269Y454355D01*
X2562199Y450494D01*
X2564942Y447141D01*
X2568397Y444347D01*
X2572461Y442315D01*
X2576931Y441096D01*
X2581757Y440791D01*
X2586786Y441655D01*
X2594051Y444652D01*
X2595880Y445160D01*
X2597048Y445160D01*
X2598013Y443941D01*
X2599385Y443280D01*
X2601366Y442874D01*
X2610154Y442722D01*
X2608986Y483311D01*
X2608122Y491540D01*
X2606344Y495960D01*
X2603042Y499211D01*
X2599588Y501396D01*
X2595168Y503021D01*
X2590088Y504088D01*
G37*
G36*
X2943148Y504291D02*
G01*
X2937713Y503682D01*
X2932734Y502005D01*
X2928518Y499109D01*
X2923997Y494030D01*
X2921050Y488188D01*
X2920130Y483971D01*
X2931312Y483971D01*
X2933852Y488188D01*
X2937713Y491743D01*
X2941980Y493369D01*
X2946501Y493115D01*
X2951073Y490931D01*
X2952800Y489407D01*
X2954426Y487578D01*
X2955696Y485597D01*
X2956458Y483768D01*
X2956712Y481482D01*
X2955391Y480212D01*
X2951581Y479704D01*
X2944418Y479602D01*
X2936240Y480009D01*
X2932023Y481380D01*
X2931312Y483971D01*
X2920130Y483971D01*
X2919476Y480974D01*
X2919018Y471576D01*
X2919272Y465582D01*
X2920034Y460806D01*
X2921457Y456641D01*
X2923692Y452780D01*
X2927400Y448411D01*
X2931922Y445109D01*
X2937103Y442823D01*
X2942640Y441604D01*
X2948432Y441451D01*
X2954223Y442417D01*
X2959862Y444500D01*
X2965145Y447751D01*
X2967380Y449630D01*
X2967990Y451002D01*
X2966974Y452526D01*
X2961386Y456793D01*
X2959252Y457606D01*
X2957322Y457250D01*
X2954985Y455879D01*
X2950108Y453643D01*
X2944774Y453135D01*
X2939643Y454304D01*
X2935376Y457047D01*
X2931363Y462127D01*
X2932074Y465226D01*
X2938119Y466953D01*
X2950260Y467766D01*
X2969209Y468325D01*
X2969056Y477977D01*
X2968802Y482092D01*
X2968193Y486206D01*
X2967380Y489813D01*
X2966364Y492506D01*
X2963265Y496620D01*
X2959100Y499922D01*
X2954172Y502361D01*
X2948736Y503834D01*
G37*
G36*
X2728925Y504190D02*
G01*
X2725623Y504037D01*
X2723692Y503529D01*
X2722930Y502564D01*
X2723184Y501091D01*
X2741777Y442569D01*
X2747924Y443179D01*
X2751378Y443890D01*
X2753766Y445973D01*
X2755900Y450646D01*
X2763266Y475081D01*
X2764891Y479247D01*
X2766212Y481076D01*
X2767431Y480568D01*
X2768803Y477875D01*
X2778760Y445312D01*
X2779572Y444296D01*
X2781096Y443484D01*
X2783128Y442925D01*
X2785465Y442722D01*
X2788970Y443280D01*
X2791714Y446481D01*
X2795016Y454863D01*
X2810002Y501751D01*
X2810103Y502970D01*
X2809290Y503732D01*
X2807309Y503986D01*
X2801772Y503529D01*
X2799842Y502869D01*
X2798216Y501497D01*
X2796692Y499008D01*
X2795066Y494944D01*
X2790850Y480517D01*
X2785364Y460146D01*
X2774492Y493979D01*
X2771698Y500583D01*
X2769311Y503529D01*
X2766517Y504190D01*
X2763723Y503529D01*
X2761386Y500684D01*
X2758694Y494182D01*
X2752242Y474421D01*
X2749854Y468122D01*
X2747975Y464312D01*
X2746908Y463651D01*
X2744520Y471068D01*
X2740660Y485241D01*
X2735834Y504190D01*
G37*
G36*
X2835605Y504190D02*
G01*
X2826715Y502920D01*
X2820416Y500227D01*
X2817876Y497941D01*
X2816860Y496316D01*
X2817266Y494792D01*
X2818942Y492810D01*
X2820974Y491134D01*
X2823006Y490474D01*
X2825699Y490778D01*
X2829712Y492099D01*
X2836773Y493572D01*
X2842768Y492861D01*
X2847035Y490118D01*
X2848965Y485495D01*
X2849067Y482447D01*
X2847594Y480720D01*
X2843530Y479653D01*
X2835706Y478739D01*
X2824886Y476859D01*
X2817723Y473506D01*
X2813761Y468426D01*
X2812570Y460908D01*
X2822752Y460908D01*
X2823870Y463600D01*
X2826969Y465582D01*
X2831947Y466851D01*
X2838551Y467309D01*
X2844444Y467207D01*
X2847695Y466598D01*
X2849118Y465175D01*
X2849372Y462584D01*
X2848660Y458266D01*
X2846425Y455269D01*
X2842514Y453542D01*
X2836824Y452983D01*
X2831744Y453694D01*
X2827223Y455472D01*
X2824022Y458012D01*
X2822752Y460908D01*
X2812570Y460908D01*
X2812796Y458063D01*
X2813456Y454761D01*
X2814421Y451764D01*
X2815590Y449478D01*
X2819958Y445516D01*
X2826054Y442772D01*
X2832963Y441451D01*
X2839669Y441959D01*
X2842869Y442569D01*
X2850489Y443077D01*
X2861665Y442366D01*
X2861513Y476453D01*
X2861310Y483412D01*
X2860802Y488797D01*
X2860040Y492861D01*
X2858820Y495909D01*
X2857144Y498246D01*
X2854960Y500075D01*
X2852064Y501802D01*
X2844800Y503834D01*
G37*
G36*
X2875991Y504190D02*
G01*
X2875991Y442722D01*
X2888284Y442722D01*
X2888437Y471220D01*
X2888894Y477977D01*
X2889758Y483209D01*
X2891078Y487019D01*
X2893009Y489559D01*
X2895498Y491032D01*
X2898749Y491540D01*
X2906979Y490931D01*
X2909824Y491388D01*
X2911957Y492759D01*
X2914040Y495401D01*
X2915615Y498093D01*
X2916224Y499922D01*
X2915869Y501243D01*
X2914599Y502361D01*
X2910433Y503732D01*
X2904693Y504088D01*
X2898749Y503428D01*
X2893872Y501853D01*
X2891790Y500837D01*
X2890316Y500532D01*
X2889351Y500837D01*
X2887980Y502716D01*
X2886456Y503478D01*
X2884373Y503986D01*
X2881985Y504190D01*
G37*
G36*
X2630779Y504088D02*
G01*
X2626461Y503986D01*
X2623464Y502818D01*
X2622905Y499973D01*
X2622194Y483616D01*
X2622092Y442722D01*
X2636418Y442722D01*
X2636520Y471881D01*
X2636824Y478586D01*
X2637485Y483666D01*
X2638552Y487273D01*
X2640126Y489712D01*
X2642311Y491083D01*
X2645105Y491642D01*
X2648762Y491591D01*
X2655468Y492201D01*
X2660751Y494538D01*
X2663545Y497840D01*
X2662783Y501396D01*
X2658618Y503377D01*
X2652014Y504088D01*
X2645257Y503529D01*
X2640685Y501599D01*
X2639314Y500481D01*
X2638298Y500075D01*
X2637586Y500481D01*
X2637028Y501599D01*
X2634843Y503275D01*
G37*
D28*
X5310446Y1219200D02*
G01*
X5116484Y1219200D01*
X5310446Y1219200D02*
G01*
X5310446Y1099126D01*
X5218084Y1219200D02*
G01*
X5218084Y1145308D01*
X5310446Y1038166D02*
G01*
X5116484Y991984D01*
X5310446Y945804D02*
G01*
X5116484Y991984D01*
X5310446Y945804D02*
G01*
X5116484Y899622D01*
X5310446Y853439D02*
G01*
X5116484Y899622D01*
X5310446Y792479D02*
G01*
X5116484Y792479D01*
X5310446Y792479D02*
G01*
X5310446Y727824D01*
X5301211Y700115D01*
X5282737Y681644D01*
X5264264Y672406D01*
X5236555Y663171D01*
X5190375Y663171D01*
X5162664Y672406D01*
X5144193Y681644D01*
X5125720Y700115D01*
X5116484Y727824D01*
X5116484Y792479D01*
X5577146Y1219200D02*
G01*
X5383184Y1219200D01*
X5577146Y1219200D02*
G01*
X5577146Y1136073D01*
X5567911Y1108364D01*
X5558675Y1099126D01*
X5540202Y1089891D01*
X5521728Y1089891D01*
X5503255Y1099126D01*
X5494020Y1108364D01*
X5484784Y1136073D01*
X5484784Y1219200D01*
X5484784Y1154544D02*
G01*
X5383184Y1089891D01*
X5577146Y1028931D02*
G01*
X5383184Y1028931D01*
X5577146Y1028931D02*
G01*
X5577146Y908857D01*
X5484784Y1028931D02*
G01*
X5484784Y955039D01*
X5383184Y1028931D02*
G01*
X5383184Y908857D01*
X5577146Y847897D02*
G01*
X5383184Y774006D01*
X5577146Y700115D02*
G01*
X5383184Y774006D01*
X5856546Y1219200D02*
G01*
X5662584Y1219200D01*
X5856546Y1219200D02*
G01*
X5856546Y1099126D01*
X5764184Y1219200D02*
G01*
X5764184Y1145308D01*
X5662584Y1219200D02*
G01*
X5662584Y1099126D01*
X5856546Y1038166D02*
G01*
X5662584Y1038166D01*
X5856546Y1038166D02*
G01*
X5662584Y908857D01*
X5856546Y908857D02*
G01*
X5662584Y908857D01*
X6196329Y679450D02*
G01*
X6187186Y697992D01*
X6168643Y716534D01*
X6150356Y725678D01*
X6113272Y725678D01*
X6094729Y716534D01*
X6076441Y697992D01*
X6067043Y679450D01*
X6057900Y651763D01*
X6057900Y605789D01*
X6067043Y577850D01*
X6076441Y559562D01*
X6094729Y541020D01*
X6113272Y531876D01*
X6150356Y531876D01*
X6168643Y541020D01*
X6187186Y559562D01*
X6196329Y577850D01*
X6196329Y605789D01*
X6150356Y605789D02*
G01*
X6196329Y605789D01*
X6257290Y725678D02*
G01*
X6257290Y531876D01*
X6257290Y725678D02*
G01*
X6386829Y531876D01*
X6386829Y725678D02*
G01*
X6386829Y531876D01*
X6447790Y725678D02*
G01*
X6447790Y531876D01*
X6447790Y725678D02*
G01*
X6512306Y725678D01*
X6539991Y716534D01*
X6558534Y697992D01*
X6567677Y679450D01*
X6577075Y651763D01*
X6577075Y605789D01*
X6567677Y577850D01*
X6558534Y559562D01*
X6539991Y541020D01*
X6512306Y531876D01*
X6447790Y531876D01*
X6863334Y697992D02*
G01*
X6863334Y531876D01*
X6780275Y614934D02*
G01*
X6946391Y614934D01*
X7007352Y688847D02*
G01*
X7025893Y697992D01*
X7053579Y725678D01*
X7053579Y531876D01*
X7123684Y679450D02*
G01*
X7123684Y688847D01*
X7133081Y707389D01*
X7142225Y716534D01*
X7160768Y725678D01*
X7197597Y725678D01*
X7216140Y716534D01*
X7225284Y707389D01*
X7234681Y688847D01*
X7234681Y670305D01*
X7225284Y651763D01*
X7206995Y624078D01*
X7114540Y531876D01*
X7243825Y531876D01*
X7304786Y725678D02*
G01*
X7378700Y531876D01*
X7452613Y725678D02*
G01*
X7378700Y531876D01*
X3606800Y725678D02*
G01*
X3606800Y531876D01*
X3606800Y725678D02*
G01*
X3671570Y725678D01*
X3699256Y716534D01*
X3717543Y697992D01*
X3726941Y679450D01*
X3736086Y651763D01*
X3736086Y605789D01*
X3726941Y577850D01*
X3717543Y559562D01*
X3699256Y541020D01*
X3671570Y531876D01*
X3606800Y531876D01*
X3935729Y679450D02*
G01*
X3926331Y697992D01*
X3907790Y716534D01*
X3889502Y725678D01*
X3852418Y725678D01*
X3834129Y716534D01*
X3815588Y697992D01*
X3806190Y679450D01*
X3797045Y651763D01*
X3797045Y605789D01*
X3806190Y577850D01*
X3815588Y559562D01*
X3834129Y541020D01*
X3852418Y531876D01*
X3889502Y531876D01*
X3907790Y541020D01*
X3926331Y559562D01*
X3935729Y577850D01*
X4138929Y725678D02*
G01*
X4138929Y531876D01*
X4138929Y725678D02*
G01*
X4212590Y531876D01*
X4286504Y725678D02*
G01*
X4212590Y531876D01*
X4286504Y725678D02*
G01*
X4286504Y531876D01*
X4393691Y661162D02*
G01*
X4375150Y651763D01*
X4356861Y633476D01*
X4347463Y605789D01*
X4347463Y587247D01*
X4356861Y559562D01*
X4375150Y541020D01*
X4393691Y531876D01*
X4421377Y531876D01*
X4439920Y541020D01*
X4458461Y559562D01*
X4467606Y587247D01*
X4467606Y605789D01*
X4458461Y633476D01*
X4439920Y651763D01*
X4421377Y661162D01*
X4393691Y661162D01*
X4556252Y725678D02*
G01*
X4556252Y568705D01*
X4565650Y541020D01*
X4583938Y531876D01*
X4602479Y531876D01*
X4528565Y661162D02*
G01*
X4593336Y661162D01*
X4709668Y661162D02*
G01*
X4691125Y651763D01*
X4672584Y633476D01*
X4663440Y605789D01*
X4663440Y587247D01*
X4672584Y559562D01*
X4691125Y541020D01*
X4709668Y531876D01*
X4737354Y531876D01*
X4755895Y541020D01*
X4774184Y559562D01*
X4783581Y587247D01*
X4783581Y605789D01*
X4774184Y633476D01*
X4755895Y651763D01*
X4737354Y661162D01*
X4709668Y661162D01*
X4844541Y661162D02*
G01*
X4844541Y531876D01*
X4844541Y605789D02*
G01*
X4853686Y633476D01*
X4872227Y651763D01*
X4890770Y661162D01*
X4918456Y661162D01*
X7503922Y2752344D02*
G01*
X7503922Y2660142D01*
X7586979Y2650744D01*
X7577836Y2660142D01*
X7568438Y2687828D01*
X7568438Y2715513D01*
X7577836Y2743200D01*
X7596124Y2761742D01*
X7623809Y2770886D01*
X7642352Y2770886D01*
X7670038Y2761742D01*
X7688579Y2743200D01*
X7697724Y2715513D01*
X7697724Y2687828D01*
X7688579Y2660142D01*
X7679436Y2650744D01*
X7660893Y2641600D01*
X7466838Y2998215D02*
G01*
X7762493Y2831845D01*
X7540752Y3059176D02*
G01*
X7531608Y3077463D01*
X7503922Y3105150D01*
X7697724Y3105150D01*
X7503922Y3221736D02*
G01*
X7513065Y3194050D01*
X7540752Y3175507D01*
X7586979Y3166110D01*
X7614665Y3166110D01*
X7660893Y3175507D01*
X7688579Y3194050D01*
X7697724Y3221736D01*
X7697724Y3240023D01*
X7688579Y3267710D01*
X7660893Y3286252D01*
X7614665Y3295650D01*
X7586979Y3295650D01*
X7540752Y3286252D01*
X7513065Y3267710D01*
X7503922Y3240023D01*
X7503922Y3221736D01*
X7503922Y3430270D02*
G01*
X7697724Y3356610D01*
X7503922Y3430270D02*
G01*
X7697724Y3504184D01*
X7633208Y3384295D02*
G01*
X7633208Y3476497D01*
X2170071Y5444545D02*
G01*
X2170071Y5328180D01*
X2162799Y5306364D01*
X2155527Y5299090D01*
X2140981Y5291818D01*
X2119162Y5291818D01*
X2104618Y5299090D01*
X2170071Y5422727D02*
G01*
X2155527Y5437273D01*
X2140981Y5444545D01*
X2119162Y5444545D01*
X2104618Y5437273D01*
X2090072Y5422727D01*
X2082800Y5400908D01*
X2082800Y5386364D01*
X2090072Y5364546D01*
X2104618Y5349999D01*
X2119162Y5342727D01*
X2140981Y5342727D01*
X2155527Y5349999D01*
X2170071Y5364546D01*
X2218072Y5495455D02*
G01*
X2225344Y5488183D01*
X2232619Y5495455D01*
X2225344Y5502727D01*
X2218072Y5495455D01*
X2225344Y5444545D02*
G01*
X2225344Y5342727D01*
X2302436Y5495455D02*
G01*
X2302436Y5371818D01*
X2309708Y5349999D01*
X2324254Y5342727D01*
X2338798Y5342727D01*
X2280617Y5444545D02*
G01*
X2331526Y5444545D01*
X2386799Y5495455D02*
G01*
X2386799Y5342727D01*
X2386799Y5415455D02*
G01*
X2408618Y5437273D01*
X2423162Y5444545D01*
X2444981Y5444545D01*
X2459527Y5437273D01*
X2466799Y5415455D01*
X2466799Y5342727D01*
X2514800Y5444545D02*
G01*
X2514800Y5371818D01*
X2522072Y5349999D01*
X2536619Y5342727D01*
X2558435Y5342727D01*
X2572981Y5349999D01*
X2594800Y5371818D01*
X2594800Y5444545D02*
G01*
X2594800Y5342727D01*
X2642798Y5495455D02*
G01*
X2642798Y5342727D01*
X2642798Y5422727D02*
G01*
X2657345Y5437273D01*
X2671892Y5444545D01*
X2693708Y5444545D01*
X2708254Y5437273D01*
X2722801Y5422727D01*
X2730073Y5400908D01*
X2730073Y5386364D01*
X2722801Y5364546D01*
X2708254Y5349999D01*
X2693708Y5342727D01*
X2671892Y5342727D01*
X2657345Y5349999D01*
X2642798Y5364546D01*
X2785346Y5379090D02*
G01*
X2778071Y5371818D01*
X2785346Y5364546D01*
X2792618Y5371818D01*
X2785346Y5379090D01*
X2927891Y5422727D02*
G01*
X2913344Y5437273D01*
X2898800Y5444545D01*
X2876981Y5444545D01*
X2862435Y5437273D01*
X2847891Y5422727D01*
X2840619Y5400908D01*
X2840619Y5386364D01*
X2847891Y5364546D01*
X2862435Y5349999D01*
X2876981Y5342727D01*
X2898800Y5342727D01*
X2913344Y5349999D01*
X2927891Y5364546D01*
X3012254Y5444545D02*
G01*
X2997708Y5437273D01*
X2983163Y5422727D01*
X2975891Y5400908D01*
X2975891Y5386364D01*
X2983163Y5364546D01*
X2997708Y5349999D01*
X3012254Y5342727D01*
X3034073Y5342727D01*
X3048617Y5349999D01*
X3063163Y5364546D01*
X3070435Y5386364D01*
X3070435Y5400908D01*
X3063163Y5422727D01*
X3048617Y5437273D01*
X3034073Y5444545D01*
X3012254Y5444545D01*
X3118436Y5444545D02*
G01*
X3118436Y5342727D01*
X3118436Y5415455D02*
G01*
X3140255Y5437273D01*
X3154799Y5444545D01*
X3176617Y5444545D01*
X3191164Y5437273D01*
X3198436Y5415455D01*
X3198436Y5342727D01*
X3198436Y5415455D02*
G01*
X3220255Y5437273D01*
X3234799Y5444545D01*
X3256617Y5444545D01*
X3271164Y5437273D01*
X3278436Y5415455D01*
X3278436Y5342727D01*
X3457346Y5524545D02*
G01*
X3326437Y5291818D01*
X3527163Y5495455D02*
G01*
X3527163Y5371818D01*
X3534435Y5349999D01*
X3548981Y5342727D01*
X3563526Y5342727D01*
X3505344Y5444545D02*
G01*
X3556254Y5444545D01*
X3611526Y5400908D02*
G01*
X3698798Y5400908D01*
X3698798Y5415455D01*
X3691526Y5429999D01*
X3684254Y5437273D01*
X3669708Y5444545D01*
X3647892Y5444545D01*
X3633345Y5437273D01*
X3618798Y5422727D01*
X3611526Y5400908D01*
X3611526Y5386364D01*
X3618798Y5364546D01*
X3633345Y5349999D01*
X3647892Y5342727D01*
X3669708Y5342727D01*
X3684254Y5349999D01*
X3698798Y5364546D01*
X3834071Y5422727D02*
G01*
X3819527Y5437273D01*
X3804980Y5444545D01*
X3783164Y5444545D01*
X3768618Y5437273D01*
X3754071Y5422727D01*
X3746799Y5400908D01*
X3746799Y5386364D01*
X3754071Y5364546D01*
X3768618Y5349999D01*
X3783164Y5342727D01*
X3804980Y5342727D01*
X3819527Y5349999D01*
X3834071Y5364546D01*
X3882072Y5495455D02*
G01*
X3882072Y5342727D01*
X3882072Y5415455D02*
G01*
X3903891Y5437273D01*
X3918435Y5444545D01*
X3940253Y5444545D01*
X3954800Y5437273D01*
X3962072Y5415455D01*
X3962072Y5342727D01*
X4010073Y5444545D02*
G01*
X4010073Y5342727D01*
X4010073Y5415455D02*
G01*
X4031891Y5437273D01*
X4046435Y5444545D01*
X4068254Y5444545D01*
X4082801Y5437273D01*
X4090073Y5415455D01*
X4090073Y5342727D01*
X4181708Y5495455D02*
G01*
X4159890Y5488183D01*
X4145346Y5466364D01*
X4138071Y5429999D01*
X4138071Y5408180D01*
X4145346Y5371818D01*
X4159890Y5349999D01*
X4181708Y5342727D01*
X4196255Y5342727D01*
X4218073Y5349999D01*
X4232617Y5371818D01*
X4239889Y5408180D01*
X4239889Y5429999D01*
X4232617Y5466364D01*
X4218073Y5488183D01*
X4196255Y5495455D01*
X4181708Y5495455D01*
X4287890Y5444545D02*
G01*
X4287890Y5342727D01*
X4287890Y5415455D02*
G01*
X4309709Y5437273D01*
X4324253Y5444545D01*
X4346072Y5444545D01*
X4360618Y5437273D01*
X4367890Y5415455D01*
X4367890Y5342727D01*
X4367890Y5415455D02*
G01*
X4389709Y5437273D01*
X4404253Y5444545D01*
X4426071Y5444545D01*
X4440618Y5437273D01*
X4447890Y5415455D01*
X4447890Y5342727D01*
X4583163Y5444545D02*
G01*
X4583163Y5342727D01*
X4583163Y5422727D02*
G01*
X4568619Y5437273D01*
X4554072Y5444545D01*
X4532254Y5444545D01*
X4517710Y5437273D01*
X4503163Y5422727D01*
X4495891Y5400908D01*
X4495891Y5386364D01*
X4503163Y5364546D01*
X4517710Y5349999D01*
X4532254Y5342727D01*
X4554072Y5342727D01*
X4568619Y5349999D01*
X4583163Y5364546D01*
X4631164Y5444545D02*
G01*
X4631164Y5342727D01*
X4631164Y5415455D02*
G01*
X4652982Y5437273D01*
X4667526Y5444545D01*
X4689345Y5444545D01*
X4703892Y5437273D01*
X4711164Y5415455D01*
X4711164Y5342727D01*
X4759162Y5466364D02*
G01*
X4773709Y5473636D01*
X4795527Y5495455D01*
X4795527Y5342727D01*
X4930800Y5444545D02*
G01*
X4930800Y5342727D01*
X4930800Y5422727D02*
G01*
X4916253Y5437273D01*
X4901709Y5444545D01*
X4879891Y5444545D01*
X4865344Y5437273D01*
X4850800Y5422727D01*
X4843528Y5400908D01*
X4843528Y5386364D01*
X4850800Y5364546D01*
X4865344Y5349999D01*
X4879891Y5342727D01*
X4901709Y5342727D01*
X4916253Y5349999D01*
X4930800Y5364546D01*
X5066073Y5422727D02*
G01*
X5051526Y5437273D01*
X5036982Y5444545D01*
X5015163Y5444545D01*
X5000617Y5437273D01*
X4986073Y5422727D01*
X4978798Y5400908D01*
X4978798Y5386364D01*
X4986073Y5364546D01*
X5000617Y5349999D01*
X5015163Y5342727D01*
X5036982Y5342727D01*
X5051526Y5349999D01*
X5066073Y5364546D01*
X5244980Y5524545D02*
G01*
X5114071Y5291818D01*
X5292981Y5495455D02*
G01*
X5292981Y5342727D01*
X5292981Y5495455D02*
G01*
X5343890Y5495455D01*
X5365709Y5488183D01*
X5380253Y5473636D01*
X5387527Y5459089D01*
X5394799Y5437273D01*
X5394799Y5400908D01*
X5387527Y5379090D01*
X5380253Y5364546D01*
X5365709Y5349999D01*
X5343890Y5342727D01*
X5292981Y5342727D01*
X5551891Y5459089D02*
G01*
X5544619Y5473636D01*
X5530072Y5488183D01*
X5515526Y5495455D01*
X5486435Y5495455D01*
X5471891Y5488183D01*
X5457344Y5473636D01*
X5450072Y5459089D01*
X5442800Y5437273D01*
X5442800Y5400908D01*
X5450072Y5379090D01*
X5457344Y5364546D01*
X5471891Y5349999D01*
X5486435Y5342727D01*
X5515526Y5342727D01*
X5530072Y5349999D01*
X5544619Y5364546D01*
X5551891Y5379090D01*
X5599889Y5291818D02*
G01*
X5730798Y5291818D01*
X5778799Y5495455D02*
G01*
X5778799Y5342727D01*
X5778799Y5495455D02*
G01*
X5836980Y5342727D01*
X5895164Y5495455D02*
G01*
X5836980Y5342727D01*
X5895164Y5495455D02*
G01*
X5895164Y5342727D01*
X5979528Y5444545D02*
G01*
X5964981Y5437273D01*
X5950435Y5422727D01*
X5943163Y5400908D01*
X5943163Y5386364D01*
X5950435Y5364546D01*
X5964981Y5349999D01*
X5979528Y5342727D01*
X6001344Y5342727D01*
X6015890Y5349999D01*
X6030437Y5364546D01*
X6037709Y5386364D01*
X6037709Y5400908D01*
X6030437Y5422727D01*
X6015890Y5437273D01*
X6001344Y5444545D01*
X5979528Y5444545D01*
X6107526Y5495455D02*
G01*
X6107526Y5371818D01*
X6114801Y5349999D01*
X6129345Y5342727D01*
X6143891Y5342727D01*
X6085707Y5444545D02*
G01*
X6136617Y5444545D01*
X6228255Y5444545D02*
G01*
X6213708Y5437273D01*
X6199164Y5422727D01*
X6191890Y5400908D01*
X6191890Y5386364D01*
X6199164Y5364546D01*
X6213708Y5349999D01*
X6228255Y5342727D01*
X6250073Y5342727D01*
X6264617Y5349999D01*
X6279164Y5364546D01*
X6286436Y5386364D01*
X6286436Y5400908D01*
X6279164Y5422727D01*
X6264617Y5437273D01*
X6250073Y5444545D01*
X6228255Y5444545D01*
X6334437Y5444545D02*
G01*
X6334437Y5342727D01*
X6334437Y5400908D02*
G01*
X6341709Y5422727D01*
X6356253Y5437273D01*
X6370800Y5444545D01*
X6392618Y5444545D01*
X6440617Y5291818D02*
G01*
X6571526Y5291818D01*
X6619527Y5495455D02*
G01*
X6619527Y5342727D01*
X6619527Y5495455D02*
G01*
X6670436Y5495455D01*
X6692254Y5488183D01*
X6706798Y5473636D01*
X6714073Y5459089D01*
X6721345Y5437273D01*
X6721345Y5400908D01*
X6714073Y5379090D01*
X6706798Y5364546D01*
X6692254Y5349999D01*
X6670436Y5342727D01*
X6619527Y5342727D01*
X6769346Y5444545D02*
G01*
X6769346Y5342727D01*
X6769346Y5400908D02*
G01*
X6776618Y5422727D01*
X6791162Y5437273D01*
X6805709Y5444545D01*
X6827527Y5444545D01*
X6875528Y5495455D02*
G01*
X6882800Y5488183D01*
X6890072Y5495455D01*
X6882800Y5502727D01*
X6875528Y5495455D01*
X6882800Y5444545D02*
G01*
X6882800Y5342727D01*
X6938073Y5444545D02*
G01*
X6981708Y5342727D01*
X7025345Y5444545D02*
G01*
X6981708Y5342727D01*
X7073346Y5400908D02*
G01*
X7160618Y5400908D01*
X7160618Y5415455D01*
X7153346Y5429999D01*
X7146071Y5437273D01*
X7131527Y5444545D01*
X7109708Y5444545D01*
X7095164Y5437273D01*
X7080618Y5422727D01*
X7073346Y5400908D01*
X7073346Y5386364D01*
X7080618Y5364546D01*
X7095164Y5349999D01*
X7109708Y5342727D01*
X7131527Y5342727D01*
X7146071Y5349999D01*
X7160618Y5364546D01*
X7208619Y5444545D02*
G01*
X7208619Y5342727D01*
X7208619Y5400908D02*
G01*
X7215891Y5422727D01*
X7230435Y5437273D01*
X7244981Y5444545D01*
X7266800Y5444545D01*
D30*
X8155177Y4585207D02*
G01*
X8149843Y4595621D01*
X8139429Y4606036D01*
X8129270Y4611115D01*
X8108441Y4611115D01*
X8098027Y4606036D01*
X8087613Y4595621D01*
X8082279Y4585207D01*
X8077200Y4569460D01*
X8077200Y4543552D01*
X8082279Y4528057D01*
X8087613Y4517644D01*
X8098027Y4507229D01*
X8108441Y4502150D01*
X8129270Y4502150D01*
X8139429Y4507229D01*
X8149843Y4517644D01*
X8155177Y4528057D01*
X8194547Y4585207D02*
G01*
X8194547Y4590287D01*
X8199881Y4600702D01*
X8204961Y4606036D01*
X8215375Y4611115D01*
X8236204Y4611115D01*
X8246618Y4606036D01*
X8251697Y4600702D01*
X8257031Y4590287D01*
X8257031Y4579873D01*
X8251697Y4569460D01*
X8241284Y4553965D01*
X8189468Y4502150D01*
X8262111Y4502150D01*
X6793484Y4152900D02*
G01*
X6902450Y4152900D01*
X6793484Y4152900D02*
G01*
X6793484Y4189221D01*
X6798563Y4204970D01*
X6808977Y4215129D01*
X6819391Y4220463D01*
X6835140Y4225544D01*
X6861047Y4225544D01*
X6876541Y4220463D01*
X6886956Y4215129D01*
X6897370Y4204970D01*
X6902450Y4189221D01*
X6902450Y4152900D01*
X6814311Y4259834D02*
G01*
X6808977Y4270247D01*
X6793484Y4285995D01*
X6902450Y4285995D01*
X3796284Y4089400D02*
G01*
X3905250Y4089400D01*
X3796284Y4089400D02*
G01*
X3796284Y4125721D01*
X3801363Y4141470D01*
X3811777Y4151629D01*
X3822191Y4156963D01*
X3837940Y4162044D01*
X3863847Y4162044D01*
X3879341Y4156963D01*
X3889756Y4151629D01*
X3900170Y4141470D01*
X3905250Y4125721D01*
X3905250Y4089400D01*
X3822191Y4201668D02*
G01*
X3817111Y4201668D01*
X3806697Y4206747D01*
X3801363Y4212081D01*
X3796284Y4222495D01*
X3796284Y4243070D01*
X3801363Y4253484D01*
X3806697Y4258818D01*
X3817111Y4263897D01*
X3827525Y4263897D01*
X3837940Y4258818D01*
X3853434Y4248404D01*
X3905250Y4196334D01*
X3905250Y4269231D01*
X5320284Y4114800D02*
G01*
X5429250Y4114800D01*
X5320284Y4114800D02*
G01*
X5320284Y4151121D01*
X5325363Y4166870D01*
X5335777Y4177029D01*
X5346191Y4182363D01*
X5361940Y4187444D01*
X5387847Y4187444D01*
X5403341Y4182363D01*
X5413756Y4177029D01*
X5424170Y4166870D01*
X5429250Y4151121D01*
X5429250Y4114800D01*
X5320284Y4232147D02*
G01*
X5320284Y4289297D01*
X5361940Y4258310D01*
X5361940Y4273804D01*
X5367020Y4284218D01*
X5372100Y4289297D01*
X5387847Y4294631D01*
X5398261Y4294631D01*
X5413756Y4289297D01*
X5424170Y4278884D01*
X5429250Y4263389D01*
X5429250Y4247895D01*
X5424170Y4232147D01*
X5419090Y4227068D01*
X5408675Y4221734D01*
X2208784Y4102100D02*
G01*
X2317750Y4102100D01*
X2208784Y4102100D02*
G01*
X2208784Y4138421D01*
X2213863Y4154170D01*
X2224277Y4164329D01*
X2234691Y4169663D01*
X2250440Y4174744D01*
X2276347Y4174744D01*
X2291841Y4169663D01*
X2302256Y4164329D01*
X2312670Y4154170D01*
X2317750Y4138421D01*
X2317750Y4102100D01*
X2208784Y4261104D02*
G01*
X2281427Y4209034D01*
X2281427Y4287012D01*
X2208784Y4261104D02*
G01*
X2317750Y4261104D01*
X9015984Y3695700D02*
G01*
X9124950Y3695700D01*
X9015984Y3695700D02*
G01*
X9015984Y3732021D01*
X9021063Y3747770D01*
X9031477Y3757929D01*
X9041891Y3763263D01*
X9057640Y3768344D01*
X9083547Y3768344D01*
X9099041Y3763263D01*
X9109456Y3757929D01*
X9119870Y3747770D01*
X9124950Y3732021D01*
X9124950Y3695700D01*
X9015984Y3865118D02*
G01*
X9015984Y3813047D01*
X9062720Y3807968D01*
X9057640Y3813047D01*
X9052306Y3828795D01*
X9052306Y3844289D01*
X9057640Y3859784D01*
X9067800Y3870197D01*
X9083547Y3875531D01*
X9093961Y3875531D01*
X9109456Y3870197D01*
X9119870Y3859784D01*
X9124950Y3844289D01*
X9124950Y3828795D01*
X9119870Y3813047D01*
X9114790Y3807968D01*
X9104375Y3802634D01*
X8228584Y3111500D02*
G01*
X8337550Y3111500D01*
X8228584Y3111500D02*
G01*
X8228584Y3179063D01*
X8280400Y3111500D02*
G01*
X8280400Y3153155D01*
X8228584Y3213354D02*
G01*
X8306561Y3213354D01*
X8322056Y3218434D01*
X8332470Y3228847D01*
X8337550Y3244595D01*
X8337550Y3255010D01*
X8332470Y3270504D01*
X8322056Y3280918D01*
X8306561Y3285997D01*
X8228584Y3285997D01*
X8249411Y3320287D02*
G01*
X8244077Y3330702D01*
X8228584Y3346450D01*
X8337550Y3346450D01*
X5451602Y1695450D02*
G01*
X5451602Y1612392D01*
X5446268Y1596644D01*
X5441188Y1591563D01*
X5430774Y1586484D01*
X5420359Y1586484D01*
X5409945Y1591563D01*
X5404611Y1596644D01*
X5399531Y1612392D01*
X5399531Y1622805D01*
X5485891Y1674621D02*
G01*
X5496052Y1679955D01*
X5511800Y1695450D01*
X5511800Y1586484D01*
X3416300Y1702815D02*
G01*
X3416300Y1593850D01*
X3416300Y1702815D02*
G01*
X3463036Y1702815D01*
X3478529Y1697736D01*
X3483863Y1692402D01*
X3488943Y1681987D01*
X3488943Y1666494D01*
X3483863Y1656079D01*
X3478529Y1651000D01*
X3463036Y1645665D01*
X3416300Y1645665D01*
X3523234Y1681987D02*
G01*
X3533647Y1687321D01*
X3549395Y1702815D01*
X3549395Y1593850D01*
X7353300Y1715515D02*
G01*
X7353300Y1606550D01*
X7353300Y1715515D02*
G01*
X7400036Y1715515D01*
X7415529Y1710436D01*
X7420863Y1705102D01*
X7425943Y1694687D01*
X7425943Y1679194D01*
X7420863Y1668779D01*
X7415529Y1663700D01*
X7400036Y1658365D01*
X7353300Y1658365D01*
X7465568Y1689607D02*
G01*
X7465568Y1694687D01*
X7470647Y1705102D01*
X7475981Y1710436D01*
X7486395Y1715515D01*
X7506970Y1715515D01*
X7517384Y1710436D01*
X7522718Y1705102D01*
X7527797Y1694687D01*
X7527797Y1684273D01*
X7522718Y1673860D01*
X7512304Y1658365D01*
X7460234Y1606550D01*
X7533131Y1606550D01*
X6317741Y4941328D02*
G01*
X6307327Y4936248D01*
X6296913Y4925834D01*
X6291579Y4915420D01*
X6286500Y4899672D01*
X6286500Y4873764D01*
X6291579Y4858270D01*
X6296913Y4847856D01*
X6307327Y4837442D01*
X6317741Y4832362D01*
X6338570Y4832362D01*
X6348729Y4837442D01*
X6359143Y4847856D01*
X6364477Y4858270D01*
X6369558Y4873764D01*
X6369558Y4899672D01*
X6364477Y4915420D01*
X6359143Y4925834D01*
X6348729Y4936248D01*
X6338570Y4941328D01*
X6317741Y4941328D01*
X6333236Y4852936D02*
G01*
X6364477Y4821948D01*
X6403847Y4920500D02*
G01*
X6414261Y4925834D01*
X6430009Y4941328D01*
X6430009Y4832362D01*
X3269741Y4941328D02*
G01*
X3259327Y4936248D01*
X3248913Y4925834D01*
X3243579Y4915420D01*
X3238500Y4899672D01*
X3238500Y4873764D01*
X3243579Y4858270D01*
X3248913Y4847856D01*
X3259327Y4837442D01*
X3269741Y4832362D01*
X3290570Y4832362D01*
X3300729Y4837442D01*
X3311143Y4847856D01*
X3316477Y4858270D01*
X3321558Y4873764D01*
X3321558Y4899672D01*
X3316477Y4915420D01*
X3311143Y4925834D01*
X3300729Y4936248D01*
X3290570Y4941328D01*
X3269741Y4941328D01*
X3285236Y4852936D02*
G01*
X3316477Y4821948D01*
X3361181Y4915420D02*
G01*
X3361181Y4920500D01*
X3366261Y4930914D01*
X3371595Y4936248D01*
X3382009Y4941328D01*
X3402584Y4941328D01*
X3412997Y4936248D01*
X3418331Y4930914D01*
X3423411Y4920500D01*
X3423411Y4910086D01*
X3418331Y4899672D01*
X3407918Y4884178D01*
X3355847Y4832362D01*
X3428745Y4832362D01*
X4768341Y4941328D02*
G01*
X4757927Y4936248D01*
X4747513Y4925834D01*
X4742179Y4915420D01*
X4737100Y4899672D01*
X4737100Y4873764D01*
X4742179Y4858270D01*
X4747513Y4847856D01*
X4757927Y4837442D01*
X4768341Y4832362D01*
X4789170Y4832362D01*
X4799329Y4837442D01*
X4809743Y4847856D01*
X4815077Y4858270D01*
X4820158Y4873764D01*
X4820158Y4899672D01*
X4815077Y4915420D01*
X4809743Y4925834D01*
X4799329Y4936248D01*
X4789170Y4941328D01*
X4768341Y4941328D01*
X4783836Y4852936D02*
G01*
X4815077Y4821948D01*
X4864861Y4941328D02*
G01*
X4922011Y4941328D01*
X4890770Y4899672D01*
X4906518Y4899672D01*
X4916931Y4894592D01*
X4922011Y4889512D01*
X4927345Y4873764D01*
X4927345Y4863350D01*
X4922011Y4847856D01*
X4911597Y4837442D01*
X4896104Y4832362D01*
X4880609Y4832362D01*
X4864861Y4837442D01*
X4859781Y4842522D01*
X4854447Y4852936D01*
X1733042Y4941328D02*
G01*
X1722628Y4936248D01*
X1712213Y4925834D01*
X1706879Y4915420D01*
X1701800Y4899672D01*
X1701800Y4873764D01*
X1706879Y4858270D01*
X1712213Y4847856D01*
X1722628Y4837442D01*
X1733042Y4832362D01*
X1753870Y4832362D01*
X1764029Y4837442D01*
X1774444Y4847856D01*
X1779778Y4858270D01*
X1784857Y4873764D01*
X1784857Y4899672D01*
X1779778Y4915420D01*
X1774444Y4925834D01*
X1764029Y4936248D01*
X1753870Y4941328D01*
X1733042Y4941328D01*
X1748536Y4852936D02*
G01*
X1779778Y4821948D01*
X1871218Y4941328D02*
G01*
X1819147Y4868684D01*
X1897126Y4868684D01*
X1871218Y4941328D02*
G01*
X1871218Y4832362D01*
X6920484Y2870200D02*
G01*
X6998461Y2870200D01*
X7013956Y2875279D01*
X7024370Y2885694D01*
X7029450Y2901442D01*
X7029450Y2911855D01*
X7024370Y2927350D01*
X7013956Y2937763D01*
X6998461Y2942844D01*
X6920484Y2942844D01*
X6941311Y2977134D02*
G01*
X6935977Y2987547D01*
X6920484Y3003295D01*
X7029450Y3003295D01*
X4126484Y2844800D02*
G01*
X4204461Y2844800D01*
X4219956Y2849879D01*
X4230370Y2860294D01*
X4235450Y2876042D01*
X4235450Y2886455D01*
X4230370Y2901950D01*
X4219956Y2912363D01*
X4204461Y2917444D01*
X4126484Y2917444D01*
X4152391Y2957068D02*
G01*
X4147311Y2957068D01*
X4136897Y2962147D01*
X4131563Y2967481D01*
X4126484Y2977895D01*
X4126484Y2998470D01*
X4131563Y3008884D01*
X4136897Y3014218D01*
X4147311Y3019297D01*
X4157725Y3019297D01*
X4168140Y3014218D01*
X4183634Y3003804D01*
X4235450Y2951734D01*
X4235450Y3024631D01*
X5650484Y2844800D02*
G01*
X5728461Y2844800D01*
X5743956Y2849879D01*
X5754370Y2860294D01*
X5759450Y2876042D01*
X5759450Y2886455D01*
X5754370Y2901950D01*
X5743956Y2912363D01*
X5728461Y2917444D01*
X5650484Y2917444D01*
X5650484Y2962147D02*
G01*
X5650484Y3019297D01*
X5692140Y2988310D01*
X5692140Y3003804D01*
X5697220Y3014218D01*
X5702300Y3019297D01*
X5718047Y3024631D01*
X5728461Y3024631D01*
X5743956Y3019297D01*
X5754370Y3008884D01*
X5759450Y2993389D01*
X5759450Y2977895D01*
X5754370Y2962147D01*
X5749290Y2957068D01*
X5738875Y2951734D01*
X2361184Y2832100D02*
G01*
X2439161Y2832100D01*
X2454656Y2837179D01*
X2465070Y2847594D01*
X2470150Y2863342D01*
X2470150Y2873755D01*
X2465070Y2889250D01*
X2454656Y2899663D01*
X2439161Y2904744D01*
X2361184Y2904744D01*
X2361184Y2991104D02*
G01*
X2433827Y2939034D01*
X2433827Y3017012D01*
X2361184Y2991104D02*
G01*
X2470150Y2991104D01*
G36*
X8428380Y5341924D02*
G01*
X8428380Y4741875D01*
X8441131Y4755896D01*
X8453272Y4770374D01*
X8464753Y4785410D01*
X8475573Y4800955D01*
X8485682Y4816906D01*
X8495131Y4833315D01*
X8503818Y4850130D01*
X8511794Y4867249D01*
X8519007Y4884724D01*
X8525459Y4902504D01*
X8531148Y4920589D01*
X8536025Y4938826D01*
X8540089Y4957318D01*
X8543391Y4975961D01*
X8545830Y4994706D01*
X8547455Y5013553D01*
X8548319Y5032451D01*
X8548319Y5051348D01*
X8547455Y5070246D01*
X8545830Y5089093D01*
X8543391Y5107838D01*
X8540089Y5126482D01*
X8536025Y5144973D01*
X8531148Y5163210D01*
X8525459Y5181295D01*
X8519007Y5199075D01*
X8511794Y5216550D01*
X8503818Y5233670D01*
X8495131Y5250484D01*
X8485682Y5266893D01*
X8475573Y5282844D01*
X8464753Y5298389D01*
X8453272Y5313426D01*
X8441131Y5327904D01*
G37*
D23*
X2908300Y3175000D02*
G01*
X2908300Y2102185D01*
X5930900Y3187700D02*
G01*
X5930900Y2108200D01*
D10*
X5626100Y1225550D02*
G01*
X5626100Y908050D01*
D23*
X7315200Y2260600D02*
G01*
X7315200Y3187700D01*
X3352800Y3200400D02*
G01*
X3352800Y2171700D01*
X4381500Y2438400D02*
G01*
X4381500Y3187700D01*
X4991100Y2159000D02*
G01*
X4991100Y3187700D01*
D10*
X7933400Y5161899D02*
G01*
X7808940Y5161899D01*
X7871170Y5094589D02*
G01*
X7871170Y5229209D01*
X6946600Y3943700D02*
G01*
X6946600Y4463699D01*
X6946600Y4463699D02*
G01*
X7226599Y4463699D01*
X7226599Y3943700D02*
G01*
X7226599Y4463699D01*
X6946600Y3943700D02*
G01*
X7226599Y3943700D01*
X6946600Y4039626D02*
G01*
X7226599Y4039626D01*
X4216699Y4463699D02*
G01*
X4216699Y3943700D01*
X4216699Y3943700D02*
G01*
X3936700Y3943700D01*
X3936700Y4463699D02*
G01*
X3936700Y3943700D01*
X4216699Y4463699D02*
G01*
X3936700Y4463699D01*
X4216699Y4367773D02*
G01*
X3936700Y4367773D01*
X5740699Y4463699D02*
G01*
X5740699Y3943700D01*
X5740699Y3943700D02*
G01*
X5460700Y3943700D01*
X5460700Y4463699D02*
G01*
X5460700Y3943700D01*
X5740699Y4463699D02*
G01*
X5460700Y4463699D01*
X5740699Y4367773D02*
G01*
X5460700Y4367773D01*
X2349200Y3943700D02*
G01*
X2349200Y4463699D01*
X2349200Y4463699D02*
G01*
X2629199Y4463699D01*
X2629199Y3943700D02*
G01*
X2629199Y4463699D01*
X2349200Y3943700D02*
G01*
X2629199Y3943700D01*
X2349200Y4039626D02*
G01*
X2629199Y4039626D01*
X8674100Y3268700D02*
G01*
X8674100Y3378700D01*
X8394100Y4104698D02*
G01*
X8954099Y4104698D01*
X8674100Y4234698D02*
G01*
X8674100Y4394697D01*
X8394100Y4124698D02*
G01*
X8954099Y4124698D01*
X8394100Y3384699D02*
G01*
X8394100Y4234698D01*
X8954099Y4234698D01*
X8954099Y4234698D02*
G01*
X8954099Y3384699D01*
X8394100Y4084698D02*
G01*
X8954099Y4084698D01*
X8954099Y3380699D02*
G01*
X8394100Y3380699D01*
X7772400Y2540000D02*
G01*
X7772400Y3860800D01*
X8191500Y2540000D02*
G01*
X8191500Y3860800D01*
X7727950Y3867150D02*
G01*
X7727950Y4210050D01*
X8248650Y4210050D01*
X8248650Y3867150D01*
X7727950Y3867150D01*
X7721600Y2197100D02*
G01*
X7721600Y2540000D01*
X8242300Y2540000D01*
X8242300Y2197100D01*
X7721600Y2197100D01*
D28*
X5676900Y1295400D02*
G01*
X5867400Y1295400D01*
X5867400Y1549400D01*
X5105400Y1549400D01*
X5105400Y1295400D01*
D29*
X5105400Y1295400D02*
G01*
X5676900Y1295400D01*
D10*
X3657777Y834237D02*
G01*
X3657777Y1734235D01*
X4707763Y837234D02*
G01*
X4707763Y1737232D01*
X4707763Y834237D02*
G01*
X3657777Y834237D01*
X4710760Y1017219D02*
G01*
X3660775Y1017219D01*
X4707763Y894232D02*
G01*
X3657777Y894232D01*
X4707763Y1737232D02*
G01*
X3657777Y1737232D01*
X6248577Y834237D02*
G01*
X6248577Y1734235D01*
X7298563Y837234D02*
G01*
X7298563Y1737232D01*
X7298563Y834237D02*
G01*
X6248577Y834237D01*
X7301560Y1017219D02*
G01*
X6251575Y1017219D01*
X7298563Y894232D02*
G01*
X6248577Y894232D01*
X7298563Y1737232D02*
G01*
X6248577Y1737232D01*
X6532509Y5217825D02*
G01*
X6534795Y4772398D01*
X7526794Y4772398D01*
X7526794Y5218396D01*
X6532318Y5218142D01*
X3471809Y5217825D02*
G01*
X3474095Y4772398D01*
X4466094Y4772398D01*
X4466094Y5218396D01*
X3471618Y5218142D01*
X4995809Y5217825D02*
G01*
X4998095Y4772398D01*
X5990094Y4772398D01*
X5990094Y5218396D01*
X4995618Y5218142D01*
X1947809Y5217825D02*
G01*
X1950095Y4772398D01*
X2942094Y4772398D01*
X2942094Y5218396D01*
X1947618Y5218142D01*
X6412991Y2692204D02*
G01*
X6870191Y2692204D01*
X6870191Y3199604D02*
G01*
X6870191Y2692204D01*
X6412991Y2869404D02*
G01*
X6412991Y2692204D01*
X6412991Y3199604D02*
G01*
X6412991Y3021804D01*
X6412991Y3199604D02*
G01*
X6870191Y3199604D01*
X3618991Y2692204D02*
G01*
X4076191Y2692204D01*
X4076191Y3199604D02*
G01*
X4076191Y2692204D01*
X3618991Y2869404D02*
G01*
X3618991Y2692204D01*
X3618991Y3199604D02*
G01*
X3618991Y3021804D01*
X3618991Y3199604D02*
G01*
X4076191Y3199604D01*
X5130291Y2692204D02*
G01*
X5587491Y2692204D01*
X5587491Y3199604D02*
G01*
X5587491Y2692204D01*
X5130291Y2869404D02*
G01*
X5130291Y2692204D01*
X5130291Y3199604D02*
G01*
X5130291Y3021804D01*
X5130291Y3199604D02*
G01*
X5587491Y3199604D01*
X1840992Y2679504D02*
G01*
X2298191Y2679504D01*
X2298191Y3186904D02*
G01*
X2298191Y2679504D01*
X1840992Y2856704D02*
G01*
X1840992Y2679504D01*
X1840992Y3186904D02*
G01*
X1840992Y3009104D01*
X1840992Y3186904D02*
G01*
X2298191Y3186904D01*
G75*
G01*
X8153654Y5441950D02*
G03*
X8160766Y5441950I3556J-399984D01*
G75*
G01*
X6412992Y3021805D02*
G02*
X6412992Y2869405I0J-76200D01*
G75*
G01*
X3618992Y3021805D02*
G02*
X3618992Y2869405I0J-76200D01*
G75*
G01*
X5130292Y3021805D02*
G02*
X5130292Y2869405I0J-76200D01*
G75*
G01*
X1840992Y3009105D02*
G02*
X1840992Y2856705I0J-76200D01*
G75*
G01
X6366561Y2685136D02*
G03X6366561Y2685136I-12700J0D01*
G75*
G01
X3572561Y2685136D02*
G03X3572561Y2685136I-12700J0D01*
G75*
G01
X5083861Y2685136D02*
G03X5083861Y2685136I-12700J0D01*
G75*
G01
X1794561Y2672436D02*
G03X1794561Y2672436I-12700J0D01*
M02*
