G04 Layer: TopSolderMaskLayer*
G04 EasyEDA v6.4.32, 2022-03-02 21:26:25*
G04 a14d7df274ef46f18a143bcdf5e9aa52,ed70181f279245e6aff80281ee7dc86a,10*
G04 Gerber Generator version 0.2*
G04 Scale: 100 percent, Rotated: No, Reflected: No *
G04 Dimensions in millimeters *
G04 leading zeros omitted , absolute positions ,4 integer and 5 decimal *
%FSLAX45Y45*%
%MOMM*%

%ADD31C,1.9016*%
%ADD32C,2.0828*%
%ADD33C,1.7016*%
%ADD35C,3.1016*%
%ADD36C,2.3016*%
%ADD37C,1.6764*%
%ADD39C,2.1016*%

%LPD*%
G36*
X3326231Y1099210D02*
G01*
X3025800Y925576D01*
X3025800Y806145D01*
X3034944Y801522D01*
X3054146Y790956D01*
X3069742Y781964D01*
X3119170Y754380D01*
X3125825Y750265D01*
X3126384Y749096D01*
X3126892Y746506D01*
X3127603Y736244D01*
X3127959Y717854D01*
X3128060Y630986D01*
X3200501Y589076D01*
X3221939Y577189D01*
X3222294Y583031D01*
X3222853Y624027D01*
X3223006Y721715D01*
X3222853Y755497D01*
X3222498Y781050D01*
X3222040Y797763D01*
X3221482Y805180D01*
X3221278Y805484D01*
X3217113Y803402D01*
X3192678Y789279D01*
X3130550Y752500D01*
X3130296Y756920D01*
X3129940Y786638D01*
X3129889Y864006D01*
X3152190Y877773D01*
X3378200Y1013764D01*
X3418027Y1038199D01*
X3425799Y1043279D01*
X3422599Y1045514D01*
X3400958Y1058062D01*
G37*
D31*
X7035800Y5018882D02*
G01*
X7035800Y4938882D01*
X7289800Y5017891D02*
G01*
X7289800Y4937892D01*
X3975100Y5018882D02*
G01*
X3975100Y4938882D01*
X4229100Y5017891D02*
G01*
X4229100Y4937892D01*
X5499100Y5018882D02*
G01*
X5499100Y4938882D01*
X5753100Y5017891D02*
G01*
X5753100Y4937892D01*
X2451100Y5018882D02*
G01*
X2451100Y4938882D01*
X2705100Y5017891D02*
G01*
X2705100Y4937892D01*
D32*
G01*
X1574800Y1206500D03*
G01*
X1574800Y2222500D03*
G01*
X1803400Y1206500D03*
G01*
X1803400Y2222500D03*
G01*
X3721100Y3619500D03*
G01*
X3721100Y4635500D03*
G01*
X2095500Y4635500D03*
G01*
X2095500Y3619500D03*
G01*
X2844800Y4635500D03*
G01*
X2844800Y3619500D03*
G01*
X4470400Y4635500D03*
G01*
X4470400Y3619500D03*
G01*
X2032000Y1206500D03*
G01*
X2032000Y2222500D03*
G01*
X5994400Y3619500D03*
G01*
X5994400Y4635500D03*
G01*
X5245100Y3619500D03*
G01*
X5245100Y4635500D03*
G01*
X2260600Y2222500D03*
G01*
X2260600Y1206500D03*
G01*
X7429500Y4635500D03*
G01*
X7429500Y3619500D03*
G01*
X6680200Y3619500D03*
G01*
X6680200Y4635500D03*
G01*
X3670300Y2019300D03*
G01*
X4686300Y2019300D03*
D33*
G01*
X8328406Y5041900D03*
G01*
X7978393Y5041900D03*
D31*
G01*
X7086600Y3768699D03*
G01*
X7086600Y4638700D03*
G01*
X4076700Y4638700D03*
G01*
X4076700Y3768699D03*
G01*
X5600700Y4638700D03*
G01*
X5600700Y3768699D03*
G01*
X2489200Y3768699D03*
G01*
X2489200Y4638700D03*
G36*
X8518906Y2905505D02*
G01*
X8518906Y3215894D01*
X8829293Y3215894D01*
X8829293Y2905505D01*
G37*
D35*
G01*
X8674100Y4584700D03*
D36*
G01*
X7988300Y2000402D03*
G01*
X7988300Y4400397D03*
D37*
G01*
X5232400Y1422400D03*
G01*
X5486400Y1422400D03*
G36*
X5656579Y1338579D02*
G01*
X5656579Y1506220D01*
X5824220Y1506220D01*
X5824220Y1338579D01*
G37*
D39*
G01*
X4428743Y1257300D03*
G01*
X3927856Y1257300D03*
G01*
X7019543Y1257300D03*
G01*
X6518656Y1257300D03*
G36*
X6686804Y4843779D02*
G01*
X6686804Y5114036D01*
X6876795Y5114036D01*
X6876795Y4843779D01*
G37*
G36*
X3626104Y4843779D02*
G01*
X3626104Y5114036D01*
X3816095Y5114036D01*
X3816095Y4843779D01*
G37*
G36*
X5150104Y4843779D02*
G01*
X5150104Y5114036D01*
X5340095Y5114036D01*
X5340095Y4843779D01*
G37*
G36*
X2102104Y4843779D02*
G01*
X2102104Y5114036D01*
X2292095Y5114036D01*
X2292095Y4843779D01*
G37*
D31*
G01*
X6769608Y2565400D03*
G01*
X6768591Y3327400D03*
G01*
X6514591Y3327400D03*
G36*
X6420611Y2470404D02*
G01*
X6420611Y2660395D01*
X6610604Y2660395D01*
X6610604Y2470404D01*
G37*
G01*
X3975608Y2565400D03*
G01*
X3974591Y3327400D03*
G01*
X3720591Y3327400D03*
G36*
X3626611Y2470404D02*
G01*
X3626611Y2660395D01*
X3816604Y2660395D01*
X3816604Y2470404D01*
G37*
G01*
X5486908Y2565400D03*
G01*
X5485891Y3327400D03*
G01*
X5231891Y3327400D03*
G36*
X5137911Y2470404D02*
G01*
X5137911Y2660395D01*
X5327904Y2660395D01*
X5327904Y2470404D01*
G37*
G01*
X2197608Y2552700D03*
G01*
X2196591Y3314700D03*
G01*
X1942591Y3314700D03*
G36*
X1848612Y2457704D02*
G01*
X1848612Y2647695D01*
X2038604Y2647695D01*
X2038604Y2457704D01*
G37*
D37*
G01*
X3352800Y3340100D03*
G01*
X4991100Y3327400D03*
G01*
X4991100Y2019300D03*
G01*
X3352800Y2032000D03*
G01*
X2908300Y3314700D03*
G01*
X2908300Y1968500D03*
G01*
X4381500Y3327400D03*
G01*
X5930900Y3327400D03*
G01*
X5930900Y1968500D03*
G01*
X7315200Y3327400D03*
G01*
X7315200Y2120900D03*
G01*
X4381500Y2298700D03*
M02*
