G04 Layer: TopLayer*
G04 EasyEDA v6.5.5, 2022-05-30 02:48:00*
G04 73416119e20b4d31bc0fda0cb7b7bab3,ed70181f279245e6aff80281ee7dc86a,10*
G04 Gerber Generator version 0.2*
G04 Scale: 100 percent, Rotated: No, Reflected: No *
G04 Dimensions in millimeters *
G04 leading zeros omitted , absolute positions ,4 integer and 5 decimal *
%FSLAX45Y45*%
%MOMM*%

%ADD11C,2.0000*%
%ADD12C,0.5080*%
%ADD13C,1.8796*%
%ADD14C,1.6000*%
%ADD15C,1.8000*%
%ADD16R,3.0000X3.0000*%
%ADD17C,3.0000*%
%ADD18C,2.2000*%
%ADD19C,1.5748*%
%ADD20R,1.5748X1.5748*%
%ADD22R,1.8000X1.8000*%

%LPD*%
G36*
X1889760Y406908D02*
G01*
X1885848Y407670D01*
X1882597Y409905D01*
X1880362Y413156D01*
X1879600Y417068D01*
X1879600Y900684D01*
X1878584Y901700D01*
X1394968Y901700D01*
X1391056Y902462D01*
X1387805Y904697D01*
X1385570Y907948D01*
X1384808Y911860D01*
X1384808Y5057140D01*
X1385570Y5061051D01*
X1387805Y5064302D01*
X1391056Y5066538D01*
X1394968Y5067300D01*
X1878584Y5067300D01*
X1879600Y5068316D01*
X1879600Y5551932D01*
X1880362Y5555843D01*
X1882597Y5559094D01*
X1885848Y5561330D01*
X1889760Y5562092D01*
X8829040Y5562092D01*
X8832951Y5561330D01*
X8836202Y5559094D01*
X8838438Y5555843D01*
X8839200Y5551932D01*
X8839200Y5068316D01*
X8840216Y5067300D01*
X9322917Y5067300D01*
X9326829Y5066538D01*
X9330131Y5064302D01*
X9332315Y5061051D01*
X9333077Y5057140D01*
X9333585Y2456129D01*
X9332823Y2452268D01*
X9330639Y2448966D01*
X9327337Y2446782D01*
X9323425Y2445969D01*
X8844940Y2445969D01*
X8838590Y2445258D01*
X8833154Y2443378D01*
X8828227Y2440279D01*
X8824163Y2436164D01*
X8821064Y2431288D01*
X8819184Y2425852D01*
X8818473Y2419502D01*
X8818473Y920750D01*
X8819184Y914450D01*
X8821064Y908964D01*
X8824163Y904087D01*
X8825839Y902411D01*
X8827820Y899617D01*
X8828735Y896315D01*
X8828532Y892860D01*
X8826500Y887984D01*
X8834221Y417220D01*
X8833510Y413308D01*
X8831326Y409956D01*
X8828024Y407720D01*
X8824061Y406908D01*
G37*

%LPC*%
G36*
X2260600Y1086612D02*
G01*
X2275332Y1087526D01*
X2289860Y1090269D01*
X2303881Y1094740D01*
X2317292Y1100886D01*
X2329840Y1108659D01*
X2341372Y1117904D01*
X2351633Y1128522D01*
X2360523Y1140307D01*
X2367889Y1153058D01*
X2373630Y1166672D01*
X2377694Y1180846D01*
X2379980Y1195425D01*
X2380386Y1210208D01*
X2379065Y1224889D01*
X2375916Y1239316D01*
X2370988Y1253236D01*
X2364384Y1266444D01*
X2356256Y1278737D01*
X2346655Y1289964D01*
X2335733Y1299870D01*
X2323693Y1308404D01*
X2310688Y1315415D01*
X2296922Y1320749D01*
X2282647Y1324305D01*
X2267966Y1326134D01*
X2253234Y1326134D01*
X2238552Y1324305D01*
X2224278Y1320749D01*
X2210511Y1315415D01*
X2197506Y1308404D01*
X2185466Y1299870D01*
X2174544Y1289964D01*
X2164943Y1278737D01*
X2156815Y1266444D01*
X2155393Y1263599D01*
X2152650Y1260246D01*
X2148789Y1258265D01*
X2144420Y1258163D01*
X2140407Y1259840D01*
X2137511Y1263040D01*
X2131923Y1272692D01*
X2123033Y1284478D01*
X2112772Y1295095D01*
X2101240Y1304340D01*
X2088692Y1312113D01*
X2075281Y1318260D01*
X2061260Y1322730D01*
X2046732Y1325473D01*
X2032000Y1326388D01*
X2017268Y1325473D01*
X2002739Y1322730D01*
X1988718Y1318260D01*
X1975307Y1312113D01*
X1962759Y1304340D01*
X1951228Y1295095D01*
X1940966Y1284478D01*
X1932076Y1272692D01*
X1926488Y1263040D01*
X1923694Y1259890D01*
X1919833Y1258214D01*
X1915566Y1258214D01*
X1911705Y1259890D01*
X1908911Y1263040D01*
X1903323Y1272692D01*
X1894433Y1284478D01*
X1884172Y1295095D01*
X1872640Y1304340D01*
X1860092Y1312113D01*
X1846681Y1318260D01*
X1832660Y1322730D01*
X1818132Y1325473D01*
X1803400Y1326388D01*
X1788668Y1325473D01*
X1774139Y1322730D01*
X1760118Y1318260D01*
X1746707Y1312113D01*
X1734159Y1304340D01*
X1722628Y1295095D01*
X1712366Y1284478D01*
X1703476Y1272692D01*
X1697888Y1263040D01*
X1695094Y1259890D01*
X1691233Y1258214D01*
X1686966Y1258214D01*
X1683105Y1259890D01*
X1680311Y1263040D01*
X1674723Y1272692D01*
X1665833Y1284478D01*
X1655572Y1295095D01*
X1644040Y1304340D01*
X1631492Y1312113D01*
X1618081Y1318260D01*
X1604060Y1322730D01*
X1589532Y1325473D01*
X1574800Y1326388D01*
X1560068Y1325473D01*
X1545539Y1322730D01*
X1531518Y1318260D01*
X1518107Y1312113D01*
X1505559Y1304340D01*
X1494028Y1295095D01*
X1483766Y1284478D01*
X1474876Y1272692D01*
X1467510Y1259941D01*
X1461770Y1246327D01*
X1457706Y1232154D01*
X1455420Y1217574D01*
X1455013Y1202791D01*
X1456334Y1188110D01*
X1459484Y1173683D01*
X1464411Y1159764D01*
X1471015Y1146556D01*
X1479143Y1134262D01*
X1488744Y1123035D01*
X1499666Y1113129D01*
X1511706Y1104595D01*
X1524711Y1097584D01*
X1538478Y1092250D01*
X1552752Y1088694D01*
X1567434Y1086866D01*
X1582166Y1086866D01*
X1596847Y1088694D01*
X1611122Y1092250D01*
X1624888Y1097584D01*
X1637893Y1104595D01*
X1649933Y1113129D01*
X1660855Y1123035D01*
X1670456Y1134262D01*
X1678584Y1146556D01*
X1680006Y1149350D01*
X1682851Y1152855D01*
X1686864Y1154734D01*
X1691335Y1154734D01*
X1695348Y1152855D01*
X1698193Y1149350D01*
X1699615Y1146556D01*
X1707743Y1134262D01*
X1717344Y1123035D01*
X1728266Y1113129D01*
X1740306Y1104595D01*
X1753311Y1097584D01*
X1767078Y1092250D01*
X1781352Y1088694D01*
X1796034Y1086866D01*
X1810766Y1086866D01*
X1825447Y1088694D01*
X1839722Y1092250D01*
X1853488Y1097584D01*
X1866493Y1104595D01*
X1878533Y1113129D01*
X1889455Y1123035D01*
X1899056Y1134262D01*
X1907184Y1146556D01*
X1908606Y1149350D01*
X1911451Y1152855D01*
X1915464Y1154734D01*
X1919935Y1154734D01*
X1923948Y1152855D01*
X1926793Y1149350D01*
X1928215Y1146556D01*
X1936343Y1134262D01*
X1945944Y1123035D01*
X1956866Y1113129D01*
X1968906Y1104595D01*
X1981911Y1097584D01*
X1995678Y1092250D01*
X2009952Y1088694D01*
X2024634Y1086866D01*
X2039366Y1086866D01*
X2054047Y1088694D01*
X2068322Y1092250D01*
X2082088Y1097584D01*
X2095093Y1104595D01*
X2107133Y1113129D01*
X2118055Y1123035D01*
X2127656Y1134262D01*
X2135784Y1146556D01*
X2137206Y1149400D01*
X2139950Y1152753D01*
X2143810Y1154734D01*
X2148179Y1154836D01*
X2152192Y1153160D01*
X2155088Y1149959D01*
X2160676Y1140307D01*
X2169566Y1128522D01*
X2179828Y1117904D01*
X2191359Y1108659D01*
X2203907Y1100886D01*
X2217318Y1094740D01*
X2231339Y1090269D01*
X2245868Y1087526D01*
G37*
G36*
X3927856Y1131417D02*
G01*
X3943045Y1132332D01*
X3957980Y1135075D01*
X3972509Y1139596D01*
X3986377Y1145844D01*
X3999382Y1153718D01*
X4011320Y1163066D01*
X4022090Y1173835D01*
X4031437Y1185773D01*
X4039311Y1198778D01*
X4045559Y1212646D01*
X4050080Y1227175D01*
X4052824Y1242110D01*
X4053738Y1257300D01*
X4052824Y1272489D01*
X4050080Y1287424D01*
X4045559Y1301953D01*
X4039311Y1315821D01*
X4031437Y1328826D01*
X4022090Y1340764D01*
X4011320Y1351534D01*
X3999382Y1360881D01*
X3986377Y1368755D01*
X3972509Y1375003D01*
X3957980Y1379524D01*
X3943045Y1382268D01*
X3927856Y1383182D01*
X3912666Y1382268D01*
X3897731Y1379524D01*
X3883202Y1375003D01*
X3869334Y1368755D01*
X3856329Y1360881D01*
X3844391Y1351534D01*
X3833622Y1340764D01*
X3824274Y1328826D01*
X3816400Y1315821D01*
X3810152Y1301953D01*
X3805631Y1287424D01*
X3802887Y1272489D01*
X3801973Y1257300D01*
X3802887Y1242110D01*
X3805631Y1227175D01*
X3810152Y1212646D01*
X3816400Y1198778D01*
X3824274Y1185773D01*
X3833622Y1173835D01*
X3844391Y1163066D01*
X3856329Y1153718D01*
X3869334Y1145844D01*
X3883202Y1139596D01*
X3897731Y1135075D01*
X3912666Y1132332D01*
G37*
G36*
X4428744Y1131417D02*
G01*
X4443933Y1132332D01*
X4458868Y1135075D01*
X4473397Y1139596D01*
X4487265Y1145844D01*
X4500270Y1153718D01*
X4512208Y1163066D01*
X4522978Y1173835D01*
X4532325Y1185773D01*
X4540199Y1198778D01*
X4546447Y1212646D01*
X4550968Y1227175D01*
X4553712Y1242110D01*
X4554626Y1257300D01*
X4553712Y1272489D01*
X4550968Y1287424D01*
X4546447Y1301953D01*
X4540199Y1315821D01*
X4532325Y1328826D01*
X4522978Y1340764D01*
X4512208Y1351534D01*
X4500270Y1360881D01*
X4487265Y1368755D01*
X4473397Y1375003D01*
X4458868Y1379524D01*
X4443933Y1382268D01*
X4428744Y1383182D01*
X4413554Y1382268D01*
X4398619Y1379524D01*
X4384090Y1375003D01*
X4370222Y1368755D01*
X4357217Y1360881D01*
X4345279Y1351534D01*
X4334510Y1340764D01*
X4325162Y1328826D01*
X4317288Y1315821D01*
X4311040Y1301953D01*
X4306519Y1287424D01*
X4303776Y1272489D01*
X4302861Y1257300D01*
X4303776Y1242110D01*
X4306519Y1227175D01*
X4311040Y1212646D01*
X4317288Y1198778D01*
X4325162Y1185773D01*
X4334510Y1173835D01*
X4345279Y1163066D01*
X4357217Y1153718D01*
X4370222Y1145844D01*
X4384090Y1139596D01*
X4398619Y1135075D01*
X4413554Y1132332D01*
G37*
G36*
X7019544Y1131417D02*
G01*
X7034733Y1132332D01*
X7049668Y1135075D01*
X7064197Y1139596D01*
X7078065Y1145844D01*
X7091070Y1153718D01*
X7103008Y1163066D01*
X7113778Y1173835D01*
X7123125Y1185773D01*
X7130999Y1198778D01*
X7137247Y1212646D01*
X7141768Y1227175D01*
X7144512Y1242110D01*
X7145426Y1257300D01*
X7144512Y1272489D01*
X7141768Y1287424D01*
X7137247Y1301953D01*
X7130999Y1315821D01*
X7123125Y1328826D01*
X7113778Y1340764D01*
X7103008Y1351534D01*
X7091070Y1360881D01*
X7078065Y1368755D01*
X7064197Y1375003D01*
X7049668Y1379524D01*
X7034733Y1382268D01*
X7019544Y1383182D01*
X7004354Y1382268D01*
X6989419Y1379524D01*
X6974890Y1375003D01*
X6961022Y1368755D01*
X6948017Y1360881D01*
X6936079Y1351534D01*
X6925309Y1340764D01*
X6915962Y1328826D01*
X6908088Y1315821D01*
X6901840Y1301953D01*
X6897319Y1287424D01*
X6894575Y1272489D01*
X6893661Y1257300D01*
X6894575Y1242110D01*
X6897319Y1227175D01*
X6901840Y1212646D01*
X6908088Y1198778D01*
X6915962Y1185773D01*
X6925309Y1173835D01*
X6936079Y1163066D01*
X6948017Y1153718D01*
X6961022Y1145844D01*
X6974890Y1139596D01*
X6989419Y1135075D01*
X7004354Y1132332D01*
G37*
G36*
X6574993Y1144879D02*
G01*
X6577177Y1145844D01*
X6590182Y1153718D01*
X6602120Y1163066D01*
X6612890Y1173835D01*
X6622237Y1185773D01*
X6630111Y1198778D01*
X6631076Y1200962D01*
X6574993Y1200962D01*
G37*
G36*
X6462318Y1144879D02*
G01*
X6462318Y1200962D01*
X6406235Y1200962D01*
X6407200Y1198778D01*
X6415074Y1185773D01*
X6424422Y1173835D01*
X6435191Y1163066D01*
X6447129Y1153718D01*
X6460134Y1145844D01*
G37*
G36*
X6406235Y1313637D02*
G01*
X6462318Y1313637D01*
X6462318Y1369720D01*
X6460134Y1368755D01*
X6447129Y1360881D01*
X6435191Y1351534D01*
X6424422Y1340764D01*
X6415074Y1328826D01*
X6407200Y1315821D01*
G37*
G36*
X6574993Y1313637D02*
G01*
X6631076Y1313637D01*
X6630111Y1315821D01*
X6622237Y1328826D01*
X6612890Y1340764D01*
X6602120Y1351534D01*
X6590182Y1360881D01*
X6577177Y1368755D01*
X6574993Y1369720D01*
G37*
G36*
X5486400Y1317752D02*
G01*
X5500065Y1318666D01*
X5513476Y1321358D01*
X5526430Y1325727D01*
X5538724Y1331772D01*
X5550103Y1339392D01*
X5560364Y1348435D01*
X5569407Y1358696D01*
X5577027Y1370076D01*
X5583072Y1382369D01*
X5587441Y1395323D01*
X5590133Y1408734D01*
X5591048Y1422400D01*
X5590133Y1436065D01*
X5587441Y1449476D01*
X5583072Y1462430D01*
X5577027Y1474724D01*
X5569407Y1486103D01*
X5560364Y1496364D01*
X5550103Y1505407D01*
X5538724Y1513027D01*
X5526430Y1519072D01*
X5513476Y1523441D01*
X5500065Y1526133D01*
X5486400Y1527048D01*
X5472734Y1526133D01*
X5459323Y1523441D01*
X5446369Y1519072D01*
X5434076Y1513027D01*
X5422696Y1505407D01*
X5412435Y1496364D01*
X5403392Y1486103D01*
X5395772Y1474724D01*
X5389727Y1462430D01*
X5385358Y1449476D01*
X5382666Y1436065D01*
X5381752Y1422400D01*
X5382666Y1408734D01*
X5385358Y1395323D01*
X5389727Y1382369D01*
X5395772Y1370076D01*
X5403392Y1358696D01*
X5412435Y1348435D01*
X5422696Y1339392D01*
X5434076Y1331772D01*
X5446369Y1325727D01*
X5459323Y1321358D01*
X5472734Y1318666D01*
G37*
G36*
X5232400Y1317752D02*
G01*
X5246065Y1318666D01*
X5259476Y1321358D01*
X5272430Y1325727D01*
X5284724Y1331772D01*
X5296103Y1339392D01*
X5306364Y1348435D01*
X5315407Y1358696D01*
X5323027Y1370076D01*
X5329072Y1382369D01*
X5333441Y1395323D01*
X5336133Y1408734D01*
X5337048Y1422400D01*
X5336133Y1436065D01*
X5333441Y1449476D01*
X5329072Y1462430D01*
X5323027Y1474724D01*
X5315407Y1486103D01*
X5306364Y1496364D01*
X5296103Y1505407D01*
X5284724Y1513027D01*
X5272430Y1519072D01*
X5259476Y1523441D01*
X5246065Y1526133D01*
X5232400Y1527048D01*
X5218734Y1526133D01*
X5205323Y1523441D01*
X5192369Y1519072D01*
X5180076Y1513027D01*
X5168696Y1505407D01*
X5158435Y1496364D01*
X5149392Y1486103D01*
X5141772Y1474724D01*
X5135727Y1462430D01*
X5131358Y1449476D01*
X5128666Y1436065D01*
X5127752Y1422400D01*
X5128666Y1408734D01*
X5131358Y1395323D01*
X5135727Y1382369D01*
X5141772Y1370076D01*
X5149392Y1358696D01*
X5158435Y1348435D01*
X5168696Y1339392D01*
X5180076Y1331772D01*
X5192369Y1325727D01*
X5205323Y1321358D01*
X5218734Y1318666D01*
G37*
G36*
X5662218Y1317752D02*
G01*
X5818581Y1317752D01*
X5824880Y1318463D01*
X5830366Y1320393D01*
X5835243Y1323441D01*
X5839358Y1327556D01*
X5842406Y1332433D01*
X5844336Y1337919D01*
X5845048Y1344218D01*
X5845048Y1500581D01*
X5844336Y1506880D01*
X5842406Y1512366D01*
X5839358Y1517243D01*
X5835243Y1521358D01*
X5830366Y1524406D01*
X5824880Y1526336D01*
X5818581Y1527048D01*
X5662218Y1527048D01*
X5655919Y1526336D01*
X5650433Y1524406D01*
X5645556Y1521358D01*
X5641441Y1517243D01*
X5638393Y1512366D01*
X5636463Y1506880D01*
X5635752Y1500581D01*
X5635752Y1344218D01*
X5636463Y1337919D01*
X5638393Y1332433D01*
X5641441Y1327556D01*
X5645556Y1323441D01*
X5650433Y1320393D01*
X5655919Y1318463D01*
G37*
G36*
X7988300Y1864512D02*
G01*
X8004098Y1865426D01*
X8019643Y1868170D01*
X8034781Y1872691D01*
X8049310Y1878939D01*
X8062975Y1886864D01*
X8075625Y1896313D01*
X8087156Y1907133D01*
X8097316Y1919274D01*
X8106003Y1932432D01*
X8113064Y1946554D01*
X8118500Y1961438D01*
X8122107Y1976780D01*
X8123936Y1992477D01*
X8123936Y2008276D01*
X8122107Y2023973D01*
X8118500Y2039366D01*
X8113064Y2054199D01*
X8106003Y2068322D01*
X8097316Y2081530D01*
X8087156Y2093671D01*
X8075625Y2104491D01*
X8062975Y2113940D01*
X8049310Y2121814D01*
X8034781Y2128113D01*
X8019643Y2132634D01*
X8004098Y2135378D01*
X7988300Y2136292D01*
X7972501Y2135378D01*
X7956956Y2132634D01*
X7941818Y2128113D01*
X7927289Y2121814D01*
X7913624Y2113940D01*
X7900974Y2104491D01*
X7889443Y2093671D01*
X7879283Y2081530D01*
X7870596Y2068322D01*
X7863535Y2054199D01*
X7858099Y2039366D01*
X7854492Y2023973D01*
X7852664Y2008276D01*
X7852664Y1992477D01*
X7854492Y1976780D01*
X7858099Y1961438D01*
X7863535Y1946554D01*
X7870596Y1932432D01*
X7879283Y1919274D01*
X7889443Y1907133D01*
X7900974Y1896313D01*
X7913624Y1886864D01*
X7927289Y1878939D01*
X7941818Y1872691D01*
X7956956Y1868170D01*
X7972501Y1865426D01*
G37*
G36*
X2954020Y1874621D02*
G01*
X2960624Y1877872D01*
X2972003Y1885492D01*
X2982264Y1894535D01*
X2991307Y1904796D01*
X2998927Y1916175D01*
X3002178Y1922780D01*
X2954020Y1922780D01*
G37*
G36*
X5885180Y1874621D02*
G01*
X5885180Y1922780D01*
X5837021Y1922780D01*
X5840272Y1916175D01*
X5847892Y1904796D01*
X5856935Y1894535D01*
X5867196Y1885492D01*
X5878576Y1877872D01*
G37*
G36*
X2862580Y1874621D02*
G01*
X2862580Y1922780D01*
X2814421Y1922780D01*
X2817672Y1916175D01*
X2825292Y1904796D01*
X2834335Y1894535D01*
X2844596Y1885492D01*
X2855976Y1877872D01*
G37*
G36*
X5976620Y1874621D02*
G01*
X5983224Y1877872D01*
X5994603Y1885492D01*
X6004864Y1894535D01*
X6013907Y1904796D01*
X6021527Y1916175D01*
X6024778Y1922780D01*
X5976620Y1922780D01*
G37*
G36*
X4991100Y1893417D02*
G01*
X5006289Y1894332D01*
X5021224Y1897075D01*
X5035753Y1901596D01*
X5049621Y1907844D01*
X5062626Y1915718D01*
X5074564Y1925066D01*
X5085334Y1935835D01*
X5094681Y1947773D01*
X5102555Y1960778D01*
X5108803Y1974646D01*
X5113324Y1989175D01*
X5116068Y2004110D01*
X5117033Y2019604D01*
X5117033Y2442972D01*
X5117744Y2446731D01*
X5119827Y2449982D01*
X5122976Y2452217D01*
X5126736Y2453081D01*
X5130546Y2452522D01*
X5137150Y2450185D01*
X5143500Y2449474D01*
X5322316Y2449474D01*
X5328666Y2450185D01*
X5334101Y2452116D01*
X5339029Y2455164D01*
X5343093Y2459278D01*
X5346192Y2464155D01*
X5348122Y2469642D01*
X5348833Y2475941D01*
X5348833Y2654808D01*
X5348122Y2661158D01*
X5346192Y2666593D01*
X5343093Y2671521D01*
X5339029Y2675585D01*
X5334101Y2678684D01*
X5328666Y2680563D01*
X5322316Y2681274D01*
X5143500Y2681274D01*
X5137150Y2680614D01*
X5130546Y2678226D01*
X5126736Y2677668D01*
X5122976Y2678582D01*
X5119827Y2680817D01*
X5117744Y2684018D01*
X5117033Y2687828D01*
X5117033Y3257448D01*
X5117896Y3261614D01*
X5120386Y3265017D01*
X5124043Y3267151D01*
X5128209Y3267557D01*
X5132273Y3266287D01*
X5135372Y3263442D01*
X5142585Y3253536D01*
X5152542Y3242919D01*
X5163769Y3233623D01*
X5176062Y3225850D01*
X5189220Y3219653D01*
X5203088Y3215132D01*
X5217363Y3212388D01*
X5231892Y3211474D01*
X5246420Y3212388D01*
X5260695Y3215132D01*
X5274564Y3219653D01*
X5287721Y3225850D01*
X5300014Y3233623D01*
X5311241Y3242919D01*
X5321198Y3253536D01*
X5329732Y3265271D01*
X5336743Y3278022D01*
X5342128Y3291586D01*
X5345734Y3305657D01*
X5347563Y3320084D01*
X5347563Y3334664D01*
X5345734Y3349091D01*
X5342128Y3363214D01*
X5336743Y3376726D01*
X5329732Y3389477D01*
X5321198Y3401263D01*
X5311241Y3411880D01*
X5300014Y3421126D01*
X5287721Y3428949D01*
X5274564Y3435146D01*
X5260695Y3439617D01*
X5246420Y3442360D01*
X5231892Y3443274D01*
X5217363Y3442360D01*
X5203088Y3439617D01*
X5189220Y3435146D01*
X5176062Y3428949D01*
X5163769Y3421126D01*
X5152542Y3411880D01*
X5142585Y3401263D01*
X5134051Y3389477D01*
X5127040Y3376726D01*
X5126380Y3375050D01*
X5124246Y3371697D01*
X5120995Y3369462D01*
X5117134Y3368598D01*
X5113274Y3369310D01*
X5109921Y3371392D01*
X5107635Y3374593D01*
X5102555Y3385921D01*
X5094681Y3398926D01*
X5085334Y3410864D01*
X5074564Y3421634D01*
X5062626Y3430981D01*
X5049621Y3438855D01*
X5035753Y3445103D01*
X5021224Y3449624D01*
X5006289Y3452368D01*
X4991100Y3453282D01*
X4975910Y3452368D01*
X4960975Y3449624D01*
X4946446Y3445103D01*
X4932578Y3438855D01*
X4919573Y3430981D01*
X4907635Y3421634D01*
X4896866Y3410864D01*
X4887518Y3398926D01*
X4879644Y3385921D01*
X4873396Y3372053D01*
X4868875Y3357524D01*
X4866132Y3342589D01*
X4865217Y3327095D01*
X4865217Y2019604D01*
X4866132Y2004110D01*
X4868875Y1989175D01*
X4873396Y1974646D01*
X4879644Y1960778D01*
X4887518Y1947773D01*
X4896866Y1935835D01*
X4907635Y1925066D01*
X4919573Y1915718D01*
X4932578Y1907844D01*
X4946446Y1901596D01*
X4960975Y1897075D01*
X4975910Y1894332D01*
G37*
G36*
X3666591Y1899462D02*
G01*
X3681374Y1899920D01*
X3695954Y1902206D01*
X3710127Y1906270D01*
X3723741Y1912010D01*
X3736492Y1919376D01*
X3748278Y1928266D01*
X3758895Y1938528D01*
X3768140Y1950059D01*
X3775913Y1962607D01*
X3782060Y1976018D01*
X3786530Y1990039D01*
X3789273Y2004568D01*
X3790187Y2019300D01*
X3789273Y2034032D01*
X3786530Y2048560D01*
X3782060Y2062581D01*
X3775913Y2075992D01*
X3768140Y2088540D01*
X3758895Y2100072D01*
X3748278Y2110333D01*
X3736492Y2119223D01*
X3723741Y2126589D01*
X3710127Y2132330D01*
X3695954Y2136394D01*
X3681374Y2138680D01*
X3666591Y2139086D01*
X3651910Y2137765D01*
X3637483Y2134616D01*
X3623564Y2129688D01*
X3610356Y2123084D01*
X3598062Y2114956D01*
X3586835Y2105355D01*
X3576929Y2094433D01*
X3568395Y2082393D01*
X3561384Y2069388D01*
X3556050Y2055622D01*
X3552494Y2041347D01*
X3550665Y2026666D01*
X3550665Y2011934D01*
X3552494Y1997252D01*
X3556050Y1982978D01*
X3561384Y1969211D01*
X3568395Y1956206D01*
X3576929Y1944166D01*
X3586835Y1933244D01*
X3598062Y1923643D01*
X3610356Y1915515D01*
X3623564Y1908911D01*
X3637483Y1903984D01*
X3651910Y1900834D01*
G37*
G36*
X4682591Y1899462D02*
G01*
X4697374Y1899920D01*
X4711954Y1902206D01*
X4726127Y1906270D01*
X4739741Y1912010D01*
X4752492Y1919376D01*
X4764278Y1928266D01*
X4774895Y1938528D01*
X4784140Y1950059D01*
X4791913Y1962607D01*
X4798060Y1976018D01*
X4802530Y1990039D01*
X4805273Y2004568D01*
X4806188Y2019300D01*
X4805273Y2034032D01*
X4802530Y2048560D01*
X4798060Y2062581D01*
X4791913Y2075992D01*
X4784140Y2088540D01*
X4774895Y2100072D01*
X4764278Y2110333D01*
X4752492Y2119223D01*
X4739741Y2126589D01*
X4726127Y2132330D01*
X4711954Y2136394D01*
X4697374Y2138680D01*
X4682591Y2139086D01*
X4667910Y2137765D01*
X4653483Y2134616D01*
X4639564Y2129688D01*
X4626356Y2123084D01*
X4614062Y2114956D01*
X4602835Y2105355D01*
X4592929Y2094433D01*
X4584395Y2082393D01*
X4577384Y2069388D01*
X4572050Y2055622D01*
X4568494Y2041347D01*
X4566666Y2026666D01*
X4566666Y2011934D01*
X4568494Y1997252D01*
X4572050Y1982978D01*
X4577384Y1969211D01*
X4584395Y1956206D01*
X4592929Y1944166D01*
X4602835Y1933244D01*
X4614062Y1923643D01*
X4626356Y1915515D01*
X4639564Y1908911D01*
X4653483Y1903984D01*
X4667910Y1900834D01*
G37*
G36*
X3352800Y1906117D02*
G01*
X3367989Y1907032D01*
X3382924Y1909775D01*
X3397453Y1914296D01*
X3411321Y1920544D01*
X3424326Y1928418D01*
X3436264Y1937766D01*
X3447034Y1948535D01*
X3456381Y1960473D01*
X3464255Y1973478D01*
X3470503Y1987346D01*
X3475024Y2001875D01*
X3477768Y2016810D01*
X3478733Y2032304D01*
X3478733Y3339795D01*
X3477768Y3355289D01*
X3475024Y3370224D01*
X3470503Y3384753D01*
X3464255Y3398621D01*
X3456381Y3411626D01*
X3447034Y3423564D01*
X3436264Y3434334D01*
X3424326Y3443681D01*
X3411321Y3451555D01*
X3397453Y3457803D01*
X3382924Y3462324D01*
X3367989Y3465068D01*
X3352800Y3465982D01*
X3337610Y3465068D01*
X3322675Y3462324D01*
X3308146Y3457803D01*
X3294278Y3451555D01*
X3281273Y3443681D01*
X3269335Y3434334D01*
X3258565Y3423564D01*
X3249218Y3411626D01*
X3241344Y3398621D01*
X3235096Y3384753D01*
X3230575Y3370224D01*
X3227832Y3355289D01*
X3226866Y3339795D01*
X3226866Y2032304D01*
X3227832Y2016810D01*
X3230575Y2001875D01*
X3235096Y1987346D01*
X3241344Y1973478D01*
X3249218Y1960473D01*
X3258565Y1948535D01*
X3269335Y1937766D01*
X3281273Y1928418D01*
X3294278Y1920544D01*
X3308146Y1914296D01*
X3322675Y1909775D01*
X3337610Y1907032D01*
G37*
G36*
X5837021Y2014220D02*
G01*
X5885180Y2014220D01*
X5885180Y2062378D01*
X5878576Y2059127D01*
X5867196Y2051507D01*
X5856935Y2042464D01*
X5847892Y2032203D01*
X5840272Y2020824D01*
G37*
G36*
X5976620Y2014220D02*
G01*
X6024778Y2014220D01*
X6021527Y2020824D01*
X6013907Y2032203D01*
X6004864Y2042464D01*
X5994603Y2051507D01*
X5983224Y2059127D01*
X5976620Y2062378D01*
G37*
G36*
X2814421Y2014220D02*
G01*
X2862580Y2014220D01*
X2862580Y2062378D01*
X2855976Y2059127D01*
X2844596Y2051507D01*
X2834335Y2042464D01*
X2825292Y2032203D01*
X2817672Y2020824D01*
G37*
G36*
X2954020Y2014220D02*
G01*
X3002178Y2014220D01*
X2998927Y2020824D01*
X2991307Y2032203D01*
X2982264Y2042464D01*
X2972003Y2051507D01*
X2960624Y2059127D01*
X2954020Y2062378D01*
G37*
G36*
X7360920Y2027021D02*
G01*
X7367524Y2030272D01*
X7378903Y2037892D01*
X7389164Y2046935D01*
X7398207Y2057196D01*
X7405827Y2068575D01*
X7409078Y2075180D01*
X7360920Y2075180D01*
G37*
G36*
X7269480Y2027021D02*
G01*
X7269480Y2075180D01*
X7221321Y2075180D01*
X7224572Y2068575D01*
X7232192Y2057196D01*
X7241235Y2046935D01*
X7251496Y2037892D01*
X7262875Y2030272D01*
G37*
G36*
X2260600Y2102612D02*
G01*
X2275332Y2103526D01*
X2289860Y2106269D01*
X2303881Y2110740D01*
X2317292Y2116886D01*
X2329840Y2124659D01*
X2341372Y2133904D01*
X2351633Y2144522D01*
X2360523Y2156307D01*
X2367889Y2169058D01*
X2373630Y2182672D01*
X2377694Y2196846D01*
X2379980Y2211425D01*
X2380386Y2226208D01*
X2379065Y2240889D01*
X2375916Y2255316D01*
X2370988Y2269236D01*
X2364384Y2282444D01*
X2356256Y2294737D01*
X2346655Y2305964D01*
X2335733Y2315870D01*
X2323693Y2324404D01*
X2310688Y2331415D01*
X2296922Y2336749D01*
X2282647Y2340305D01*
X2267966Y2342134D01*
X2253234Y2342134D01*
X2238552Y2340305D01*
X2224278Y2336749D01*
X2210511Y2331415D01*
X2197506Y2324404D01*
X2185466Y2315870D01*
X2174544Y2305964D01*
X2164943Y2294737D01*
X2156815Y2282444D01*
X2155393Y2279599D01*
X2152650Y2276246D01*
X2148789Y2274265D01*
X2144420Y2274163D01*
X2140407Y2275840D01*
X2137511Y2279040D01*
X2131923Y2288692D01*
X2123033Y2300478D01*
X2112772Y2311095D01*
X2101240Y2320340D01*
X2088692Y2328113D01*
X2075281Y2334260D01*
X2061260Y2338730D01*
X2046732Y2341473D01*
X2032000Y2342388D01*
X2017268Y2341473D01*
X2002739Y2338730D01*
X1988718Y2334260D01*
X1975307Y2328113D01*
X1962759Y2320340D01*
X1951228Y2311095D01*
X1940966Y2300478D01*
X1932076Y2288692D01*
X1926488Y2279040D01*
X1923694Y2275890D01*
X1919833Y2274214D01*
X1915566Y2274214D01*
X1911705Y2275890D01*
X1908911Y2279040D01*
X1903323Y2288692D01*
X1894433Y2300478D01*
X1884172Y2311095D01*
X1872640Y2320340D01*
X1860092Y2328113D01*
X1846681Y2334260D01*
X1832660Y2338730D01*
X1818132Y2341473D01*
X1803400Y2342388D01*
X1788668Y2341473D01*
X1774139Y2338730D01*
X1760118Y2334260D01*
X1746707Y2328113D01*
X1734159Y2320340D01*
X1722628Y2311095D01*
X1712366Y2300478D01*
X1703476Y2288692D01*
X1697888Y2279040D01*
X1695094Y2275890D01*
X1691233Y2274214D01*
X1686966Y2274214D01*
X1683105Y2275890D01*
X1680311Y2279040D01*
X1674723Y2288692D01*
X1665833Y2300478D01*
X1655572Y2311095D01*
X1644040Y2320340D01*
X1631492Y2328113D01*
X1618081Y2334260D01*
X1604060Y2338730D01*
X1589532Y2341473D01*
X1574800Y2342388D01*
X1560068Y2341473D01*
X1545539Y2338730D01*
X1531518Y2334260D01*
X1518107Y2328113D01*
X1505559Y2320340D01*
X1494028Y2311095D01*
X1483766Y2300478D01*
X1474876Y2288692D01*
X1467510Y2275941D01*
X1461770Y2262327D01*
X1457706Y2248154D01*
X1455420Y2233574D01*
X1455013Y2218791D01*
X1456334Y2204110D01*
X1459484Y2189683D01*
X1464411Y2175764D01*
X1471015Y2162556D01*
X1479143Y2150262D01*
X1488744Y2139035D01*
X1499666Y2129129D01*
X1511706Y2120595D01*
X1524711Y2113584D01*
X1538478Y2108250D01*
X1552752Y2104694D01*
X1567434Y2102866D01*
X1582166Y2102866D01*
X1596847Y2104694D01*
X1611122Y2108250D01*
X1624888Y2113584D01*
X1637893Y2120595D01*
X1649933Y2129129D01*
X1660855Y2139035D01*
X1670456Y2150262D01*
X1678584Y2162556D01*
X1680006Y2165350D01*
X1682851Y2168855D01*
X1686864Y2170734D01*
X1691335Y2170734D01*
X1695348Y2168855D01*
X1698193Y2165350D01*
X1699615Y2162556D01*
X1707743Y2150262D01*
X1717344Y2139035D01*
X1728266Y2129129D01*
X1740306Y2120595D01*
X1753311Y2113584D01*
X1767078Y2108250D01*
X1781352Y2104694D01*
X1796034Y2102866D01*
X1810766Y2102866D01*
X1825447Y2104694D01*
X1839722Y2108250D01*
X1853488Y2113584D01*
X1866493Y2120595D01*
X1878533Y2129129D01*
X1889455Y2139035D01*
X1899056Y2150262D01*
X1907184Y2162556D01*
X1908606Y2165350D01*
X1911451Y2168855D01*
X1915464Y2170734D01*
X1919935Y2170734D01*
X1923948Y2168855D01*
X1926793Y2165350D01*
X1928215Y2162556D01*
X1936343Y2150262D01*
X1945944Y2139035D01*
X1956866Y2129129D01*
X1968906Y2120595D01*
X1981911Y2113584D01*
X1995678Y2108250D01*
X2009952Y2104694D01*
X2024634Y2102866D01*
X2039366Y2102866D01*
X2054047Y2104694D01*
X2068322Y2108250D01*
X2082088Y2113584D01*
X2095093Y2120595D01*
X2107133Y2129129D01*
X2118055Y2139035D01*
X2127656Y2150262D01*
X2135784Y2162556D01*
X2137206Y2165400D01*
X2139950Y2168753D01*
X2143810Y2170734D01*
X2148179Y2170836D01*
X2152192Y2169160D01*
X2155088Y2165959D01*
X2160676Y2156307D01*
X2169566Y2144522D01*
X2179828Y2133904D01*
X2191359Y2124659D01*
X2203907Y2116886D01*
X2217318Y2110740D01*
X2231339Y2106269D01*
X2245868Y2103526D01*
G37*
G36*
X7221321Y2166620D02*
G01*
X7269480Y2166620D01*
X7269480Y2214778D01*
X7262875Y2211527D01*
X7251496Y2203907D01*
X7241235Y2194864D01*
X7232192Y2184603D01*
X7224572Y2173224D01*
G37*
G36*
X7360920Y2166620D02*
G01*
X7409078Y2166620D01*
X7405827Y2173224D01*
X7398207Y2184603D01*
X7389164Y2194864D01*
X7378903Y2203907D01*
X7367524Y2211527D01*
X7360920Y2214778D01*
G37*
G36*
X4335780Y2204821D02*
G01*
X4335780Y2252980D01*
X4287621Y2252980D01*
X4290872Y2246376D01*
X4298492Y2234996D01*
X4307535Y2224735D01*
X4317796Y2215692D01*
X4329176Y2208072D01*
G37*
G36*
X4427220Y2204821D02*
G01*
X4433824Y2208072D01*
X4445203Y2215692D01*
X4455464Y2224735D01*
X4464507Y2234996D01*
X4472127Y2246376D01*
X4475378Y2252980D01*
X4427220Y2252980D01*
G37*
G36*
X4287621Y2344420D02*
G01*
X4335780Y2344420D01*
X4335780Y2392578D01*
X4329176Y2389327D01*
X4317796Y2381707D01*
X4307535Y2372664D01*
X4298492Y2362403D01*
X4290872Y2351024D01*
G37*
G36*
X4427220Y2344420D02*
G01*
X4475378Y2344420D01*
X4472127Y2351024D01*
X4464507Y2362403D01*
X4455464Y2372664D01*
X4445203Y2381707D01*
X4433824Y2389327D01*
X4427220Y2392578D01*
G37*
G36*
X1854200Y2436774D02*
G01*
X2033016Y2436774D01*
X2039366Y2437485D01*
X2044801Y2439416D01*
X2049729Y2442464D01*
X2053793Y2446578D01*
X2056892Y2451455D01*
X2058822Y2456942D01*
X2059533Y2463241D01*
X2059533Y2642108D01*
X2058822Y2648458D01*
X2056892Y2653893D01*
X2053793Y2658821D01*
X2049729Y2662885D01*
X2044801Y2665984D01*
X2039366Y2667863D01*
X2033016Y2668574D01*
X1854200Y2668574D01*
X1847850Y2667863D01*
X1842414Y2665984D01*
X1837486Y2662885D01*
X1833422Y2658821D01*
X1830324Y2653893D01*
X1828393Y2648458D01*
X1827682Y2642108D01*
X1827682Y2463241D01*
X1828393Y2456942D01*
X1830324Y2451455D01*
X1833422Y2446578D01*
X1837486Y2442464D01*
X1842414Y2439416D01*
X1847850Y2437485D01*
G37*
G36*
X2197608Y2436825D02*
G01*
X2212136Y2437739D01*
X2226411Y2440432D01*
X2240280Y2444953D01*
X2253437Y2451150D01*
X2265730Y2458923D01*
X2276957Y2468219D01*
X2286914Y2478836D01*
X2295448Y2490571D01*
X2302459Y2503322D01*
X2307844Y2516886D01*
X2311450Y2530957D01*
X2313279Y2545435D01*
X2313279Y2559964D01*
X2311450Y2574391D01*
X2307844Y2588514D01*
X2302459Y2602026D01*
X2295448Y2614777D01*
X2286914Y2626563D01*
X2276957Y2637180D01*
X2265730Y2646426D01*
X2253437Y2654249D01*
X2240280Y2660446D01*
X2226411Y2664917D01*
X2212136Y2667660D01*
X2197608Y2668574D01*
X2183079Y2667660D01*
X2168804Y2664917D01*
X2154936Y2660446D01*
X2141778Y2654249D01*
X2129485Y2646426D01*
X2118258Y2637180D01*
X2108301Y2626563D01*
X2099767Y2614777D01*
X2092756Y2602026D01*
X2087372Y2588514D01*
X2083765Y2574391D01*
X2081936Y2559964D01*
X2081936Y2545435D01*
X2083765Y2530957D01*
X2087372Y2516886D01*
X2092756Y2503322D01*
X2099767Y2490571D01*
X2108301Y2478836D01*
X2118258Y2468219D01*
X2129485Y2458923D01*
X2141778Y2451150D01*
X2154936Y2444953D01*
X2168804Y2440432D01*
X2183079Y2437739D01*
G37*
G36*
X3632200Y2449474D02*
G01*
X3811015Y2449474D01*
X3817365Y2450185D01*
X3822801Y2452116D01*
X3827729Y2455164D01*
X3831793Y2459278D01*
X3834892Y2464155D01*
X3836822Y2469642D01*
X3837533Y2475941D01*
X3837533Y2654808D01*
X3836822Y2661158D01*
X3834892Y2666593D01*
X3831793Y2671521D01*
X3827729Y2675585D01*
X3822801Y2678684D01*
X3817365Y2680563D01*
X3811015Y2681274D01*
X3632200Y2681274D01*
X3625850Y2680563D01*
X3620414Y2678684D01*
X3615486Y2675585D01*
X3611422Y2671521D01*
X3608324Y2666593D01*
X3606393Y2661158D01*
X3605682Y2654808D01*
X3605682Y2475941D01*
X3606393Y2469642D01*
X3608324Y2464155D01*
X3611422Y2459278D01*
X3615486Y2455164D01*
X3620414Y2452116D01*
X3625850Y2450185D01*
G37*
G36*
X6426200Y2449474D02*
G01*
X6605016Y2449474D01*
X6611366Y2450185D01*
X6616801Y2452116D01*
X6621729Y2455164D01*
X6625793Y2459278D01*
X6628892Y2464155D01*
X6630822Y2469642D01*
X6631533Y2475941D01*
X6631533Y2654808D01*
X6630822Y2661158D01*
X6628892Y2666593D01*
X6625793Y2671521D01*
X6621729Y2675585D01*
X6616801Y2678684D01*
X6611366Y2680563D01*
X6605016Y2681274D01*
X6426200Y2681274D01*
X6419850Y2680563D01*
X6414414Y2678684D01*
X6409486Y2675585D01*
X6405422Y2671521D01*
X6402324Y2666593D01*
X6400393Y2661158D01*
X6399682Y2654808D01*
X6399682Y2475941D01*
X6400393Y2469642D01*
X6402324Y2464155D01*
X6405422Y2459278D01*
X6409486Y2455164D01*
X6414414Y2452116D01*
X6419850Y2450185D01*
G37*
G36*
X5486908Y2449525D02*
G01*
X5501436Y2450439D01*
X5515711Y2453132D01*
X5529580Y2457653D01*
X5542737Y2463850D01*
X5555030Y2471623D01*
X5566257Y2480919D01*
X5576214Y2491536D01*
X5584748Y2503271D01*
X5591759Y2516022D01*
X5597144Y2529586D01*
X5600750Y2543657D01*
X5602579Y2558135D01*
X5602579Y2572664D01*
X5600750Y2587091D01*
X5597144Y2601214D01*
X5591759Y2614726D01*
X5584748Y2627477D01*
X5576214Y2639263D01*
X5566257Y2649880D01*
X5555030Y2659126D01*
X5542737Y2666949D01*
X5529580Y2673146D01*
X5515711Y2677617D01*
X5501436Y2680360D01*
X5486908Y2681274D01*
X5472379Y2680360D01*
X5458104Y2677617D01*
X5444236Y2673146D01*
X5431078Y2666949D01*
X5418785Y2659126D01*
X5407558Y2649880D01*
X5397601Y2639263D01*
X5389067Y2627477D01*
X5382056Y2614726D01*
X5376672Y2601214D01*
X5373065Y2587091D01*
X5371236Y2572664D01*
X5371236Y2558135D01*
X5373065Y2543657D01*
X5376672Y2529586D01*
X5382056Y2516022D01*
X5389067Y2503271D01*
X5397601Y2491536D01*
X5407558Y2480919D01*
X5418785Y2471623D01*
X5431078Y2463850D01*
X5444236Y2457653D01*
X5458104Y2453132D01*
X5472379Y2450439D01*
G37*
G36*
X6769608Y2449525D02*
G01*
X6784136Y2450439D01*
X6798411Y2453132D01*
X6812280Y2457653D01*
X6825437Y2463850D01*
X6837730Y2471623D01*
X6848957Y2480919D01*
X6858914Y2491536D01*
X6867448Y2503271D01*
X6874459Y2516022D01*
X6879844Y2529586D01*
X6883450Y2543657D01*
X6885279Y2558135D01*
X6885279Y2572664D01*
X6883450Y2587091D01*
X6879844Y2601214D01*
X6874459Y2614726D01*
X6867448Y2627477D01*
X6858914Y2639263D01*
X6848957Y2649880D01*
X6837730Y2659126D01*
X6825437Y2666949D01*
X6812280Y2673146D01*
X6798411Y2677617D01*
X6784136Y2680360D01*
X6769608Y2681274D01*
X6755079Y2680360D01*
X6740804Y2677617D01*
X6726936Y2673146D01*
X6713778Y2666949D01*
X6701485Y2659126D01*
X6690258Y2649880D01*
X6680301Y2639263D01*
X6671767Y2627477D01*
X6664756Y2614726D01*
X6659372Y2601214D01*
X6655765Y2587091D01*
X6653936Y2572664D01*
X6653936Y2558135D01*
X6655765Y2543657D01*
X6659372Y2529586D01*
X6664756Y2516022D01*
X6671767Y2503271D01*
X6680301Y2491536D01*
X6690258Y2480919D01*
X6701485Y2471623D01*
X6713778Y2463850D01*
X6726936Y2457653D01*
X6740804Y2453132D01*
X6755079Y2450439D01*
G37*
G36*
X3975608Y2449525D02*
G01*
X3990136Y2450439D01*
X4004411Y2453132D01*
X4018279Y2457653D01*
X4031437Y2463850D01*
X4043730Y2471623D01*
X4054957Y2480919D01*
X4064914Y2491536D01*
X4073448Y2503271D01*
X4080459Y2516022D01*
X4085844Y2529586D01*
X4089450Y2543657D01*
X4091279Y2558135D01*
X4091279Y2572664D01*
X4089450Y2587091D01*
X4085844Y2601214D01*
X4080459Y2614726D01*
X4073448Y2627477D01*
X4064914Y2639263D01*
X4054957Y2649880D01*
X4043730Y2659126D01*
X4031437Y2666949D01*
X4018279Y2673146D01*
X4004411Y2677617D01*
X3990136Y2680360D01*
X3975608Y2681274D01*
X3961079Y2680360D01*
X3946804Y2677617D01*
X3932936Y2673146D01*
X3919778Y2666949D01*
X3907485Y2659126D01*
X3896258Y2649880D01*
X3886301Y2639263D01*
X3877767Y2627477D01*
X3870756Y2614726D01*
X3865372Y2601214D01*
X3861765Y2587091D01*
X3859936Y2572664D01*
X3859936Y2558135D01*
X3861765Y2543657D01*
X3865372Y2529586D01*
X3870756Y2516022D01*
X3877767Y2503271D01*
X3886301Y2491536D01*
X3896258Y2480919D01*
X3907485Y2471623D01*
X3919778Y2463850D01*
X3932936Y2457653D01*
X3946804Y2453132D01*
X3961079Y2450439D01*
G37*
G36*
X8524646Y2884779D02*
G01*
X8592769Y2884779D01*
X8592769Y2979369D01*
X8498179Y2979369D01*
X8498179Y2911246D01*
X8498890Y2904947D01*
X8500821Y2899511D01*
X8503920Y2894584D01*
X8507984Y2890520D01*
X8512911Y2887421D01*
X8518347Y2885490D01*
G37*
G36*
X8755430Y2884779D02*
G01*
X8823553Y2884779D01*
X8829852Y2885490D01*
X8835288Y2887421D01*
X8840216Y2890520D01*
X8844280Y2894584D01*
X8847378Y2899511D01*
X8849309Y2904947D01*
X8850020Y2911246D01*
X8850020Y2979369D01*
X8755430Y2979369D01*
G37*
G36*
X8498179Y3142030D02*
G01*
X8592769Y3142030D01*
X8592769Y3236620D01*
X8524646Y3236620D01*
X8518347Y3235909D01*
X8512911Y3233978D01*
X8507984Y3230880D01*
X8503920Y3226816D01*
X8500821Y3221888D01*
X8498890Y3216452D01*
X8498179Y3210153D01*
G37*
G36*
X8755430Y3142030D02*
G01*
X8850020Y3142030D01*
X8850020Y3210153D01*
X8849309Y3216452D01*
X8847378Y3221888D01*
X8844280Y3226816D01*
X8840216Y3230880D01*
X8835288Y3233978D01*
X8829852Y3235909D01*
X8823553Y3236620D01*
X8755430Y3236620D01*
G37*
G36*
X1942592Y3198774D02*
G01*
X1957120Y3199688D01*
X1971395Y3202432D01*
X1985264Y3206953D01*
X1998421Y3213150D01*
X2010714Y3220923D01*
X2021941Y3230219D01*
X2031898Y3240836D01*
X2040432Y3252571D01*
X2047443Y3265322D01*
X2052828Y3278886D01*
X2056434Y3292957D01*
X2058263Y3307384D01*
X2058263Y3321964D01*
X2056434Y3336391D01*
X2052828Y3350514D01*
X2047443Y3364026D01*
X2040432Y3376777D01*
X2031898Y3388563D01*
X2021941Y3399180D01*
X2010714Y3408426D01*
X1998421Y3416249D01*
X1985264Y3422446D01*
X1971395Y3426917D01*
X1957120Y3429660D01*
X1942592Y3430574D01*
X1928063Y3429660D01*
X1913788Y3426917D01*
X1899920Y3422446D01*
X1886762Y3416249D01*
X1874469Y3408426D01*
X1863242Y3399180D01*
X1853285Y3388563D01*
X1844751Y3376777D01*
X1837740Y3364026D01*
X1832356Y3350514D01*
X1828749Y3336391D01*
X1826920Y3321964D01*
X1826920Y3307384D01*
X1828749Y3292957D01*
X1832356Y3278886D01*
X1837740Y3265322D01*
X1844751Y3252571D01*
X1853285Y3240836D01*
X1863242Y3230219D01*
X1874469Y3220923D01*
X1886762Y3213150D01*
X1899920Y3206953D01*
X1913788Y3202432D01*
X1928063Y3199688D01*
G37*
G36*
X2196592Y3198774D02*
G01*
X2211120Y3199688D01*
X2225446Y3202432D01*
X2239264Y3206953D01*
X2252421Y3213150D01*
X2264714Y3220923D01*
X2275941Y3230219D01*
X2285898Y3240836D01*
X2294432Y3252571D01*
X2301443Y3265322D01*
X2306828Y3278886D01*
X2310434Y3292957D01*
X2312263Y3307384D01*
X2312263Y3321964D01*
X2310434Y3336391D01*
X2306828Y3350514D01*
X2301443Y3364026D01*
X2294432Y3376777D01*
X2285898Y3388563D01*
X2275941Y3399180D01*
X2264714Y3408426D01*
X2252421Y3416249D01*
X2239264Y3422446D01*
X2225446Y3426917D01*
X2211120Y3429660D01*
X2196592Y3430574D01*
X2182063Y3429660D01*
X2167788Y3426917D01*
X2153920Y3422446D01*
X2140762Y3416249D01*
X2128469Y3408426D01*
X2117293Y3399180D01*
X2107285Y3388563D01*
X2098751Y3376777D01*
X2091740Y3364026D01*
X2086406Y3350514D01*
X2082749Y3336391D01*
X2080920Y3321964D01*
X2080920Y3307384D01*
X2082749Y3292957D01*
X2086406Y3278886D01*
X2091740Y3265322D01*
X2098751Y3252571D01*
X2107285Y3240836D01*
X2117293Y3230219D01*
X2128469Y3220923D01*
X2140762Y3213150D01*
X2153920Y3206953D01*
X2167788Y3202432D01*
X2182063Y3199688D01*
G37*
G36*
X6768592Y3211474D02*
G01*
X6783120Y3212388D01*
X6797446Y3215132D01*
X6811264Y3219653D01*
X6824421Y3225850D01*
X6836714Y3233623D01*
X6847941Y3242919D01*
X6857898Y3253536D01*
X6866432Y3265271D01*
X6873443Y3278022D01*
X6878828Y3291586D01*
X6882434Y3305657D01*
X6884263Y3320084D01*
X6884263Y3334664D01*
X6882434Y3349091D01*
X6878828Y3363214D01*
X6873443Y3376726D01*
X6866432Y3389477D01*
X6857898Y3401263D01*
X6847941Y3411880D01*
X6836714Y3421126D01*
X6824421Y3428949D01*
X6811264Y3435146D01*
X6797446Y3439617D01*
X6783120Y3442360D01*
X6768592Y3443274D01*
X6754063Y3442360D01*
X6739788Y3439617D01*
X6725920Y3435146D01*
X6712762Y3428949D01*
X6700469Y3421126D01*
X6689293Y3411880D01*
X6679285Y3401263D01*
X6670751Y3389477D01*
X6663740Y3376726D01*
X6658406Y3363214D01*
X6654749Y3349091D01*
X6652920Y3334664D01*
X6652920Y3320084D01*
X6654749Y3305657D01*
X6658406Y3291586D01*
X6663740Y3278022D01*
X6670751Y3265271D01*
X6679285Y3253536D01*
X6689293Y3242919D01*
X6700469Y3233623D01*
X6712762Y3225850D01*
X6725920Y3219653D01*
X6739788Y3215132D01*
X6754063Y3212388D01*
G37*
G36*
X3720592Y3211474D02*
G01*
X3735120Y3212388D01*
X3749395Y3215132D01*
X3763264Y3219653D01*
X3776421Y3225850D01*
X3788714Y3233623D01*
X3799941Y3242919D01*
X3809898Y3253536D01*
X3818432Y3265271D01*
X3825443Y3278022D01*
X3830828Y3291586D01*
X3834434Y3305657D01*
X3836263Y3320084D01*
X3836263Y3334664D01*
X3834434Y3349091D01*
X3830828Y3363214D01*
X3825443Y3376726D01*
X3818432Y3389477D01*
X3809898Y3401263D01*
X3799941Y3411880D01*
X3788714Y3421126D01*
X3776421Y3428949D01*
X3763264Y3435146D01*
X3749395Y3439617D01*
X3735120Y3442360D01*
X3720592Y3443274D01*
X3706063Y3442360D01*
X3691788Y3439617D01*
X3677920Y3435146D01*
X3664762Y3428949D01*
X3652469Y3421126D01*
X3641242Y3411880D01*
X3631285Y3401263D01*
X3622751Y3389477D01*
X3615740Y3376726D01*
X3610356Y3363214D01*
X3606749Y3349091D01*
X3604920Y3334664D01*
X3604920Y3320084D01*
X3606749Y3305657D01*
X3610356Y3291586D01*
X3615740Y3278022D01*
X3622751Y3265271D01*
X3631285Y3253536D01*
X3641242Y3242919D01*
X3652469Y3233623D01*
X3664762Y3225850D01*
X3677920Y3219653D01*
X3691788Y3215132D01*
X3706063Y3212388D01*
G37*
G36*
X6514592Y3211474D02*
G01*
X6529120Y3212388D01*
X6543395Y3215132D01*
X6557264Y3219653D01*
X6570421Y3225850D01*
X6582714Y3233623D01*
X6593941Y3242919D01*
X6603898Y3253536D01*
X6612432Y3265271D01*
X6619443Y3278022D01*
X6624828Y3291586D01*
X6628434Y3305657D01*
X6630263Y3320084D01*
X6630263Y3334664D01*
X6628434Y3349091D01*
X6624828Y3363214D01*
X6619443Y3376726D01*
X6612432Y3389477D01*
X6603898Y3401263D01*
X6593941Y3411880D01*
X6582714Y3421126D01*
X6570421Y3428949D01*
X6557264Y3435146D01*
X6543395Y3439617D01*
X6529120Y3442360D01*
X6514592Y3443274D01*
X6500063Y3442360D01*
X6485788Y3439617D01*
X6471920Y3435146D01*
X6458762Y3428949D01*
X6446469Y3421126D01*
X6435242Y3411880D01*
X6425285Y3401263D01*
X6416751Y3389477D01*
X6409740Y3376726D01*
X6404356Y3363214D01*
X6400749Y3349091D01*
X6398920Y3334664D01*
X6398920Y3320084D01*
X6400749Y3305657D01*
X6404356Y3291586D01*
X6409740Y3278022D01*
X6416751Y3265271D01*
X6425285Y3253536D01*
X6435242Y3242919D01*
X6446469Y3233623D01*
X6458762Y3225850D01*
X6471920Y3219653D01*
X6485788Y3215132D01*
X6500063Y3212388D01*
G37*
G36*
X2862580Y3220821D02*
G01*
X2862580Y3268979D01*
X2814421Y3268979D01*
X2817672Y3262376D01*
X2825292Y3250996D01*
X2834335Y3240735D01*
X2844596Y3231692D01*
X2855976Y3224072D01*
G37*
G36*
X2954020Y3220821D02*
G01*
X2960624Y3224072D01*
X2972003Y3231692D01*
X2982264Y3240735D01*
X2991307Y3250996D01*
X2998927Y3262376D01*
X3002178Y3268979D01*
X2954020Y3268979D01*
G37*
G36*
X3923233Y3223717D02*
G01*
X3923233Y3276041D01*
X3870858Y3276041D01*
X3876751Y3265271D01*
X3885285Y3253536D01*
X3895293Y3242919D01*
X3906469Y3233623D01*
X3918762Y3225850D01*
G37*
G36*
X5537250Y3223717D02*
G01*
X5541721Y3225850D01*
X5554014Y3233623D01*
X5565241Y3242919D01*
X5575198Y3253536D01*
X5583732Y3265271D01*
X5589676Y3276041D01*
X5537250Y3276041D01*
G37*
G36*
X4025950Y3223717D02*
G01*
X4030421Y3225850D01*
X4042714Y3233623D01*
X4053941Y3242919D01*
X4063898Y3253536D01*
X4072432Y3265271D01*
X4078376Y3276041D01*
X4025950Y3276041D01*
G37*
G36*
X5434533Y3223717D02*
G01*
X5434533Y3276041D01*
X5382158Y3276041D01*
X5388051Y3265271D01*
X5396585Y3253536D01*
X5406593Y3242919D01*
X5417769Y3233623D01*
X5430062Y3225850D01*
G37*
G36*
X5885180Y3233521D02*
G01*
X5885180Y3281679D01*
X5837021Y3281679D01*
X5840272Y3275076D01*
X5847892Y3263696D01*
X5856935Y3253435D01*
X5867196Y3244392D01*
X5878576Y3236772D01*
G37*
G36*
X4427220Y3233521D02*
G01*
X4433824Y3236772D01*
X4445203Y3244392D01*
X4455464Y3253435D01*
X4464507Y3263696D01*
X4472127Y3275076D01*
X4475378Y3281679D01*
X4427220Y3281679D01*
G37*
G36*
X4335780Y3233521D02*
G01*
X4335780Y3281679D01*
X4287621Y3281679D01*
X4290872Y3275076D01*
X4298492Y3263696D01*
X4307535Y3253435D01*
X4317796Y3244392D01*
X4329176Y3236772D01*
G37*
G36*
X5976620Y3233521D02*
G01*
X5983224Y3236772D01*
X5994603Y3244392D01*
X6004864Y3253435D01*
X6013907Y3263696D01*
X6021527Y3275076D01*
X6024778Y3281679D01*
X5976620Y3281679D01*
G37*
G36*
X7269480Y3233521D02*
G01*
X7269480Y3281679D01*
X7221321Y3281679D01*
X7224572Y3275076D01*
X7232192Y3263696D01*
X7241235Y3253435D01*
X7251496Y3244392D01*
X7262875Y3236772D01*
G37*
G36*
X7360920Y3233521D02*
G01*
X7367524Y3236772D01*
X7378903Y3244392D01*
X7389164Y3253435D01*
X7398207Y3263696D01*
X7405827Y3275076D01*
X7409078Y3281679D01*
X7360920Y3281679D01*
G37*
G36*
X2814421Y3360420D02*
G01*
X2862580Y3360420D01*
X2862580Y3408578D01*
X2855976Y3405327D01*
X2844596Y3397707D01*
X2834335Y3388664D01*
X2825292Y3378403D01*
X2817672Y3367024D01*
G37*
G36*
X2954020Y3360420D02*
G01*
X3002178Y3360420D01*
X2998927Y3367024D01*
X2991307Y3378403D01*
X2982264Y3388664D01*
X2972003Y3397707D01*
X2960624Y3405327D01*
X2954020Y3408578D01*
G37*
G36*
X5837021Y3373120D02*
G01*
X5885180Y3373120D01*
X5885180Y3421278D01*
X5878576Y3418027D01*
X5867196Y3410407D01*
X5856935Y3401364D01*
X5847892Y3391103D01*
X5840272Y3379724D01*
G37*
G36*
X4427220Y3373120D02*
G01*
X4475378Y3373120D01*
X4472127Y3379724D01*
X4464507Y3391103D01*
X4455464Y3401364D01*
X4445203Y3410407D01*
X4433824Y3418027D01*
X4427220Y3421278D01*
G37*
G36*
X5976620Y3373120D02*
G01*
X6024778Y3373120D01*
X6021527Y3379724D01*
X6013907Y3391103D01*
X6004864Y3401364D01*
X5994603Y3410407D01*
X5983224Y3418027D01*
X5976620Y3421278D01*
G37*
G36*
X7221321Y3373120D02*
G01*
X7269480Y3373120D01*
X7269480Y3421278D01*
X7262875Y3418027D01*
X7251496Y3410407D01*
X7241235Y3401364D01*
X7232192Y3391103D01*
X7224572Y3379724D01*
G37*
G36*
X4287621Y3373120D02*
G01*
X4335780Y3373120D01*
X4335780Y3421278D01*
X4329176Y3418027D01*
X4317796Y3410407D01*
X4307535Y3401364D01*
X4298492Y3391103D01*
X4290872Y3379724D01*
G37*
G36*
X7360920Y3373120D02*
G01*
X7409078Y3373120D01*
X7405827Y3379724D01*
X7398207Y3391103D01*
X7389164Y3401364D01*
X7378903Y3410407D01*
X7367524Y3418027D01*
X7360920Y3421278D01*
G37*
G36*
X5537250Y3378758D02*
G01*
X5589676Y3378758D01*
X5583732Y3389477D01*
X5575198Y3401263D01*
X5565241Y3411880D01*
X5554014Y3421126D01*
X5541721Y3428949D01*
X5537250Y3431032D01*
G37*
G36*
X5382158Y3378758D02*
G01*
X5434533Y3378758D01*
X5434533Y3431032D01*
X5430062Y3428949D01*
X5417769Y3421126D01*
X5406593Y3411880D01*
X5396585Y3401263D01*
X5388051Y3389477D01*
G37*
G36*
X3870858Y3378758D02*
G01*
X3923233Y3378758D01*
X3923233Y3431032D01*
X3918762Y3428949D01*
X3906469Y3421126D01*
X3895293Y3411880D01*
X3885285Y3401263D01*
X3876751Y3389477D01*
G37*
G36*
X4025950Y3378758D02*
G01*
X4078376Y3378758D01*
X4072432Y3389477D01*
X4063898Y3401263D01*
X4053941Y3411880D01*
X4042714Y3421126D01*
X4030421Y3428949D01*
X4025950Y3431032D01*
G37*
G36*
X2844800Y3499612D02*
G01*
X2859532Y3500526D01*
X2874060Y3503269D01*
X2888081Y3507740D01*
X2901492Y3513886D01*
X2914040Y3521659D01*
X2925572Y3530904D01*
X2935833Y3541522D01*
X2944723Y3553307D01*
X2952089Y3566058D01*
X2957830Y3579672D01*
X2961894Y3593846D01*
X2964180Y3608425D01*
X2964586Y3623208D01*
X2963265Y3637889D01*
X2960116Y3652316D01*
X2955188Y3666236D01*
X2948584Y3679444D01*
X2940456Y3691737D01*
X2930855Y3702964D01*
X2919933Y3712870D01*
X2907893Y3721404D01*
X2894888Y3728415D01*
X2881122Y3733749D01*
X2866847Y3737305D01*
X2852166Y3739134D01*
X2837434Y3739134D01*
X2822752Y3737305D01*
X2808478Y3733749D01*
X2794711Y3728415D01*
X2781706Y3721404D01*
X2769666Y3712870D01*
X2758744Y3702964D01*
X2749143Y3691737D01*
X2741015Y3679444D01*
X2734411Y3666236D01*
X2729484Y3652316D01*
X2726334Y3637889D01*
X2725013Y3623208D01*
X2725420Y3608425D01*
X2727706Y3593846D01*
X2731770Y3579672D01*
X2737510Y3566058D01*
X2744876Y3553307D01*
X2753766Y3541522D01*
X2764028Y3530904D01*
X2775559Y3521659D01*
X2788107Y3513886D01*
X2801518Y3507740D01*
X2815539Y3503269D01*
X2830068Y3500526D01*
G37*
G36*
X6680200Y3499612D02*
G01*
X6694931Y3500526D01*
X6709460Y3503269D01*
X6723481Y3507740D01*
X6736892Y3513886D01*
X6749440Y3521659D01*
X6760972Y3530904D01*
X6771233Y3541522D01*
X6780123Y3553307D01*
X6787489Y3566058D01*
X6793230Y3579672D01*
X6797294Y3593846D01*
X6799580Y3608425D01*
X6800037Y3623208D01*
X6798665Y3637889D01*
X6795516Y3652316D01*
X6790588Y3666236D01*
X6783984Y3679444D01*
X6775856Y3691737D01*
X6766255Y3702964D01*
X6755333Y3712870D01*
X6743293Y3721404D01*
X6730288Y3728415D01*
X6716522Y3733749D01*
X6702247Y3737305D01*
X6687566Y3739134D01*
X6672834Y3739134D01*
X6658152Y3737305D01*
X6643878Y3733749D01*
X6630111Y3728415D01*
X6617106Y3721404D01*
X6605066Y3712870D01*
X6594144Y3702964D01*
X6584543Y3691737D01*
X6576415Y3679444D01*
X6569811Y3666236D01*
X6564884Y3652316D01*
X6561734Y3637889D01*
X6560413Y3623208D01*
X6560820Y3608425D01*
X6563106Y3593846D01*
X6567170Y3579672D01*
X6572910Y3566058D01*
X6580276Y3553307D01*
X6589166Y3541522D01*
X6599428Y3530904D01*
X6610959Y3521659D01*
X6623507Y3513886D01*
X6636918Y3507740D01*
X6650939Y3503269D01*
X6665468Y3500526D01*
G37*
G36*
X3721100Y3499612D02*
G01*
X3735832Y3500526D01*
X3750360Y3503269D01*
X3764381Y3507740D01*
X3777792Y3513886D01*
X3790340Y3521659D01*
X3801872Y3530904D01*
X3812133Y3541522D01*
X3821023Y3553307D01*
X3828389Y3566058D01*
X3834129Y3579672D01*
X3838194Y3593846D01*
X3840479Y3608425D01*
X3840886Y3623208D01*
X3839565Y3637889D01*
X3836415Y3652316D01*
X3831488Y3666236D01*
X3824884Y3679444D01*
X3816756Y3691737D01*
X3807155Y3702964D01*
X3796233Y3712870D01*
X3784193Y3721404D01*
X3771188Y3728415D01*
X3757422Y3733749D01*
X3743147Y3737305D01*
X3728465Y3739134D01*
X3713734Y3739134D01*
X3699052Y3737305D01*
X3684778Y3733749D01*
X3671011Y3728415D01*
X3658006Y3721404D01*
X3645966Y3712870D01*
X3635044Y3702964D01*
X3625443Y3691737D01*
X3617315Y3679444D01*
X3610711Y3666236D01*
X3605784Y3652316D01*
X3602634Y3637889D01*
X3601313Y3623208D01*
X3601720Y3608425D01*
X3604006Y3593846D01*
X3608070Y3579672D01*
X3613810Y3566058D01*
X3621176Y3553307D01*
X3630066Y3541522D01*
X3640328Y3530904D01*
X3651859Y3521659D01*
X3664407Y3513886D01*
X3677818Y3507740D01*
X3691839Y3503269D01*
X3706368Y3500526D01*
G37*
G36*
X5994400Y3499612D02*
G01*
X6009132Y3500526D01*
X6023660Y3503269D01*
X6037681Y3507740D01*
X6051092Y3513886D01*
X6063640Y3521659D01*
X6075172Y3530904D01*
X6085433Y3541522D01*
X6094323Y3553307D01*
X6101689Y3566058D01*
X6107430Y3579672D01*
X6111494Y3593846D01*
X6113780Y3608425D01*
X6114237Y3623208D01*
X6112865Y3637889D01*
X6109716Y3652316D01*
X6104788Y3666236D01*
X6098184Y3679444D01*
X6090056Y3691737D01*
X6080455Y3702964D01*
X6069533Y3712870D01*
X6057493Y3721404D01*
X6044488Y3728415D01*
X6030722Y3733749D01*
X6016447Y3737305D01*
X6001766Y3739134D01*
X5987034Y3739134D01*
X5972352Y3737305D01*
X5958078Y3733749D01*
X5944311Y3728415D01*
X5931306Y3721404D01*
X5919266Y3712870D01*
X5908344Y3702964D01*
X5898743Y3691737D01*
X5890615Y3679444D01*
X5884011Y3666236D01*
X5879084Y3652316D01*
X5875934Y3637889D01*
X5874613Y3623208D01*
X5875020Y3608425D01*
X5877306Y3593846D01*
X5881370Y3579672D01*
X5887110Y3566058D01*
X5894476Y3553307D01*
X5903366Y3541522D01*
X5913628Y3530904D01*
X5925159Y3521659D01*
X5937707Y3513886D01*
X5951118Y3507740D01*
X5965139Y3503269D01*
X5979668Y3500526D01*
G37*
G36*
X5245100Y3499612D02*
G01*
X5259832Y3500526D01*
X5274360Y3503269D01*
X5288381Y3507740D01*
X5301792Y3513886D01*
X5314340Y3521659D01*
X5325872Y3530904D01*
X5336133Y3541522D01*
X5345023Y3553307D01*
X5352389Y3566058D01*
X5358130Y3579672D01*
X5362194Y3593846D01*
X5364480Y3608425D01*
X5364937Y3623208D01*
X5363565Y3637889D01*
X5360416Y3652316D01*
X5355488Y3666236D01*
X5348884Y3679444D01*
X5340756Y3691737D01*
X5331155Y3702964D01*
X5320233Y3712870D01*
X5308193Y3721404D01*
X5295188Y3728415D01*
X5281422Y3733749D01*
X5267147Y3737305D01*
X5252466Y3739134D01*
X5237734Y3739134D01*
X5223052Y3737305D01*
X5208778Y3733749D01*
X5195011Y3728415D01*
X5182006Y3721404D01*
X5169966Y3712870D01*
X5159044Y3702964D01*
X5149443Y3691737D01*
X5141315Y3679444D01*
X5134711Y3666236D01*
X5129784Y3652316D01*
X5126634Y3637889D01*
X5125313Y3623208D01*
X5125720Y3608425D01*
X5128006Y3593846D01*
X5132070Y3579672D01*
X5137810Y3566058D01*
X5145176Y3553307D01*
X5154066Y3541522D01*
X5164328Y3530904D01*
X5175859Y3521659D01*
X5188407Y3513886D01*
X5201818Y3507740D01*
X5215839Y3503269D01*
X5230368Y3500526D01*
G37*
G36*
X2095500Y3499612D02*
G01*
X2110232Y3500526D01*
X2124760Y3503269D01*
X2138781Y3507740D01*
X2152192Y3513886D01*
X2164740Y3521659D01*
X2176272Y3530904D01*
X2186533Y3541522D01*
X2195423Y3553307D01*
X2202789Y3566058D01*
X2208530Y3579672D01*
X2212594Y3593846D01*
X2214880Y3608425D01*
X2215286Y3623208D01*
X2213965Y3637889D01*
X2210816Y3652316D01*
X2205888Y3666236D01*
X2199284Y3679444D01*
X2191156Y3691737D01*
X2181555Y3702964D01*
X2170633Y3712870D01*
X2158593Y3721404D01*
X2145588Y3728415D01*
X2131822Y3733749D01*
X2117547Y3737305D01*
X2102866Y3739134D01*
X2088134Y3739134D01*
X2073452Y3737305D01*
X2059178Y3733749D01*
X2045411Y3728415D01*
X2032406Y3721404D01*
X2020366Y3712870D01*
X2009444Y3702964D01*
X1999843Y3691737D01*
X1991715Y3679444D01*
X1985111Y3666236D01*
X1980184Y3652316D01*
X1977034Y3637889D01*
X1975713Y3623208D01*
X1976120Y3608425D01*
X1978406Y3593846D01*
X1982470Y3579672D01*
X1988210Y3566058D01*
X1995576Y3553307D01*
X2004466Y3541522D01*
X2014728Y3530904D01*
X2026259Y3521659D01*
X2038807Y3513886D01*
X2052218Y3507740D01*
X2066239Y3503269D01*
X2080768Y3500526D01*
G37*
G36*
X4463034Y3499865D02*
G01*
X4477766Y3499865D01*
X4492447Y3501694D01*
X4506722Y3505250D01*
X4520488Y3510584D01*
X4533493Y3517595D01*
X4545533Y3526129D01*
X4556455Y3536035D01*
X4566056Y3547262D01*
X4574184Y3559556D01*
X4580788Y3572764D01*
X4585716Y3586683D01*
X4588865Y3601110D01*
X4590237Y3615791D01*
X4589780Y3630574D01*
X4587494Y3645154D01*
X4583430Y3659327D01*
X4577689Y3672941D01*
X4570323Y3685692D01*
X4561433Y3697478D01*
X4551172Y3708095D01*
X4539640Y3717340D01*
X4527092Y3725113D01*
X4513681Y3731260D01*
X4499660Y3735730D01*
X4485132Y3738473D01*
X4470400Y3739387D01*
X4455668Y3738473D01*
X4441139Y3735730D01*
X4427118Y3731260D01*
X4413707Y3725113D01*
X4401159Y3717340D01*
X4389628Y3708095D01*
X4379366Y3697478D01*
X4370476Y3685692D01*
X4363110Y3672941D01*
X4357370Y3659327D01*
X4353306Y3645154D01*
X4351020Y3630574D01*
X4350613Y3615791D01*
X4351934Y3601110D01*
X4355084Y3586683D01*
X4360011Y3572764D01*
X4366615Y3559556D01*
X4374743Y3547262D01*
X4384344Y3536035D01*
X4395266Y3526129D01*
X4407306Y3517595D01*
X4420311Y3510584D01*
X4434078Y3505250D01*
X4448352Y3501694D01*
G37*
G36*
X7422134Y3499865D02*
G01*
X7436866Y3499865D01*
X7451547Y3501694D01*
X7465822Y3505250D01*
X7479588Y3510584D01*
X7492593Y3517595D01*
X7504633Y3526129D01*
X7515555Y3536035D01*
X7525156Y3547262D01*
X7533284Y3559556D01*
X7539888Y3572764D01*
X7544816Y3586683D01*
X7547965Y3601110D01*
X7549337Y3615791D01*
X7548880Y3630574D01*
X7546594Y3645154D01*
X7542530Y3659327D01*
X7536789Y3672941D01*
X7529423Y3685692D01*
X7520533Y3697478D01*
X7510272Y3708095D01*
X7498740Y3717340D01*
X7486192Y3725113D01*
X7472781Y3731260D01*
X7458760Y3735730D01*
X7444231Y3738473D01*
X7429500Y3739387D01*
X7414768Y3738473D01*
X7400239Y3735730D01*
X7386218Y3731260D01*
X7372807Y3725113D01*
X7360259Y3717340D01*
X7348728Y3708095D01*
X7338466Y3697478D01*
X7329576Y3685692D01*
X7322210Y3672941D01*
X7316470Y3659327D01*
X7312406Y3645154D01*
X7310120Y3630574D01*
X7309713Y3615791D01*
X7311034Y3601110D01*
X7314184Y3586683D01*
X7319111Y3572764D01*
X7325715Y3559556D01*
X7333843Y3547262D01*
X7343444Y3536035D01*
X7354366Y3526129D01*
X7366406Y3517595D01*
X7379411Y3510584D01*
X7393178Y3505250D01*
X7407452Y3501694D01*
G37*
G36*
X5600700Y3652824D02*
G01*
X5615228Y3653739D01*
X5629503Y3656431D01*
X5643372Y3660952D01*
X5656529Y3667150D01*
X5668822Y3674922D01*
X5680049Y3684219D01*
X5690006Y3694836D01*
X5698540Y3706622D01*
X5705551Y3719372D01*
X5710936Y3732885D01*
X5714542Y3746957D01*
X5716371Y3761435D01*
X5716371Y3775964D01*
X5714542Y3790391D01*
X5710936Y3804513D01*
X5705551Y3818026D01*
X5698540Y3830777D01*
X5690006Y3842562D01*
X5680049Y3853179D01*
X5668822Y3862425D01*
X5656529Y3870248D01*
X5643372Y3876446D01*
X5629503Y3880916D01*
X5615228Y3883660D01*
X5600700Y3884574D01*
X5586171Y3883660D01*
X5571896Y3880916D01*
X5558028Y3876446D01*
X5544870Y3870248D01*
X5532577Y3862425D01*
X5521350Y3853179D01*
X5511393Y3842562D01*
X5502859Y3830777D01*
X5495848Y3818026D01*
X5490464Y3804513D01*
X5486857Y3790391D01*
X5485028Y3775964D01*
X5485028Y3761435D01*
X5486857Y3746957D01*
X5490464Y3732885D01*
X5495848Y3719372D01*
X5502859Y3706622D01*
X5511393Y3694836D01*
X5521350Y3684219D01*
X5532577Y3674922D01*
X5544870Y3667150D01*
X5558028Y3660952D01*
X5571896Y3656431D01*
X5586171Y3653739D01*
G37*
G36*
X4076700Y3652824D02*
G01*
X4091228Y3653739D01*
X4105503Y3656431D01*
X4119372Y3660952D01*
X4132529Y3667150D01*
X4144822Y3674922D01*
X4156049Y3684219D01*
X4166006Y3694836D01*
X4174540Y3706622D01*
X4181551Y3719372D01*
X4186936Y3732885D01*
X4190542Y3746957D01*
X4192371Y3761435D01*
X4192371Y3775964D01*
X4190542Y3790391D01*
X4186936Y3804513D01*
X4181551Y3818026D01*
X4174540Y3830777D01*
X4166006Y3842562D01*
X4156049Y3853179D01*
X4144822Y3862425D01*
X4132529Y3870248D01*
X4119372Y3876446D01*
X4105503Y3880916D01*
X4091228Y3883660D01*
X4076700Y3884574D01*
X4062171Y3883660D01*
X4047896Y3880916D01*
X4034028Y3876446D01*
X4020870Y3870248D01*
X4008577Y3862425D01*
X3997350Y3853179D01*
X3987393Y3842562D01*
X3978859Y3830777D01*
X3971848Y3818026D01*
X3966464Y3804513D01*
X3962857Y3790391D01*
X3961028Y3775964D01*
X3961028Y3761435D01*
X3962857Y3746957D01*
X3966464Y3732885D01*
X3971848Y3719372D01*
X3978859Y3706622D01*
X3987393Y3694836D01*
X3997350Y3684219D01*
X4008577Y3674922D01*
X4020870Y3667150D01*
X4034028Y3660952D01*
X4047896Y3656431D01*
X4062171Y3653739D01*
G37*
G36*
X2489200Y3652824D02*
G01*
X2503728Y3653739D01*
X2518003Y3656431D01*
X2531872Y3660952D01*
X2545029Y3667150D01*
X2557322Y3674922D01*
X2568549Y3684219D01*
X2578506Y3694836D01*
X2587040Y3706622D01*
X2594051Y3719372D01*
X2599436Y3732885D01*
X2603042Y3746957D01*
X2604871Y3761435D01*
X2604871Y3775964D01*
X2603042Y3790391D01*
X2599436Y3804513D01*
X2594051Y3818026D01*
X2587040Y3830777D01*
X2578506Y3842562D01*
X2568549Y3853179D01*
X2557322Y3862425D01*
X2545029Y3870248D01*
X2531872Y3876446D01*
X2518003Y3880916D01*
X2503728Y3883660D01*
X2489200Y3884574D01*
X2474671Y3883660D01*
X2460396Y3880916D01*
X2446528Y3876446D01*
X2433370Y3870248D01*
X2421077Y3862425D01*
X2409850Y3853179D01*
X2399893Y3842562D01*
X2391359Y3830777D01*
X2384348Y3818026D01*
X2378964Y3804513D01*
X2375357Y3790391D01*
X2373528Y3775964D01*
X2373528Y3761435D01*
X2375357Y3746957D01*
X2378964Y3732885D01*
X2384348Y3719372D01*
X2391359Y3706622D01*
X2399893Y3694836D01*
X2409850Y3684219D01*
X2421077Y3674922D01*
X2433370Y3667150D01*
X2446528Y3660952D01*
X2460396Y3656431D01*
X2474671Y3653739D01*
G37*
G36*
X7086600Y3652824D02*
G01*
X7101128Y3653739D01*
X7115403Y3656431D01*
X7129272Y3660952D01*
X7142429Y3667150D01*
X7154722Y3674922D01*
X7165949Y3684219D01*
X7175906Y3694836D01*
X7184440Y3706622D01*
X7191451Y3719372D01*
X7196836Y3732885D01*
X7200442Y3746957D01*
X7202271Y3761435D01*
X7202271Y3775964D01*
X7200442Y3790391D01*
X7196836Y3804513D01*
X7191451Y3818026D01*
X7184440Y3830777D01*
X7175906Y3842562D01*
X7165949Y3853179D01*
X7154722Y3862425D01*
X7142429Y3870248D01*
X7129272Y3876446D01*
X7115403Y3880916D01*
X7101128Y3883660D01*
X7086600Y3884574D01*
X7072071Y3883660D01*
X7057796Y3880916D01*
X7043928Y3876446D01*
X7030770Y3870248D01*
X7018477Y3862425D01*
X7007250Y3853179D01*
X6997293Y3842562D01*
X6988759Y3830777D01*
X6981748Y3818026D01*
X6976364Y3804513D01*
X6972757Y3790391D01*
X6970928Y3775964D01*
X6970928Y3761435D01*
X6972757Y3746957D01*
X6976364Y3732885D01*
X6981748Y3719372D01*
X6988759Y3706622D01*
X6997293Y3694836D01*
X7007250Y3684219D01*
X7018477Y3674922D01*
X7030770Y3667150D01*
X7043928Y3660952D01*
X7057796Y3656431D01*
X7072071Y3653739D01*
G37*
G36*
X7988300Y4264507D02*
G01*
X8004098Y4265422D01*
X8019643Y4268165D01*
X8034781Y4272686D01*
X8049310Y4278985D01*
X8062975Y4286859D01*
X8075625Y4296308D01*
X8087156Y4307128D01*
X8097316Y4319270D01*
X8106003Y4332478D01*
X8113064Y4346600D01*
X8118500Y4361434D01*
X8122107Y4376826D01*
X8123936Y4392523D01*
X8123936Y4408322D01*
X8122107Y4424019D01*
X8118500Y4439361D01*
X8113064Y4454245D01*
X8106003Y4468368D01*
X8097316Y4481525D01*
X8087156Y4493666D01*
X8075625Y4504486D01*
X8062975Y4513935D01*
X8049310Y4521860D01*
X8034781Y4528108D01*
X8019643Y4532630D01*
X8004098Y4535373D01*
X7988300Y4536287D01*
X7972501Y4535373D01*
X7956956Y4532630D01*
X7941818Y4528108D01*
X7927289Y4521860D01*
X7913624Y4513935D01*
X7900974Y4504486D01*
X7889443Y4493666D01*
X7879283Y4481525D01*
X7870596Y4468368D01*
X7863535Y4454245D01*
X7858099Y4439361D01*
X7854492Y4424019D01*
X7852664Y4408322D01*
X7852664Y4392523D01*
X7854492Y4376826D01*
X7858099Y4361434D01*
X7863535Y4346600D01*
X7870596Y4332478D01*
X7879283Y4319270D01*
X7889443Y4307128D01*
X7900974Y4296308D01*
X7913624Y4286859D01*
X7927289Y4278985D01*
X7941818Y4272686D01*
X7956956Y4268165D01*
X7972501Y4265422D01*
G37*
G36*
X8674100Y4408830D02*
G01*
X8692184Y4409744D01*
X8710066Y4412538D01*
X8727592Y4417161D01*
X8744559Y4423511D01*
X8760714Y4431639D01*
X8776004Y4441342D01*
X8790228Y4452569D01*
X8803182Y4465218D01*
X8814765Y4479137D01*
X8824874Y4494174D01*
X8833408Y4510125D01*
X8840216Y4526889D01*
X8845296Y4544314D01*
X8848547Y4562094D01*
X8849918Y4580178D01*
X8849461Y4598263D01*
X8847124Y4616246D01*
X8843010Y4633874D01*
X8837015Y4650943D01*
X8829344Y4667351D01*
X8820048Y4682896D01*
X8809177Y4697374D01*
X8796883Y4710684D01*
X8783269Y4722622D01*
X8768486Y4733137D01*
X8752738Y4742027D01*
X8736126Y4749292D01*
X8718905Y4754778D01*
X8701176Y4758486D01*
X8683142Y4760366D01*
X8665057Y4760366D01*
X8647023Y4758486D01*
X8629294Y4754778D01*
X8612073Y4749292D01*
X8595461Y4742027D01*
X8579713Y4733137D01*
X8564930Y4722622D01*
X8551316Y4710684D01*
X8539022Y4697374D01*
X8528151Y4682896D01*
X8518855Y4667351D01*
X8511184Y4650943D01*
X8505190Y4633874D01*
X8501075Y4616246D01*
X8498738Y4598263D01*
X8498281Y4580178D01*
X8499652Y4562094D01*
X8502904Y4544314D01*
X8507984Y4526889D01*
X8514791Y4510125D01*
X8523325Y4494174D01*
X8533434Y4479137D01*
X8545017Y4465218D01*
X8557971Y4452569D01*
X8572195Y4441342D01*
X8587486Y4431639D01*
X8603640Y4423511D01*
X8620607Y4417161D01*
X8638133Y4412538D01*
X8656015Y4409744D01*
G37*
G36*
X5245100Y4515612D02*
G01*
X5259832Y4516526D01*
X5274360Y4519269D01*
X5288381Y4523740D01*
X5301792Y4529886D01*
X5314340Y4537659D01*
X5325872Y4546904D01*
X5336133Y4557522D01*
X5345023Y4569307D01*
X5352389Y4582058D01*
X5358130Y4595672D01*
X5362194Y4609846D01*
X5364480Y4624425D01*
X5364937Y4639208D01*
X5363565Y4653889D01*
X5360416Y4668316D01*
X5355488Y4682236D01*
X5348884Y4695444D01*
X5340756Y4707737D01*
X5331155Y4718964D01*
X5320233Y4728870D01*
X5308193Y4737404D01*
X5295188Y4744415D01*
X5281422Y4749749D01*
X5267147Y4753305D01*
X5252466Y4755134D01*
X5237734Y4755134D01*
X5223052Y4753305D01*
X5208778Y4749749D01*
X5195011Y4744415D01*
X5182006Y4737404D01*
X5169966Y4728870D01*
X5159044Y4718964D01*
X5149443Y4707737D01*
X5141315Y4695444D01*
X5134711Y4682236D01*
X5129784Y4668316D01*
X5126634Y4653889D01*
X5125313Y4639208D01*
X5125720Y4624425D01*
X5128006Y4609846D01*
X5132070Y4595672D01*
X5137810Y4582058D01*
X5145176Y4569307D01*
X5154066Y4557522D01*
X5164328Y4546904D01*
X5175859Y4537659D01*
X5188407Y4529886D01*
X5201818Y4523740D01*
X5215839Y4519269D01*
X5230368Y4516526D01*
G37*
G36*
X6680200Y4515612D02*
G01*
X6694931Y4516526D01*
X6709460Y4519269D01*
X6723481Y4523740D01*
X6736892Y4529886D01*
X6749440Y4537659D01*
X6760972Y4546904D01*
X6771233Y4557522D01*
X6780123Y4569307D01*
X6787489Y4582058D01*
X6793230Y4595672D01*
X6797294Y4609846D01*
X6799580Y4624425D01*
X6800037Y4639208D01*
X6798665Y4653889D01*
X6795516Y4668316D01*
X6790588Y4682236D01*
X6783984Y4695444D01*
X6775856Y4707737D01*
X6766255Y4718964D01*
X6755333Y4728870D01*
X6743293Y4737404D01*
X6730288Y4744415D01*
X6716522Y4749749D01*
X6702247Y4753305D01*
X6687566Y4755134D01*
X6672834Y4755134D01*
X6658152Y4753305D01*
X6643878Y4749749D01*
X6630111Y4744415D01*
X6617106Y4737404D01*
X6605066Y4728870D01*
X6594144Y4718964D01*
X6584543Y4707737D01*
X6576415Y4695444D01*
X6569811Y4682236D01*
X6564884Y4668316D01*
X6561734Y4653889D01*
X6560413Y4639208D01*
X6560820Y4624425D01*
X6563106Y4609846D01*
X6567170Y4595672D01*
X6572910Y4582058D01*
X6580276Y4569307D01*
X6589166Y4557522D01*
X6599428Y4546904D01*
X6610959Y4537659D01*
X6623507Y4529886D01*
X6636918Y4523740D01*
X6650939Y4519269D01*
X6665468Y4516526D01*
G37*
G36*
X5994400Y4515612D02*
G01*
X6009132Y4516526D01*
X6023660Y4519269D01*
X6037681Y4523740D01*
X6051092Y4529886D01*
X6063640Y4537659D01*
X6075172Y4546904D01*
X6085433Y4557522D01*
X6094323Y4569307D01*
X6101689Y4582058D01*
X6107430Y4595672D01*
X6111494Y4609846D01*
X6113780Y4624425D01*
X6114237Y4639208D01*
X6112865Y4653889D01*
X6109716Y4668316D01*
X6104788Y4682236D01*
X6098184Y4695444D01*
X6090056Y4707737D01*
X6080455Y4718964D01*
X6069533Y4728870D01*
X6057493Y4737404D01*
X6044488Y4744415D01*
X6030722Y4749749D01*
X6016447Y4753305D01*
X6001766Y4755134D01*
X5987034Y4755134D01*
X5972352Y4753305D01*
X5958078Y4749749D01*
X5944311Y4744415D01*
X5931306Y4737404D01*
X5919266Y4728870D01*
X5908344Y4718964D01*
X5898743Y4707737D01*
X5890615Y4695444D01*
X5884011Y4682236D01*
X5879084Y4668316D01*
X5875934Y4653889D01*
X5874613Y4639208D01*
X5875020Y4624425D01*
X5877306Y4609846D01*
X5881370Y4595672D01*
X5887110Y4582058D01*
X5894476Y4569307D01*
X5903366Y4557522D01*
X5913628Y4546904D01*
X5925159Y4537659D01*
X5937707Y4529886D01*
X5951118Y4523740D01*
X5965139Y4519269D01*
X5979668Y4516526D01*
G37*
G36*
X2095500Y4515612D02*
G01*
X2110232Y4516526D01*
X2124760Y4519269D01*
X2138781Y4523740D01*
X2152192Y4529886D01*
X2164740Y4537659D01*
X2176272Y4546904D01*
X2186533Y4557522D01*
X2195423Y4569307D01*
X2202789Y4582058D01*
X2208530Y4595672D01*
X2212594Y4609846D01*
X2214880Y4624425D01*
X2215286Y4639208D01*
X2213965Y4653889D01*
X2210816Y4668316D01*
X2205888Y4682236D01*
X2199284Y4695444D01*
X2191156Y4707737D01*
X2181555Y4718964D01*
X2170633Y4728870D01*
X2158593Y4737404D01*
X2145588Y4744415D01*
X2131822Y4749749D01*
X2117547Y4753305D01*
X2102866Y4755134D01*
X2088134Y4755134D01*
X2073452Y4753305D01*
X2059178Y4749749D01*
X2045411Y4744415D01*
X2032406Y4737404D01*
X2020366Y4728870D01*
X2009444Y4718964D01*
X1999843Y4707737D01*
X1991715Y4695444D01*
X1985111Y4682236D01*
X1980184Y4668316D01*
X1977034Y4653889D01*
X1975713Y4639208D01*
X1976120Y4624425D01*
X1978406Y4609846D01*
X1982470Y4595672D01*
X1988210Y4582058D01*
X1995576Y4569307D01*
X2004466Y4557522D01*
X2014728Y4546904D01*
X2026259Y4537659D01*
X2038807Y4529886D01*
X2052218Y4523740D01*
X2066239Y4519269D01*
X2080768Y4516526D01*
G37*
G36*
X3721100Y4515612D02*
G01*
X3735832Y4516526D01*
X3750360Y4519269D01*
X3764381Y4523740D01*
X3777792Y4529886D01*
X3790340Y4537659D01*
X3801872Y4546904D01*
X3812133Y4557522D01*
X3821023Y4569307D01*
X3828389Y4582058D01*
X3834129Y4595672D01*
X3838194Y4609846D01*
X3840479Y4624425D01*
X3840886Y4639208D01*
X3839565Y4653889D01*
X3836415Y4668316D01*
X3831488Y4682236D01*
X3824884Y4695444D01*
X3816756Y4707737D01*
X3807155Y4718964D01*
X3796233Y4728870D01*
X3784193Y4737404D01*
X3771188Y4744415D01*
X3757422Y4749749D01*
X3743147Y4753305D01*
X3728465Y4755134D01*
X3713734Y4755134D01*
X3699052Y4753305D01*
X3684778Y4749749D01*
X3671011Y4744415D01*
X3658006Y4737404D01*
X3645966Y4728870D01*
X3635044Y4718964D01*
X3625443Y4707737D01*
X3617315Y4695444D01*
X3610711Y4682236D01*
X3605784Y4668316D01*
X3602634Y4653889D01*
X3601313Y4639208D01*
X3601720Y4624425D01*
X3604006Y4609846D01*
X3608070Y4595672D01*
X3613810Y4582058D01*
X3621176Y4569307D01*
X3630066Y4557522D01*
X3640328Y4546904D01*
X3651859Y4537659D01*
X3664407Y4529886D01*
X3677818Y4523740D01*
X3691839Y4519269D01*
X3706368Y4516526D01*
G37*
G36*
X4463034Y4515866D02*
G01*
X4477766Y4515866D01*
X4492447Y4517694D01*
X4506722Y4521250D01*
X4520488Y4526584D01*
X4533493Y4533595D01*
X4545533Y4542129D01*
X4556455Y4552035D01*
X4566056Y4563262D01*
X4574184Y4575556D01*
X4580788Y4588764D01*
X4585716Y4602683D01*
X4588865Y4617110D01*
X4590237Y4631791D01*
X4589780Y4646574D01*
X4587494Y4661154D01*
X4583430Y4675327D01*
X4577689Y4688941D01*
X4570323Y4701692D01*
X4561433Y4713478D01*
X4551172Y4724095D01*
X4539640Y4733340D01*
X4527092Y4741113D01*
X4513681Y4747260D01*
X4499660Y4751730D01*
X4485132Y4754473D01*
X4470400Y4755388D01*
X4455668Y4754473D01*
X4441139Y4751730D01*
X4427118Y4747260D01*
X4413707Y4741113D01*
X4401159Y4733340D01*
X4389628Y4724095D01*
X4379366Y4713478D01*
X4370476Y4701692D01*
X4363110Y4688941D01*
X4357370Y4675327D01*
X4353306Y4661154D01*
X4351020Y4646574D01*
X4350613Y4631791D01*
X4351934Y4617110D01*
X4355084Y4602683D01*
X4360011Y4588764D01*
X4366615Y4575556D01*
X4374743Y4563262D01*
X4384344Y4552035D01*
X4395266Y4542129D01*
X4407306Y4533595D01*
X4420311Y4526584D01*
X4434078Y4521250D01*
X4448352Y4517694D01*
G37*
G36*
X5600700Y4522825D02*
G01*
X5615228Y4523740D01*
X5629503Y4526483D01*
X5643372Y4530953D01*
X5656529Y4537151D01*
X5668822Y4544974D01*
X5680049Y4554220D01*
X5690006Y4564837D01*
X5698540Y4576622D01*
X5705551Y4589373D01*
X5710936Y4602886D01*
X5714542Y4617008D01*
X5716371Y4631436D01*
X5716371Y4645964D01*
X5714542Y4660442D01*
X5710936Y4674514D01*
X5705551Y4688027D01*
X5698540Y4700778D01*
X5690006Y4712563D01*
X5680049Y4723180D01*
X5668822Y4732477D01*
X5656529Y4740249D01*
X5643372Y4746447D01*
X5629503Y4750968D01*
X5615228Y4753660D01*
X5600700Y4754575D01*
X5586171Y4753660D01*
X5571896Y4750968D01*
X5558028Y4746447D01*
X5544870Y4740249D01*
X5532577Y4732477D01*
X5521350Y4723180D01*
X5511393Y4712563D01*
X5502859Y4700778D01*
X5495848Y4688027D01*
X5490464Y4674514D01*
X5486857Y4660442D01*
X5485028Y4645964D01*
X5485028Y4631436D01*
X5486857Y4617008D01*
X5490464Y4602886D01*
X5495848Y4589373D01*
X5502859Y4576622D01*
X5511393Y4564837D01*
X5521350Y4554220D01*
X5532577Y4544974D01*
X5544870Y4537151D01*
X5558028Y4530953D01*
X5571896Y4526483D01*
X5586171Y4523740D01*
G37*
G36*
X4076700Y4522825D02*
G01*
X4091228Y4523740D01*
X4105503Y4526483D01*
X4119372Y4530953D01*
X4132529Y4537151D01*
X4144822Y4544974D01*
X4156049Y4554220D01*
X4166006Y4564837D01*
X4174540Y4576622D01*
X4181551Y4589373D01*
X4186936Y4602886D01*
X4190542Y4617008D01*
X4192371Y4631436D01*
X4192371Y4645964D01*
X4190542Y4660442D01*
X4186936Y4674514D01*
X4181551Y4688027D01*
X4174540Y4700778D01*
X4166006Y4712563D01*
X4156049Y4723180D01*
X4144822Y4732477D01*
X4132529Y4740249D01*
X4119372Y4746447D01*
X4105503Y4750968D01*
X4091228Y4753660D01*
X4076700Y4754575D01*
X4062171Y4753660D01*
X4047896Y4750968D01*
X4034028Y4746447D01*
X4020870Y4740249D01*
X4008577Y4732477D01*
X3997350Y4723180D01*
X3987393Y4712563D01*
X3978859Y4700778D01*
X3971848Y4688027D01*
X3966464Y4674514D01*
X3962857Y4660442D01*
X3961028Y4645964D01*
X3961028Y4631436D01*
X3962857Y4617008D01*
X3966464Y4602886D01*
X3971848Y4589373D01*
X3978859Y4576622D01*
X3987393Y4564837D01*
X3997350Y4554220D01*
X4008577Y4544974D01*
X4020870Y4537151D01*
X4034028Y4530953D01*
X4047896Y4526483D01*
X4062171Y4523740D01*
G37*
G36*
X7376159Y4528362D02*
G01*
X7376159Y4582160D01*
X7322413Y4582160D01*
X7325715Y4575556D01*
X7333843Y4563262D01*
X7343444Y4552035D01*
X7354366Y4542129D01*
X7366406Y4533595D01*
G37*
G36*
X7482840Y4528362D02*
G01*
X7492593Y4533595D01*
X7504633Y4542129D01*
X7515555Y4552035D01*
X7525156Y4563262D01*
X7533284Y4575556D01*
X7536586Y4582160D01*
X7482840Y4582160D01*
G37*
G36*
X2898140Y4528362D02*
G01*
X2901492Y4529886D01*
X2914040Y4537659D01*
X2925572Y4546904D01*
X2935833Y4557522D01*
X2944723Y4569307D01*
X2952140Y4582160D01*
X2898140Y4582160D01*
G37*
G36*
X2791460Y4528362D02*
G01*
X2791460Y4582160D01*
X2737459Y4582160D01*
X2744876Y4569307D01*
X2753766Y4557522D01*
X2764028Y4546904D01*
X2775559Y4537659D01*
X2788107Y4529886D01*
G37*
G36*
X2540558Y4535068D02*
G01*
X2545029Y4537151D01*
X2557322Y4544974D01*
X2568549Y4554220D01*
X2578506Y4564837D01*
X2587040Y4576622D01*
X2592933Y4587341D01*
X2540558Y4587341D01*
G37*
G36*
X7035241Y4535068D02*
G01*
X7035241Y4587341D01*
X6982866Y4587341D01*
X6988759Y4576622D01*
X6997293Y4564837D01*
X7007250Y4554220D01*
X7018477Y4544974D01*
X7030770Y4537151D01*
G37*
G36*
X2437841Y4535068D02*
G01*
X2437841Y4587341D01*
X2385466Y4587341D01*
X2391359Y4576622D01*
X2399893Y4564837D01*
X2409850Y4554220D01*
X2421077Y4544974D01*
X2433370Y4537151D01*
G37*
G36*
X7137958Y4535068D02*
G01*
X7142429Y4537151D01*
X7154722Y4544974D01*
X7165949Y4554220D01*
X7175906Y4564837D01*
X7184440Y4576622D01*
X7190333Y4587341D01*
X7137958Y4587341D01*
G37*
G36*
X2898140Y4688840D02*
G01*
X2951886Y4688840D01*
X2948584Y4695444D01*
X2940456Y4707737D01*
X2930855Y4718964D01*
X2919933Y4728870D01*
X2907893Y4737404D01*
X2898140Y4742637D01*
G37*
G36*
X2737713Y4688840D02*
G01*
X2791460Y4688840D01*
X2791460Y4742637D01*
X2781706Y4737404D01*
X2769666Y4728870D01*
X2758744Y4718964D01*
X2749143Y4707737D01*
X2741015Y4695444D01*
G37*
G36*
X7482840Y4688840D02*
G01*
X7536840Y4688840D01*
X7529423Y4701692D01*
X7520533Y4713478D01*
X7510272Y4724095D01*
X7498740Y4733340D01*
X7486192Y4741113D01*
X7482840Y4742637D01*
G37*
G36*
X7322159Y4688840D02*
G01*
X7376159Y4688840D01*
X7376159Y4742637D01*
X7372807Y4741113D01*
X7360259Y4733340D01*
X7348728Y4724095D01*
X7338466Y4713478D01*
X7329576Y4701692D01*
G37*
G36*
X2540558Y4690059D02*
G01*
X2592933Y4690059D01*
X2587040Y4700778D01*
X2578506Y4712563D01*
X2568549Y4723180D01*
X2557322Y4732477D01*
X2545029Y4740249D01*
X2540558Y4742383D01*
G37*
G36*
X6982866Y4690059D02*
G01*
X7035241Y4690059D01*
X7035241Y4742383D01*
X7030770Y4740249D01*
X7018477Y4732477D01*
X7007250Y4723180D01*
X6997293Y4712563D01*
X6988759Y4700778D01*
G37*
G36*
X7137958Y4690059D02*
G01*
X7190333Y4690059D01*
X7184440Y4700778D01*
X7175906Y4712563D01*
X7165949Y4723180D01*
X7154722Y4732477D01*
X7142429Y4740249D01*
X7137958Y4742383D01*
G37*
G36*
X2385466Y4690059D02*
G01*
X2437841Y4690059D01*
X2437841Y4742383D01*
X2433370Y4740249D01*
X2421077Y4732477D01*
X2409850Y4723180D01*
X2399893Y4712563D01*
X2391359Y4700778D01*
G37*
G36*
X4221784Y4822240D02*
G01*
X4236364Y4822240D01*
X4250791Y4824069D01*
X4264914Y4827676D01*
X4278426Y4833061D01*
X4291177Y4840071D01*
X4302963Y4848606D01*
X4313580Y4858562D01*
X4322826Y4869789D01*
X4330649Y4882083D01*
X4336846Y4895240D01*
X4341317Y4909058D01*
X4344060Y4923383D01*
X4344974Y4938217D01*
X4344974Y5017566D01*
X4344060Y5032400D01*
X4341317Y5046726D01*
X4336846Y5060543D01*
X4330649Y5073751D01*
X4322826Y5085994D01*
X4313580Y5097221D01*
X4302963Y5107178D01*
X4291177Y5115763D01*
X4278426Y5122773D01*
X4264914Y5128107D01*
X4250791Y5131714D01*
X4236364Y5133543D01*
X4221784Y5133543D01*
X4207357Y5131714D01*
X4193286Y5128107D01*
X4179722Y5122773D01*
X4166971Y5115763D01*
X4155236Y5107178D01*
X4144619Y5097221D01*
X4135323Y5085994D01*
X4127550Y5073751D01*
X4121353Y5060543D01*
X4116832Y5046726D01*
X4114088Y5032400D01*
X4113174Y5017566D01*
X4113174Y4938217D01*
X4114088Y4923383D01*
X4116832Y4909058D01*
X4121353Y4895240D01*
X4127550Y4882083D01*
X4135323Y4869789D01*
X4144619Y4858562D01*
X4155236Y4848606D01*
X4166971Y4840071D01*
X4179722Y4833061D01*
X4193286Y4827676D01*
X4207357Y4824069D01*
G37*
G36*
X5745784Y4822240D02*
G01*
X5760364Y4822240D01*
X5774791Y4824069D01*
X5788914Y4827676D01*
X5802426Y4833061D01*
X5815177Y4840071D01*
X5826963Y4848606D01*
X5837580Y4858562D01*
X5846826Y4869789D01*
X5854649Y4882083D01*
X5860846Y4895240D01*
X5865317Y4909058D01*
X5868060Y4923383D01*
X5868974Y4938217D01*
X5868974Y5017566D01*
X5868060Y5032400D01*
X5865317Y5046726D01*
X5860846Y5060543D01*
X5854649Y5073751D01*
X5846826Y5085994D01*
X5837580Y5097221D01*
X5826963Y5107178D01*
X5815177Y5115763D01*
X5802426Y5122773D01*
X5788914Y5128107D01*
X5774791Y5131714D01*
X5760364Y5133543D01*
X5745784Y5133543D01*
X5731357Y5131714D01*
X5717286Y5128107D01*
X5703722Y5122773D01*
X5690971Y5115763D01*
X5679236Y5107178D01*
X5668619Y5097221D01*
X5659323Y5085994D01*
X5651550Y5073751D01*
X5645353Y5060543D01*
X5640832Y5046726D01*
X5638088Y5032400D01*
X5637174Y5017566D01*
X5637174Y4938217D01*
X5638088Y4923383D01*
X5640832Y4909058D01*
X5645353Y4895240D01*
X5651550Y4882083D01*
X5659323Y4869789D01*
X5668619Y4858562D01*
X5679236Y4848606D01*
X5690971Y4840071D01*
X5703722Y4833061D01*
X5717286Y4827676D01*
X5731357Y4824069D01*
G37*
G36*
X3631641Y4823002D02*
G01*
X3810508Y4823002D01*
X3816858Y4823714D01*
X3822293Y4825593D01*
X3827221Y4828692D01*
X3831285Y4832807D01*
X3834384Y4837684D01*
X3836314Y4843170D01*
X3837025Y4849469D01*
X3837025Y5108346D01*
X3836314Y5114645D01*
X3834384Y5120132D01*
X3831285Y5125008D01*
X3827221Y5129123D01*
X3822293Y5132171D01*
X3816858Y5134102D01*
X3810508Y5134813D01*
X3631641Y5134813D01*
X3625342Y5134102D01*
X3619906Y5132171D01*
X3614978Y5129123D01*
X3610914Y5125008D01*
X3607815Y5120132D01*
X3605885Y5114645D01*
X3605174Y5108346D01*
X3605174Y4849469D01*
X3605885Y4843170D01*
X3607815Y4837684D01*
X3610914Y4832807D01*
X3614978Y4828692D01*
X3619906Y4825593D01*
X3625342Y4823714D01*
G37*
G36*
X6692341Y4823002D02*
G01*
X6871208Y4823002D01*
X6877558Y4823714D01*
X6882993Y4825593D01*
X6887921Y4828692D01*
X6891985Y4832807D01*
X6895084Y4837684D01*
X6897014Y4843170D01*
X6897725Y4849469D01*
X6897725Y5108346D01*
X6897014Y5114645D01*
X6895084Y5120132D01*
X6891985Y5125008D01*
X6887921Y5129123D01*
X6882993Y5132171D01*
X6877558Y5134102D01*
X6871208Y5134813D01*
X6692341Y5134813D01*
X6686042Y5134102D01*
X6680606Y5132171D01*
X6675678Y5129123D01*
X6671614Y5125008D01*
X6668516Y5120132D01*
X6666585Y5114645D01*
X6665874Y5108346D01*
X6665874Y4849469D01*
X6666585Y4843170D01*
X6668516Y4837684D01*
X6671614Y4832807D01*
X6675678Y4828692D01*
X6680606Y4825593D01*
X6686042Y4823714D01*
G37*
G36*
X5155641Y4823002D02*
G01*
X5334508Y4823002D01*
X5340858Y4823714D01*
X5346293Y4825593D01*
X5351221Y4828692D01*
X5355285Y4832807D01*
X5358384Y4837684D01*
X5360314Y4843170D01*
X5361025Y4849469D01*
X5361025Y5108346D01*
X5360314Y5114645D01*
X5358384Y5120132D01*
X5355285Y5125008D01*
X5351221Y5129123D01*
X5346293Y5132171D01*
X5340858Y5134102D01*
X5334508Y5134813D01*
X5155641Y5134813D01*
X5149342Y5134102D01*
X5143906Y5132171D01*
X5138978Y5129123D01*
X5134914Y5125008D01*
X5131816Y5120132D01*
X5129885Y5114645D01*
X5129174Y5108346D01*
X5129174Y4849469D01*
X5129885Y4843170D01*
X5131816Y4837684D01*
X5134914Y4832807D01*
X5138978Y4828692D01*
X5143906Y4825593D01*
X5149342Y4823714D01*
G37*
G36*
X2107641Y4823002D02*
G01*
X2286508Y4823002D01*
X2292858Y4823714D01*
X2298293Y4825593D01*
X2303221Y4828692D01*
X2307285Y4832807D01*
X2310384Y4837684D01*
X2312314Y4843170D01*
X2313025Y4849469D01*
X2313025Y5108346D01*
X2312314Y5114645D01*
X2310384Y5120132D01*
X2307285Y5125008D01*
X2303221Y5129123D01*
X2298293Y5132171D01*
X2292858Y5134102D01*
X2286508Y5134813D01*
X2107641Y5134813D01*
X2101342Y5134102D01*
X2095906Y5132171D01*
X2090978Y5129123D01*
X2086914Y5125008D01*
X2083816Y5120132D01*
X2081885Y5114645D01*
X2081174Y5108346D01*
X2081174Y4849469D01*
X2081885Y4843170D01*
X2083816Y4837684D01*
X2086914Y4832807D01*
X2090978Y4828692D01*
X2095906Y4825593D01*
X2101342Y4823714D01*
G37*
G36*
X3967835Y4823256D02*
G01*
X3982364Y4823256D01*
X3996791Y4825085D01*
X4010914Y4828692D01*
X4024426Y4834026D01*
X4037177Y4841036D01*
X4048963Y4849622D01*
X4059580Y4859578D01*
X4068826Y4870805D01*
X4076649Y4883048D01*
X4082846Y4896256D01*
X4087317Y4910074D01*
X4090060Y4924348D01*
X4091025Y4939233D01*
X4091025Y5018582D01*
X4090060Y5033416D01*
X4087317Y5047742D01*
X4082846Y5061559D01*
X4076649Y5074716D01*
X4068826Y5087010D01*
X4059580Y5098237D01*
X4048963Y5108194D01*
X4037177Y5116728D01*
X4024426Y5123738D01*
X4010914Y5129123D01*
X3996791Y5132730D01*
X3982364Y5134559D01*
X3967835Y5134559D01*
X3953357Y5132730D01*
X3939286Y5129123D01*
X3925773Y5123738D01*
X3913022Y5116728D01*
X3901236Y5108194D01*
X3890619Y5098237D01*
X3881323Y5087010D01*
X3873550Y5074716D01*
X3867353Y5061559D01*
X3862832Y5047742D01*
X3860139Y5033416D01*
X3859174Y5018582D01*
X3859174Y4939233D01*
X3860139Y4924348D01*
X3862832Y4910074D01*
X3867353Y4896256D01*
X3873550Y4883048D01*
X3881323Y4870805D01*
X3890619Y4859578D01*
X3901236Y4849622D01*
X3913022Y4841036D01*
X3925773Y4834026D01*
X3939286Y4828692D01*
X3953357Y4825085D01*
G37*
G36*
X5491835Y4823256D02*
G01*
X5506364Y4823256D01*
X5520791Y4825085D01*
X5534914Y4828692D01*
X5548426Y4834026D01*
X5561177Y4841036D01*
X5572963Y4849622D01*
X5583580Y4859578D01*
X5592826Y4870805D01*
X5600649Y4883048D01*
X5606846Y4896256D01*
X5611317Y4910074D01*
X5614060Y4924348D01*
X5615025Y4939233D01*
X5615025Y5018582D01*
X5614060Y5033416D01*
X5611317Y5047742D01*
X5606846Y5061559D01*
X5600649Y5074716D01*
X5592826Y5087010D01*
X5583580Y5098237D01*
X5572963Y5108194D01*
X5561177Y5116728D01*
X5548426Y5123738D01*
X5534914Y5129123D01*
X5520791Y5132730D01*
X5506364Y5134559D01*
X5491835Y5134559D01*
X5477357Y5132730D01*
X5463286Y5129123D01*
X5449773Y5123738D01*
X5437022Y5116728D01*
X5425236Y5108194D01*
X5414619Y5098237D01*
X5405323Y5087010D01*
X5397550Y5074716D01*
X5391353Y5061559D01*
X5386832Y5047742D01*
X5384139Y5033416D01*
X5383174Y5018582D01*
X5383174Y4939233D01*
X5384139Y4924348D01*
X5386832Y4910074D01*
X5391353Y4896256D01*
X5397550Y4883048D01*
X5405323Y4870805D01*
X5414619Y4859578D01*
X5425236Y4849622D01*
X5437022Y4841036D01*
X5449773Y4834026D01*
X5463286Y4828692D01*
X5477357Y4825085D01*
G37*
G36*
X7028535Y4823256D02*
G01*
X7043064Y4823256D01*
X7057491Y4825085D01*
X7071614Y4828692D01*
X7085126Y4834026D01*
X7097877Y4841036D01*
X7109663Y4849622D01*
X7120280Y4859578D01*
X7129525Y4870805D01*
X7137349Y4883048D01*
X7143546Y4896256D01*
X7148017Y4910074D01*
X7150760Y4924348D01*
X7151725Y4939233D01*
X7151725Y5018582D01*
X7150760Y5033416D01*
X7148017Y5047742D01*
X7143546Y5061559D01*
X7137349Y5074716D01*
X7129525Y5087010D01*
X7120280Y5098237D01*
X7109663Y5108194D01*
X7097877Y5116728D01*
X7085126Y5123738D01*
X7071614Y5129123D01*
X7057491Y5132730D01*
X7043064Y5134559D01*
X7028535Y5134559D01*
X7014057Y5132730D01*
X6999986Y5129123D01*
X6986473Y5123738D01*
X6973722Y5116728D01*
X6961936Y5108194D01*
X6951319Y5098237D01*
X6942023Y5087010D01*
X6934250Y5074716D01*
X6928053Y5061559D01*
X6923531Y5047742D01*
X6920839Y5033416D01*
X6919874Y5018582D01*
X6919874Y4939233D01*
X6920839Y4924348D01*
X6923531Y4910074D01*
X6928053Y4896256D01*
X6934250Y4883048D01*
X6942023Y4870805D01*
X6951319Y4859578D01*
X6961936Y4849622D01*
X6973722Y4841036D01*
X6986473Y4834026D01*
X6999986Y4828692D01*
X7014057Y4825085D01*
G37*
G36*
X2443835Y4823256D02*
G01*
X2458364Y4823256D01*
X2472791Y4825085D01*
X2486914Y4828692D01*
X2500426Y4834026D01*
X2513177Y4841036D01*
X2524963Y4849622D01*
X2535580Y4859578D01*
X2544826Y4870805D01*
X2552649Y4883048D01*
X2558846Y4896256D01*
X2563317Y4910074D01*
X2566060Y4924348D01*
X2567025Y4939233D01*
X2567025Y5018582D01*
X2566060Y5033416D01*
X2563317Y5047742D01*
X2558846Y5061559D01*
X2552649Y5074716D01*
X2544826Y5087010D01*
X2535580Y5098237D01*
X2524963Y5108194D01*
X2513177Y5116728D01*
X2500426Y5123738D01*
X2486914Y5129123D01*
X2472791Y5132730D01*
X2458364Y5134559D01*
X2443835Y5134559D01*
X2429357Y5132730D01*
X2415286Y5129123D01*
X2401773Y5123738D01*
X2389022Y5116728D01*
X2377236Y5108194D01*
X2366619Y5098237D01*
X2357323Y5087010D01*
X2349550Y5074716D01*
X2343353Y5061559D01*
X2338832Y5047742D01*
X2336139Y5033416D01*
X2335174Y5018582D01*
X2335174Y4939233D01*
X2336139Y4924348D01*
X2338832Y4910074D01*
X2343353Y4896256D01*
X2349550Y4883048D01*
X2357323Y4870805D01*
X2366619Y4859578D01*
X2377236Y4849622D01*
X2389022Y4841036D01*
X2401773Y4834026D01*
X2415286Y4828692D01*
X2429357Y4825085D01*
G37*
G36*
X2653741Y4834128D02*
G01*
X2653741Y4906568D01*
X2593644Y4906568D01*
X2597353Y4895240D01*
X2603550Y4882083D01*
X2611323Y4869789D01*
X2620619Y4858562D01*
X2631236Y4848606D01*
X2642971Y4840071D01*
G37*
G36*
X2756408Y4834128D02*
G01*
X2767177Y4840071D01*
X2778963Y4848606D01*
X2789580Y4858562D01*
X2798826Y4869789D01*
X2806649Y4882083D01*
X2812846Y4895240D01*
X2816504Y4906568D01*
X2756408Y4906568D01*
G37*
G36*
X7238441Y4834128D02*
G01*
X7238441Y4906568D01*
X7178344Y4906568D01*
X7182053Y4895240D01*
X7188250Y4882083D01*
X7196023Y4869789D01*
X7205319Y4858562D01*
X7215936Y4848606D01*
X7227671Y4840071D01*
G37*
G36*
X7341108Y4834128D02*
G01*
X7351877Y4840071D01*
X7363663Y4848606D01*
X7374280Y4858562D01*
X7383525Y4869789D01*
X7391349Y4882083D01*
X7397546Y4895240D01*
X7401204Y4906568D01*
X7341108Y4906568D01*
G37*
G36*
X7978394Y4936032D02*
G01*
X7992211Y4936896D01*
X8005775Y4939639D01*
X8018932Y4944059D01*
X8031327Y4950206D01*
X8042859Y4957876D01*
X8053273Y4967020D01*
X8062417Y4977434D01*
X8070088Y4988966D01*
X8076234Y5001361D01*
X8080654Y5014518D01*
X8083397Y5028082D01*
X8084261Y5041900D01*
X8083397Y5055717D01*
X8080654Y5069281D01*
X8076234Y5082438D01*
X8070088Y5094833D01*
X8062417Y5106365D01*
X8053273Y5116779D01*
X8042859Y5125923D01*
X8031327Y5133594D01*
X8018932Y5139740D01*
X8005775Y5144160D01*
X7992211Y5146903D01*
X7978394Y5147767D01*
X7964576Y5146903D01*
X7951012Y5144160D01*
X7937855Y5139740D01*
X7925460Y5133594D01*
X7913928Y5125923D01*
X7903514Y5116779D01*
X7894370Y5106365D01*
X7886700Y5094833D01*
X7880553Y5082438D01*
X7876133Y5069281D01*
X7873390Y5055717D01*
X7872526Y5041900D01*
X7873390Y5028082D01*
X7876133Y5014518D01*
X7880553Y5001361D01*
X7886700Y4988966D01*
X7894370Y4977434D01*
X7903514Y4967020D01*
X7913928Y4957876D01*
X7925460Y4950206D01*
X7937855Y4944059D01*
X7951012Y4939639D01*
X7964576Y4936896D01*
G37*
G36*
X8282076Y4946954D02*
G01*
X8282076Y4995570D01*
X8233460Y4995570D01*
X8236712Y4988966D01*
X8244382Y4977434D01*
X8253526Y4967020D01*
X8263940Y4957876D01*
X8275472Y4950206D01*
G37*
G36*
X8374735Y4946954D02*
G01*
X8381339Y4950206D01*
X8392871Y4957876D01*
X8403285Y4967020D01*
X8412429Y4977434D01*
X8420100Y4988966D01*
X8423351Y4995570D01*
X8374735Y4995570D01*
G37*
G36*
X2756408Y5049266D02*
G01*
X2816504Y5049266D01*
X2812846Y5060543D01*
X2806649Y5073751D01*
X2798826Y5085994D01*
X2789580Y5097221D01*
X2778963Y5107178D01*
X2767177Y5115763D01*
X2756408Y5121656D01*
G37*
G36*
X2593644Y5049266D02*
G01*
X2653741Y5049266D01*
X2653741Y5121656D01*
X2642971Y5115763D01*
X2631236Y5107178D01*
X2620619Y5097221D01*
X2611323Y5085994D01*
X2603550Y5073751D01*
X2597353Y5060543D01*
G37*
G36*
X7178344Y5049266D02*
G01*
X7238441Y5049266D01*
X7238441Y5121656D01*
X7227671Y5115763D01*
X7215936Y5107178D01*
X7205319Y5097221D01*
X7196023Y5085994D01*
X7188250Y5073751D01*
X7182053Y5060543D01*
G37*
G36*
X7341108Y5049266D02*
G01*
X7401204Y5049266D01*
X7397546Y5060543D01*
X7391349Y5073751D01*
X7383525Y5085994D01*
X7374280Y5097221D01*
X7363663Y5107178D01*
X7351877Y5115763D01*
X7341108Y5121656D01*
G37*
G36*
X8374735Y5088229D02*
G01*
X8423351Y5088229D01*
X8420100Y5094833D01*
X8412429Y5106365D01*
X8403285Y5116779D01*
X8392871Y5125923D01*
X8381339Y5133594D01*
X8374735Y5136845D01*
G37*
G36*
X8233460Y5088229D02*
G01*
X8282076Y5088229D01*
X8282076Y5136845D01*
X8275472Y5133594D01*
X8263940Y5125923D01*
X8253526Y5116779D01*
X8244382Y5106365D01*
X8236712Y5094833D01*
G37*

%LPD*%
G36*
X9067139Y2420061D02*
G01*
X9011412Y2318715D01*
X8893962Y2318715D01*
X8864193Y2268677D01*
X8855303Y2253132D01*
X8848598Y2240584D01*
X8844889Y2232609D01*
X8844381Y2230831D01*
X8844788Y2230221D01*
X8846007Y2229662D01*
X8850934Y2228697D01*
X8859266Y2227884D01*
X8871051Y2227224D01*
X8905443Y2226360D01*
X8954668Y2226056D01*
X9000540Y2226360D01*
X9035288Y2227224D01*
X9047937Y2227834D01*
X9057284Y2228545D01*
X9062974Y2229408D01*
X9064447Y2229866D01*
X9064955Y2230323D01*
X9064447Y2231999D01*
X9060789Y2239568D01*
X9054236Y2251557D01*
X9020556Y2308656D01*
X9016898Y2315413D01*
X9016441Y2316683D01*
X9017558Y2317089D01*
X9026144Y2317800D01*
X9041485Y2318359D01*
X9061704Y2318664D01*
X9129776Y2318715D01*
X9248800Y2119782D01*
X9279940Y2068830D01*
X9299346Y2037994D01*
X9303613Y2032050D01*
X9304528Y2032914D01*
X9306356Y2035302D01*
X9311944Y2044090D01*
X9319514Y2056739D01*
X9336633Y2087016D01*
X9344406Y2101342D01*
X9350298Y2112975D01*
X9353499Y2120188D01*
X9353194Y2121966D01*
X9349333Y2130958D01*
X9341510Y2146554D01*
X9330232Y2167788D01*
X9316059Y2193747D01*
X9299448Y2223516D01*
X9280855Y2256180D01*
X9186265Y2419807D01*
G37*
G36*
X9120124Y2160981D02*
G01*
X9113062Y2160879D01*
X9106408Y2160371D01*
X9100261Y2159406D01*
X9094622Y2158085D01*
X9089390Y2156256D01*
X9084665Y2154072D01*
X9080449Y2151430D01*
X9076639Y2148382D01*
X9073337Y2144928D01*
X9070543Y2141067D01*
X9068155Y2136749D01*
X9066276Y2132025D01*
X9064904Y2126843D01*
X9063939Y2121306D01*
X9063482Y2115312D01*
X9063532Y2108911D01*
X9064193Y2099767D01*
X9065361Y2091943D01*
X9067088Y2085492D01*
X9069324Y2080514D01*
X9071965Y2076957D01*
X9075013Y2074976D01*
X9078468Y2074621D01*
X9082278Y2075891D01*
X9086240Y2078888D01*
X9088374Y2083358D01*
X9088882Y2090318D01*
X9087205Y2111400D01*
X9087764Y2118664D01*
X9089898Y2123643D01*
X9093809Y2127504D01*
X9098330Y2130552D01*
X9101886Y2132279D01*
X9104528Y2132482D01*
X9106458Y2131009D01*
X9107779Y2127707D01*
X9108592Y2122373D01*
X9108960Y2113584D01*
X9131147Y2113584D01*
X9131249Y2120798D01*
X9131604Y2126234D01*
X9132366Y2129993D01*
X9133586Y2132076D01*
X9135364Y2132685D01*
X9137853Y2131822D01*
X9141053Y2129586D01*
X9145117Y2126132D01*
X9150756Y2119630D01*
X9152788Y2113432D01*
X9151315Y2107184D01*
X9146235Y2100630D01*
X9142323Y2097074D01*
X9139123Y2094941D01*
X9136481Y2094230D01*
X9134449Y2094992D01*
X9132925Y2097278D01*
X9131909Y2101088D01*
X9131300Y2106523D01*
X9131147Y2113584D01*
X9108960Y2113584D01*
X9109202Y2097176D01*
X9109710Y2090470D01*
X9110522Y2084781D01*
X9111792Y2080006D01*
X9113520Y2076145D01*
X9115755Y2073097D01*
X9118498Y2070862D01*
X9121902Y2069338D01*
X9125915Y2068525D01*
X9130639Y2068372D01*
X9136075Y2068779D01*
X9142272Y2069744D01*
X9147759Y2071166D01*
X9152788Y2073249D01*
X9157360Y2075891D01*
X9161424Y2079091D01*
X9165031Y2082749D01*
X9168130Y2086864D01*
X9170670Y2091385D01*
X9172651Y2096262D01*
X9174073Y2101392D01*
X9174937Y2106726D01*
X9175191Y2112264D01*
X9174784Y2117902D01*
X9173768Y2123643D01*
X9172092Y2129383D01*
X9169755Y2135124D01*
X9166707Y2140762D01*
X9163100Y2146096D01*
X9159240Y2150465D01*
X9155023Y2153970D01*
X9150146Y2156612D01*
X9144457Y2158542D01*
X9137700Y2159863D01*
X9129674Y2160625D01*
G37*
G36*
X9120124Y2056485D02*
G01*
X9113875Y2056434D01*
X9107627Y2055926D01*
X9101531Y2054961D01*
X9095587Y2053539D01*
X9089898Y2051608D01*
X9084513Y2049221D01*
X9079534Y2046376D01*
X9074861Y2042515D01*
X9070848Y2037486D01*
X9067546Y2031542D01*
X9064955Y2024888D01*
X9063278Y2017775D01*
X9062466Y2010410D01*
X9062669Y2003043D01*
X9063888Y1995932D01*
X9066276Y1988616D01*
X9069425Y1983892D01*
X9073794Y1981149D01*
X9080093Y1979777D01*
X9087053Y1979269D01*
X9090406Y1980641D01*
X9091015Y1985162D01*
X9089593Y1993950D01*
X9088932Y2001113D01*
X9089644Y2007616D01*
X9091676Y2013356D01*
X9095028Y2018233D01*
X9099499Y2022195D01*
X9105087Y2025091D01*
X9111691Y2026920D01*
X9119260Y2027529D01*
X9126982Y2027123D01*
X9133433Y2025904D01*
X9138716Y2023770D01*
X9142831Y2020824D01*
X9145778Y2016912D01*
X9147606Y2012086D01*
X9148318Y2006295D01*
X9147352Y1990801D01*
X9148267Y1985467D01*
X9151213Y1982419D01*
X9156750Y1980488D01*
X9161373Y1979726D01*
X9165285Y1980031D01*
X9168434Y1981504D01*
X9170974Y1984197D01*
X9172854Y1988108D01*
X9174124Y1993392D01*
X9174886Y2000046D01*
X9175191Y2008174D01*
X9174632Y2016709D01*
X9172905Y2024634D01*
X9170060Y2031746D01*
X9166199Y2037892D01*
X9162796Y2041550D01*
X9158833Y2044852D01*
X9154312Y2047748D01*
X9149334Y2050288D01*
X9144000Y2052370D01*
X9138310Y2054047D01*
X9132417Y2055317D01*
X9126321Y2056130D01*
G37*
G36*
X9064955Y1961388D02*
G01*
X9064955Y1930501D01*
X9110624Y1930400D01*
X9118549Y1930146D01*
X9125305Y1929638D01*
X9131046Y1928926D01*
X9135821Y1927910D01*
X9139732Y1926589D01*
X9142780Y1924913D01*
X9145168Y1922881D01*
X9146844Y1920443D01*
X9147962Y1917547D01*
X9148572Y1914143D01*
X9148775Y1910232D01*
X9148572Y1907438D01*
X9147860Y1904949D01*
X9146590Y1902815D01*
X9144660Y1901037D01*
X9142018Y1899513D01*
X9138564Y1898243D01*
X9134246Y1897278D01*
X9129014Y1896516D01*
X9122714Y1895906D01*
X9106763Y1895348D01*
X9064955Y1895195D01*
X9064955Y1868728D01*
X9124950Y1868779D01*
X9135872Y1869033D01*
X9144457Y1869490D01*
X9151112Y1870252D01*
X9156242Y1871370D01*
X9160256Y1872894D01*
X9163507Y1874926D01*
X9166402Y1877517D01*
X9169603Y1881835D01*
X9172143Y1887372D01*
X9174022Y1893620D01*
X9175089Y1900174D01*
X9175343Y1906524D01*
X9174784Y1912162D01*
X9173260Y1916633D01*
X9170822Y1919427D01*
X9167723Y1921814D01*
X9166301Y1923948D01*
X9166504Y1925828D01*
X9168333Y1927453D01*
X9171736Y1928723D01*
X9176613Y1929688D01*
X9182963Y1930298D01*
X9190685Y1930501D01*
X9214967Y1930501D01*
X9214967Y1961388D01*
G37*
G36*
X9064396Y1846630D02*
G01*
X9067139Y1817979D01*
X9114129Y1815084D01*
X9122410Y1814322D01*
X9129166Y1813458D01*
X9134551Y1812442D01*
X9138767Y1811172D01*
X9142018Y1809699D01*
X9144406Y1807921D01*
X9146082Y1805838D01*
X9148064Y1801875D01*
X9148724Y1798116D01*
X9148064Y1794408D01*
X9146082Y1790395D01*
X9144355Y1788261D01*
X9142018Y1786534D01*
X9138818Y1785112D01*
X9134602Y1783943D01*
X9129115Y1783080D01*
X9122156Y1782368D01*
X9103106Y1781403D01*
X9064955Y1780133D01*
X9064955Y1754022D01*
X9124950Y1754073D01*
X9135872Y1754327D01*
X9144457Y1754784D01*
X9151112Y1755546D01*
X9156242Y1756664D01*
X9160256Y1758188D01*
X9163507Y1760220D01*
X9166402Y1762810D01*
X9169908Y1767332D01*
X9172498Y1772716D01*
X9174124Y1778762D01*
X9174784Y1785213D01*
X9174530Y1791817D01*
X9173260Y1798370D01*
X9171076Y1804619D01*
X9165285Y1814423D01*
X9164116Y1817522D01*
X9164269Y1819503D01*
X9167825Y1821230D01*
X9169400Y1824075D01*
X9170416Y1828292D01*
X9170822Y1833422D01*
X9170822Y1846630D01*
G37*
G36*
X9139529Y1732330D02*
G01*
X9133027Y1732127D01*
X9126575Y1731619D01*
X9120225Y1730857D01*
X9114028Y1729790D01*
X9107982Y1728419D01*
X9102191Y1726793D01*
X9096705Y1724863D01*
X9091574Y1722678D01*
X9086799Y1720138D01*
X9082430Y1717395D01*
X9078569Y1714296D01*
X9075166Y1710943D01*
X9072422Y1707337D01*
X9070805Y1704441D01*
X9132620Y1704441D01*
X9133332Y1706016D01*
X9135008Y1707337D01*
X9139224Y1708556D01*
X9145574Y1708708D01*
X9153398Y1707997D01*
X9161932Y1706473D01*
X9170517Y1704390D01*
X9178391Y1701800D01*
X9184843Y1698955D01*
X9189161Y1695957D01*
X9195003Y1689100D01*
X9196781Y1683257D01*
X9194546Y1677263D01*
X9188246Y1669948D01*
X9179204Y1660906D01*
X9149029Y1686255D01*
X9142577Y1691893D01*
X9137853Y1696364D01*
X9134754Y1699818D01*
X9133027Y1702409D01*
X9132620Y1704441D01*
X9070805Y1704441D01*
X9070238Y1703425D01*
X9067698Y1697024D01*
X9066022Y1690725D01*
X9065107Y1684578D01*
X9084310Y1684578D01*
X9084614Y1688033D01*
X9085783Y1691284D01*
X9087815Y1694180D01*
X9090761Y1696669D01*
X9094622Y1698650D01*
X9097213Y1699310D01*
X9099956Y1699158D01*
X9103156Y1698091D01*
X9107068Y1695907D01*
X9111894Y1692402D01*
X9117939Y1687474D01*
X9134754Y1672539D01*
X9149384Y1659178D01*
X9133078Y1657756D01*
X9125712Y1657604D01*
X9117787Y1658315D01*
X9110167Y1659737D01*
X9103918Y1661668D01*
X9098940Y1664106D01*
X9094673Y1667002D01*
X9091066Y1670202D01*
X9088221Y1673656D01*
X9086138Y1677263D01*
X9084818Y1680972D01*
X9084310Y1684578D01*
X9065107Y1684578D01*
X9065056Y1678686D01*
X9065818Y1672996D01*
X9067342Y1667510D01*
X9069679Y1662226D01*
X9072778Y1657299D01*
X9076639Y1652625D01*
X9081262Y1648256D01*
X9086646Y1644243D01*
X9092793Y1640636D01*
X9096908Y1638757D01*
X9101734Y1637182D01*
X9107220Y1635810D01*
X9113215Y1634693D01*
X9126321Y1633220D01*
X9133281Y1632864D01*
X9147454Y1632864D01*
X9161221Y1633880D01*
X9167774Y1634744D01*
X9173921Y1635861D01*
X9179560Y1637182D01*
X9184589Y1638807D01*
X9188958Y1640636D01*
X9194647Y1643938D01*
X9199626Y1647748D01*
X9203994Y1652117D01*
X9207601Y1656943D01*
X9210548Y1662125D01*
X9212732Y1667662D01*
X9214154Y1673504D01*
X9214815Y1679549D01*
X9214713Y1685747D01*
X9213799Y1692046D01*
X9212021Y1698396D01*
X9209430Y1704695D01*
X9207144Y1708556D01*
X9204299Y1712163D01*
X9200845Y1715465D01*
X9196933Y1718462D01*
X9192514Y1721154D01*
X9187688Y1723542D01*
X9182455Y1725675D01*
X9176969Y1727504D01*
X9171127Y1729028D01*
X9165082Y1730248D01*
X9158833Y1731213D01*
X9152483Y1731873D01*
X9146032Y1732229D01*
G37*
G36*
X9064955Y1604010D02*
G01*
X9064955Y1577898D01*
X9112453Y1576171D01*
X9120682Y1575562D01*
X9127744Y1574749D01*
X9133687Y1573682D01*
X9138615Y1572361D01*
X9142526Y1570736D01*
X9145473Y1568805D01*
X9147505Y1566570D01*
X9148673Y1563979D01*
X9149029Y1561033D01*
X9148572Y1557680D01*
X9147403Y1553870D01*
X9146286Y1551838D01*
X9144406Y1550212D01*
X9141561Y1548993D01*
X9137548Y1548028D01*
X9132112Y1547368D01*
X9115958Y1546707D01*
X9064955Y1546656D01*
X9064955Y1515770D01*
X9101582Y1515770D01*
X9114332Y1515567D01*
X9124746Y1514957D01*
X9132976Y1513840D01*
X9139224Y1512112D01*
X9143695Y1509725D01*
X9146641Y1506575D01*
X9148267Y1502613D01*
X9148775Y1497736D01*
X9148318Y1494129D01*
X9146743Y1491284D01*
X9143847Y1489049D01*
X9139326Y1487373D01*
X9132925Y1486204D01*
X9124391Y1485442D01*
X9113469Y1485036D01*
X9064955Y1484884D01*
X9064955Y1457655D01*
X9128150Y1459636D01*
X9139529Y1460195D01*
X9148470Y1460906D01*
X9155226Y1461871D01*
X9160306Y1463090D01*
X9164015Y1464665D01*
X9166809Y1466697D01*
X9168993Y1469186D01*
X9171787Y1473911D01*
X9173718Y1479143D01*
X9174734Y1484630D01*
X9174937Y1490319D01*
X9174226Y1496009D01*
X9172702Y1501597D01*
X9170365Y1506829D01*
X9167114Y1511604D01*
X9162694Y1517396D01*
X9161221Y1521358D01*
X9162694Y1524914D01*
X9170466Y1533702D01*
X9172854Y1538122D01*
X9174327Y1542796D01*
X9174886Y1547723D01*
X9174530Y1552854D01*
X9173210Y1558086D01*
X9170974Y1563319D01*
X9164675Y1573479D01*
X9163304Y1577136D01*
X9163608Y1579524D01*
X9167622Y1582470D01*
X9169298Y1585315D01*
X9170416Y1589074D01*
X9170822Y1593342D01*
X9170822Y1604010D01*
G37*
G36*
X9092387Y1442008D02*
G01*
X9087002Y1441297D01*
X9082278Y1439824D01*
X9078061Y1437386D01*
X9074302Y1434185D01*
X9071152Y1430274D01*
X9068612Y1425752D01*
X9066631Y1420723D01*
X9065361Y1415338D01*
X9064752Y1409700D01*
X9064979Y1403400D01*
X9087510Y1403400D01*
X9088424Y1407464D01*
X9090558Y1410817D01*
X9093708Y1413103D01*
X9096857Y1414068D01*
X9100007Y1413713D01*
X9102852Y1412189D01*
X9105341Y1409649D01*
X9107322Y1406144D01*
X9108592Y1401826D01*
X9109049Y1396796D01*
X9108643Y1390345D01*
X9107220Y1386230D01*
X9104579Y1384046D01*
X9100312Y1383436D01*
X9096705Y1384300D01*
X9093504Y1386636D01*
X9090812Y1390142D01*
X9088882Y1394307D01*
X9087713Y1398879D01*
X9087510Y1403400D01*
X9064979Y1403400D01*
X9065768Y1398066D01*
X9067495Y1392275D01*
X9072118Y1382115D01*
X9072829Y1378915D01*
X9072118Y1376832D01*
X9069984Y1375562D01*
X9068054Y1374038D01*
X9066428Y1371244D01*
X9065361Y1367485D01*
X9064955Y1363218D01*
X9065056Y1359712D01*
X9065666Y1357122D01*
X9067190Y1355242D01*
X9070136Y1353921D01*
X9074861Y1353159D01*
X9081871Y1352753D01*
X9115653Y1352600D01*
X9125508Y1352905D01*
X9134043Y1353413D01*
X9141409Y1354226D01*
X9147657Y1355344D01*
X9152940Y1356766D01*
X9157360Y1358646D01*
X9161018Y1360881D01*
X9164015Y1363624D01*
X9166504Y1366824D01*
X9168536Y1370584D01*
X9170263Y1374952D01*
X9172092Y1380439D01*
X9173413Y1385366D01*
X9174226Y1389888D01*
X9174530Y1394409D01*
X9174378Y1399133D01*
X9173667Y1404467D01*
X9172549Y1410563D01*
X9168130Y1428343D01*
X9165386Y1433626D01*
X9161272Y1434896D01*
X9154464Y1433576D01*
X9149486Y1431544D01*
X9146997Y1427683D01*
X9146489Y1420215D01*
X9148622Y1394307D01*
X9148216Y1387144D01*
X9145828Y1384096D01*
X9141053Y1383436D01*
X9136634Y1384198D01*
X9133382Y1386840D01*
X9130995Y1391716D01*
X9129115Y1399235D01*
X9127439Y1407007D01*
X9125407Y1414018D01*
X9123070Y1420215D01*
X9120428Y1425651D01*
X9117431Y1430274D01*
X9114078Y1434134D01*
X9110421Y1437284D01*
X9106408Y1439621D01*
X9102090Y1441145D01*
X9097416Y1441958D01*
G37*
G36*
X9064955Y1330502D02*
G01*
X9064955Y1303985D01*
X9108948Y1303883D01*
X9116872Y1303477D01*
X9123883Y1302766D01*
X9129877Y1301750D01*
X9134957Y1300429D01*
X9139174Y1298752D01*
X9142526Y1296720D01*
X9145066Y1294282D01*
X9146844Y1291437D01*
X9147860Y1288186D01*
X9148216Y1284478D01*
X9147911Y1280312D01*
X9147302Y1277416D01*
X9146133Y1275130D01*
X9144000Y1273403D01*
X9140545Y1272184D01*
X9135364Y1271270D01*
X9128099Y1270609D01*
X9105747Y1269644D01*
X9064955Y1268374D01*
X9064955Y1237030D01*
X9126016Y1239062D01*
X9137294Y1239621D01*
X9145930Y1240383D01*
X9152432Y1241450D01*
X9157258Y1242872D01*
X9160967Y1244752D01*
X9163964Y1247241D01*
X9166809Y1250442D01*
X9170162Y1255166D01*
X9172651Y1259941D01*
X9174175Y1264818D01*
X9174835Y1269847D01*
X9174530Y1275080D01*
X9173362Y1280668D01*
X9171330Y1286560D01*
X9165691Y1298651D01*
X9164472Y1303070D01*
X9164624Y1306068D01*
X9167977Y1309065D01*
X9169450Y1311808D01*
X9170466Y1315567D01*
X9170822Y1319834D01*
X9170822Y1330502D01*
G37*
G36*
X9174530Y1211376D02*
G01*
X9169450Y1208938D01*
X9167977Y1202944D01*
X9170009Y1194968D01*
X9175445Y1186891D01*
X9185605Y1176070D01*
X9087561Y1176070D01*
X9086189Y1190345D01*
X9085072Y1196695D01*
X9083192Y1201420D01*
X9080500Y1204569D01*
X9077096Y1206144D01*
X9074759Y1206296D01*
X9072981Y1205636D01*
X9071610Y1203807D01*
X9070644Y1200404D01*
X9069984Y1195222D01*
X9069578Y1187856D01*
X9069374Y1165352D01*
X9069578Y1142390D01*
X9069984Y1134922D01*
X9070695Y1129690D01*
X9071762Y1126236D01*
X9073235Y1124254D01*
X9075267Y1123340D01*
X9077909Y1123137D01*
X9082024Y1123848D01*
X9084868Y1126236D01*
X9086748Y1130706D01*
X9087815Y1137462D01*
X9089237Y1151788D01*
X9162999Y1153261D01*
X9181287Y1153871D01*
X9195257Y1154684D01*
X9205264Y1155750D01*
X9208820Y1156360D01*
X9211564Y1157071D01*
X9213443Y1157833D01*
X9214510Y1158697D01*
X9214866Y1159662D01*
X9213392Y1163574D01*
X9209481Y1170279D01*
X9203690Y1178763D01*
X9196628Y1188212D01*
X9189262Y1197203D01*
X9182658Y1204569D01*
X9177477Y1209548D01*
G37*
G36*
X9093657Y1102817D02*
G01*
X9086037Y1102309D01*
X9079738Y1100785D01*
X9074759Y1098143D01*
X9071051Y1094486D01*
X9068358Y1089507D01*
X9066479Y1083411D01*
X9065412Y1076655D01*
X9065107Y1069644D01*
X9065788Y1061974D01*
X9087002Y1061974D01*
X9088221Y1068120D01*
X9091574Y1072184D01*
X9096552Y1073912D01*
X9102648Y1072896D01*
X9105341Y1070762D01*
X9107322Y1067054D01*
X9108541Y1062329D01*
X9109049Y1057148D01*
X9108795Y1052118D01*
X9107728Y1047851D01*
X9105950Y1044854D01*
X9103309Y1043736D01*
X9097365Y1045311D01*
X9092133Y1049426D01*
X9088424Y1055319D01*
X9087002Y1061974D01*
X9065788Y1061974D01*
X9066936Y1056589D01*
X9069019Y1051458D01*
X9071864Y1047902D01*
X9075369Y1044702D01*
X9076537Y1042466D01*
X9075369Y1040536D01*
X9071864Y1038301D01*
X9069171Y1036066D01*
X9066987Y1032713D01*
X9065514Y1028801D01*
X9064955Y1024737D01*
X9065107Y1021638D01*
X9065818Y1019302D01*
X9067546Y1017574D01*
X9070644Y1016406D01*
X9075623Y1015695D01*
X9082836Y1015339D01*
X9105747Y1015237D01*
X9127439Y1015593D01*
X9136075Y1016050D01*
X9143339Y1016762D01*
X9149486Y1017727D01*
X9154515Y1018997D01*
X9158681Y1020622D01*
X9162084Y1022654D01*
X9164777Y1025144D01*
X9167012Y1028141D01*
X9168841Y1031646D01*
X9170466Y1035710D01*
X9172244Y1041095D01*
X9173464Y1045870D01*
X9174276Y1050340D01*
X9174530Y1054811D01*
X9174327Y1059535D01*
X9173667Y1064768D01*
X9170873Y1078128D01*
X9167977Y1088847D01*
X9164929Y1094486D01*
X9160764Y1096162D01*
X9154414Y1094841D01*
X9150350Y1092555D01*
X9147860Y1088237D01*
X9146641Y1080820D01*
X9146133Y1057859D01*
X9145016Y1050594D01*
X9142780Y1046429D01*
X9139174Y1044651D01*
X9135414Y1044905D01*
X9132671Y1047699D01*
X9130538Y1053693D01*
X9127540Y1070102D01*
X9126067Y1076096D01*
X9124391Y1081379D01*
X9122359Y1086104D01*
X9120022Y1090168D01*
X9117380Y1093622D01*
X9114383Y1096518D01*
X9111030Y1098854D01*
X9107271Y1100632D01*
X9103156Y1101852D01*
X9098635Y1102614D01*
G37*
G36*
X9117838Y998372D02*
G01*
X9111081Y998169D01*
X9104477Y997407D01*
X9097975Y996035D01*
X9091777Y994156D01*
X9085935Y991616D01*
X9080500Y988517D01*
X9075572Y984808D01*
X9071864Y981049D01*
X9068765Y976731D01*
X9066174Y972007D01*
X9064142Y966927D01*
X9062720Y961644D01*
X9061754Y956259D01*
X9061348Y950874D01*
X9061500Y945591D01*
X9062110Y940511D01*
X9063278Y935786D01*
X9064904Y931468D01*
X9067038Y927709D01*
X9069679Y924560D01*
X9072778Y922223D01*
X9076334Y920699D01*
X9080347Y920191D01*
X9086443Y920597D01*
X9089491Y922680D01*
X9090050Y927811D01*
X9087764Y946302D01*
X9088424Y952550D01*
X9091117Y957173D01*
X9096349Y961542D01*
X9101023Y964387D01*
X9105798Y966520D01*
X9110624Y967994D01*
X9115399Y968806D01*
X9120124Y968959D01*
X9124645Y968552D01*
X9128963Y967587D01*
X9132976Y966063D01*
X9136684Y964031D01*
X9139936Y961491D01*
X9142730Y958545D01*
X9144965Y955141D01*
X9146641Y951382D01*
X9147606Y947216D01*
X9147810Y942797D01*
X9146235Y930960D01*
X9146997Y926541D01*
X9149994Y923848D01*
X9155734Y921918D01*
X9160459Y920851D01*
X9164218Y920496D01*
X9167063Y921003D01*
X9169196Y922578D01*
X9170771Y925372D01*
X9171990Y929640D01*
X9172956Y935482D01*
X9173819Y943152D01*
X9174226Y952703D01*
X9173311Y960983D01*
X9170873Y968654D01*
X9166860Y976223D01*
X9163507Y980694D01*
X9159392Y984707D01*
X9154668Y988212D01*
X9149384Y991209D01*
X9143644Y993698D01*
X9137497Y995680D01*
X9131096Y997102D01*
X9124492Y998016D01*
G37*
D11*
X7315200Y3327400D02*
G01*
X7315200Y2120900D01*
X4991100Y3327400D02*
G01*
X4991100Y2019300D01*
D12*
X4381500Y3327400D02*
G01*
X4381500Y2298700D01*
X5930900Y3327400D02*
G01*
X5930900Y1968500D01*
D11*
X3352800Y3340100D02*
G01*
X3352800Y2032000D01*
X2908300Y3314700D02*
G01*
X2908300Y1968500D01*
D13*
G01*
X1574800Y1206500D03*
G01*
X1574800Y2222500D03*
G01*
X1803400Y1206500D03*
G01*
X1803400Y2222500D03*
G01*
X3721100Y3619500D03*
G01*
X3721100Y4635500D03*
G01*
X2095500Y4635500D03*
G01*
X2095500Y3619500D03*
G01*
X2844800Y4635500D03*
G01*
X2844800Y3619500D03*
G01*
X4470400Y4635500D03*
G01*
X4470400Y3619500D03*
G01*
X2032000Y1206500D03*
G01*
X2032000Y2222500D03*
G01*
X5994400Y3619500D03*
G01*
X5994400Y4635500D03*
G01*
X5245100Y3619500D03*
G01*
X5245100Y4635500D03*
G01*
X2260600Y2222500D03*
G01*
X2260600Y1206500D03*
G01*
X7429500Y4635500D03*
G01*
X7429500Y3619500D03*
G01*
X6680200Y3619500D03*
G01*
X6680200Y4635500D03*
G01*
X3670300Y2019300D03*
G01*
X4686300Y2019300D03*
D14*
G01*
X8328406Y5041900D03*
G01*
X7978393Y5041900D03*
D15*
G01*
X7086600Y3768699D03*
G01*
X7086600Y4638700D03*
G01*
X4076700Y4638700D03*
G01*
X4076700Y3768699D03*
G01*
X5600700Y4638700D03*
G01*
X5600700Y3768699D03*
G01*
X2489200Y3768699D03*
G01*
X2489200Y4638700D03*
D16*
G01*
X8674100Y3060700D03*
D17*
G01*
X8674100Y4584700D03*
D18*
G01*
X7988300Y2000402D03*
G01*
X7988300Y4400397D03*
D19*
G01*
X5232400Y1422400D03*
G01*
X5486400Y1422400D03*
D20*
G01*
X5740400Y1422400D03*
D11*
G01*
X4428743Y1257300D03*
G01*
X3927856Y1257300D03*
G01*
X7019543Y1257300D03*
G01*
X6518656Y1257300D03*
G36*
X6691795Y5108897D02*
G01*
X6871794Y5108897D01*
X6871794Y4848898D01*
X6691795Y4848898D01*
G37*
G36*
X3631095Y5108897D02*
G01*
X3811094Y5108897D01*
X3811094Y4848898D01*
X3631095Y4848898D01*
G37*
G36*
X5155095Y5108897D02*
G01*
X5335094Y5108897D01*
X5335094Y4848898D01*
X5155095Y4848898D01*
G37*
G36*
X2107095Y5108897D02*
G01*
X2287094Y5108897D01*
X2287094Y4848898D01*
X2107095Y4848898D01*
G37*
D15*
G01*
X6769608Y2565400D03*
G01*
X6768591Y3327400D03*
G01*
X6514591Y3327400D03*
D22*
G01*
X6515608Y2565400D03*
D15*
G01*
X3975608Y2565400D03*
G01*
X3974591Y3327400D03*
G01*
X3720591Y3327400D03*
D22*
G01*
X3721608Y2565400D03*
D15*
G01*
X5486908Y2565400D03*
G01*
X5485891Y3327400D03*
G01*
X5231891Y3327400D03*
D22*
G01*
X5232908Y2565400D03*
D15*
G01*
X2197608Y2552700D03*
G01*
X2196591Y3314700D03*
G01*
X1942591Y3314700D03*
D22*
G01*
X1943608Y2552700D03*
D19*
G01*
X3352800Y3340100D03*
G01*
X4991100Y3327400D03*
G01*
X4991100Y2019300D03*
G01*
X3352800Y2032000D03*
G01*
X2908300Y3314700D03*
G01*
X2908300Y1968500D03*
G01*
X4381500Y3327400D03*
G01*
X5930900Y3327400D03*
G01*
X5930900Y1968500D03*
G01*
X7315200Y3327400D03*
G01*
X7315200Y2120900D03*
G01*
X4381500Y2298700D03*
D15*
X7035800Y5018882D02*
G01*
X7035800Y4938882D01*
X7289800Y5017891D02*
G01*
X7289800Y4937892D01*
X3975100Y5018882D02*
G01*
X3975100Y4938882D01*
X4229100Y5017891D02*
G01*
X4229100Y4937892D01*
X5499100Y5018882D02*
G01*
X5499100Y4938882D01*
X5753100Y5017891D02*
G01*
X5753100Y4937892D01*
X2451100Y5018882D02*
G01*
X2451100Y4938882D01*
X2705100Y5017891D02*
G01*
X2705100Y4937892D01*
M02*
