G04 Layer: TopSolderMaskLayer*
G04 EasyEDA v6.5.5, 2022-05-30 02:48:00*
G04 73416119e20b4d31bc0fda0cb7b7bab3,ed70181f279245e6aff80281ee7dc86a,10*
G04 Gerber Generator version 0.2*
G04 Scale: 100 percent, Rotated: No, Reflected: No *
G04 Dimensions in millimeters *
G04 leading zeros omitted , absolute positions ,4 integer and 5 decimal *
%FSLAX45Y45*%
%MOMM*%

%ADD31C,1.9016*%
%ADD32C,2.0828*%
%ADD33C,1.7016*%
%ADD35C,3.1016*%
%ADD36C,2.3016*%
%ADD37C,1.6764*%
%ADD39C,2.1016*%

%LPD*%
G36*
X3277108Y1121410D02*
G01*
X3262833Y1121206D01*
X3249168Y1120495D01*
X3236620Y1119276D01*
X3225800Y1117600D01*
X3215589Y1115161D01*
X3204311Y1111656D01*
X3192272Y1107389D01*
X3179978Y1102410D01*
X3167888Y1097026D01*
X3156356Y1091336D01*
X3145891Y1085494D01*
X3136849Y1079804D01*
X3126943Y1072642D01*
X3117443Y1065123D01*
X3108452Y1057198D01*
X3099866Y1048969D01*
X3091789Y1040434D01*
X3084118Y1031595D01*
X3076956Y1022451D01*
X3070199Y1013053D01*
X3063951Y1003401D01*
X3058160Y993546D01*
X3052876Y983437D01*
X3048000Y973175D01*
X3043682Y962710D01*
X3039770Y952042D01*
X3036366Y941324D01*
X3033471Y930402D01*
X3031032Y919429D01*
X3029102Y908303D01*
X3027680Y897178D01*
X3026714Y885952D01*
X3026257Y874674D01*
X3026308Y863396D01*
X3026867Y852119D01*
X3027934Y840892D01*
X3029508Y829665D01*
X3031591Y818489D01*
X3034233Y807364D01*
X3037332Y796340D01*
X3040989Y785418D01*
X3045155Y774649D01*
X3049828Y763981D01*
X3055061Y753516D01*
X3060801Y743153D01*
X3067050Y733044D01*
X3073908Y723087D01*
X3081223Y713435D01*
X3085795Y707948D01*
X3090773Y702462D01*
X3101848Y691489D01*
X3113989Y680770D01*
X3126740Y670661D01*
X3139541Y661517D01*
X3151987Y653592D01*
X3163519Y647293D01*
X3173730Y642874D01*
X3178149Y641502D01*
X3182112Y640740D01*
X3185414Y640588D01*
X3188106Y641146D01*
X3189325Y642315D01*
X3190443Y644702D01*
X3191408Y648258D01*
X3192221Y652729D01*
X3193389Y664159D01*
X3194100Y677875D01*
X3194202Y692810D01*
X3193846Y707948D01*
X3192932Y722122D01*
X3191560Y734364D01*
X3190646Y739394D01*
X3189630Y743508D01*
X3188512Y746607D01*
X3187242Y748588D01*
X3182213Y752449D01*
X3173323Y758291D01*
X3161842Y765302D01*
X3142488Y776274D01*
X3130397Y783437D01*
X3120440Y789787D01*
X3113836Y794613D01*
X3112211Y796137D01*
X3111093Y798271D01*
X3110128Y801725D01*
X3109366Y806450D01*
X3108401Y819759D01*
X3108248Y837946D01*
X3109671Y895553D01*
X3230981Y965809D01*
X3361131Y1040739D01*
X3404108Y1015949D01*
X3417976Y1007668D01*
X3427729Y1001166D01*
X3431082Y998423D01*
X3433470Y995984D01*
X3434994Y993749D01*
X3435604Y991616D01*
X3435299Y989584D01*
X3434181Y987602D01*
X3432301Y985570D01*
X3429609Y983437D01*
X3421989Y978611D01*
X3354273Y939647D01*
X3195878Y848004D01*
X3194405Y788924D01*
X3194304Y778560D01*
X3194456Y770534D01*
X3194862Y764489D01*
X3195574Y760222D01*
X3196590Y757529D01*
X3197961Y756056D01*
X3199688Y755650D01*
X3201568Y756005D01*
X3208375Y758647D01*
X3218281Y763422D01*
X3230118Y769670D01*
X3242564Y776681D01*
X3254095Y782523D01*
X3263544Y786536D01*
X3267100Y787704D01*
X3269691Y788212D01*
X3271215Y788009D01*
X3271875Y786993D01*
X3273094Y781304D01*
X3274060Y771042D01*
X3274822Y756564D01*
X3275329Y738124D01*
X3275584Y716026D01*
X3275634Y621995D01*
X3301237Y622096D01*
X3312820Y622909D01*
X3324453Y624484D01*
X3336086Y626872D01*
X3347720Y629970D01*
X3359302Y633831D01*
X3370834Y638454D01*
X3382264Y643788D01*
X3393592Y649833D01*
X3404768Y656539D01*
X3415792Y663956D01*
X3426561Y672084D01*
X3437128Y680821D01*
X3447440Y690219D01*
X3457397Y700125D01*
X3466592Y710031D01*
X3475024Y719886D01*
X3482746Y729792D01*
X3489756Y739800D01*
X3496106Y749858D01*
X3501745Y760120D01*
X3506724Y770585D01*
X3511092Y781354D01*
X3514851Y792378D01*
X3518001Y803757D01*
X3520592Y815543D01*
X3522624Y827786D01*
X3524097Y840536D01*
X3525062Y853795D01*
X3525520Y867613D01*
X3525520Y883208D01*
X3525062Y897788D01*
X3524046Y910183D01*
X3522218Y921562D01*
X3519474Y932942D01*
X3515664Y945489D01*
X3511042Y958545D01*
X3506012Y970686D01*
X3500272Y982776D01*
X3493820Y994714D01*
X3486810Y1006449D01*
X3479241Y1017778D01*
X3471214Y1028649D01*
X3462782Y1038961D01*
X3454044Y1048562D01*
X3445103Y1057402D01*
X3436620Y1064768D01*
X3427526Y1071473D01*
X3417011Y1078331D01*
X3405479Y1085189D01*
X3393236Y1091844D01*
X3380587Y1098092D01*
X3367938Y1103833D01*
X3355594Y1108862D01*
X3343859Y1113028D01*
X3333140Y1116177D01*
X3323082Y1118260D01*
X3311398Y1119784D01*
X3298240Y1120800D01*
G37*
D31*
X7035800Y5018882D02*
G01*
X7035800Y4938882D01*
X7289800Y5017891D02*
G01*
X7289800Y4937892D01*
X3975100Y5018882D02*
G01*
X3975100Y4938882D01*
X4229100Y5017891D02*
G01*
X4229100Y4937892D01*
X5499100Y5018882D02*
G01*
X5499100Y4938882D01*
X5753100Y5017891D02*
G01*
X5753100Y4937892D01*
X2451100Y5018882D02*
G01*
X2451100Y4938882D01*
X2705100Y5017891D02*
G01*
X2705100Y4937892D01*
D32*
G01*
X1574800Y1206500D03*
G01*
X1574800Y2222500D03*
G01*
X1803400Y1206500D03*
G01*
X1803400Y2222500D03*
G01*
X3721100Y3619500D03*
G01*
X3721100Y4635500D03*
G01*
X2095500Y4635500D03*
G01*
X2095500Y3619500D03*
G01*
X2844800Y4635500D03*
G01*
X2844800Y3619500D03*
G01*
X4470400Y4635500D03*
G01*
X4470400Y3619500D03*
G01*
X2032000Y1206500D03*
G01*
X2032000Y2222500D03*
G01*
X5994400Y3619500D03*
G01*
X5994400Y4635500D03*
G01*
X5245100Y3619500D03*
G01*
X5245100Y4635500D03*
G01*
X2260600Y2222500D03*
G01*
X2260600Y1206500D03*
G01*
X7429500Y4635500D03*
G01*
X7429500Y3619500D03*
G01*
X6680200Y3619500D03*
G01*
X6680200Y4635500D03*
G01*
X3670300Y2019300D03*
G01*
X4686300Y2019300D03*
D33*
G01*
X8328406Y5041900D03*
G01*
X7978393Y5041900D03*
D31*
G01*
X7086600Y3768699D03*
G01*
X7086600Y4638700D03*
G01*
X4076700Y4638700D03*
G01*
X4076700Y3768699D03*
G01*
X5600700Y4638700D03*
G01*
X5600700Y3768699D03*
G01*
X2489200Y3768699D03*
G01*
X2489200Y4638700D03*
G36*
X8518906Y2905505D02*
G01*
X8518906Y3215894D01*
X8829293Y3215894D01*
X8829293Y2905505D01*
G37*
D35*
G01*
X8674100Y4584700D03*
D36*
G01*
X7988300Y2000402D03*
G01*
X7988300Y4400397D03*
D37*
G01*
X5232400Y1422400D03*
G01*
X5486400Y1422400D03*
G36*
X5656579Y1338579D02*
G01*
X5656579Y1506220D01*
X5824220Y1506220D01*
X5824220Y1338579D01*
G37*
D39*
G01*
X4428743Y1257300D03*
G01*
X3927856Y1257300D03*
G01*
X7019543Y1257300D03*
G01*
X6518656Y1257300D03*
G36*
X6686804Y4843779D02*
G01*
X6686804Y5114036D01*
X6876795Y5114036D01*
X6876795Y4843779D01*
G37*
G36*
X3626104Y4843779D02*
G01*
X3626104Y5114036D01*
X3816095Y5114036D01*
X3816095Y4843779D01*
G37*
G36*
X5150104Y4843779D02*
G01*
X5150104Y5114036D01*
X5340095Y5114036D01*
X5340095Y4843779D01*
G37*
G36*
X2102104Y4843779D02*
G01*
X2102104Y5114036D01*
X2292095Y5114036D01*
X2292095Y4843779D01*
G37*
D31*
G01*
X6769608Y2565400D03*
G01*
X6768591Y3327400D03*
G01*
X6514591Y3327400D03*
G36*
X6420611Y2470404D02*
G01*
X6420611Y2660395D01*
X6610604Y2660395D01*
X6610604Y2470404D01*
G37*
G01*
X3975608Y2565400D03*
G01*
X3974591Y3327400D03*
G01*
X3720591Y3327400D03*
G36*
X3626611Y2470404D02*
G01*
X3626611Y2660395D01*
X3816604Y2660395D01*
X3816604Y2470404D01*
G37*
G01*
X5486908Y2565400D03*
G01*
X5485891Y3327400D03*
G01*
X5231891Y3327400D03*
G36*
X5137911Y2470404D02*
G01*
X5137911Y2660395D01*
X5327904Y2660395D01*
X5327904Y2470404D01*
G37*
G01*
X2197608Y2552700D03*
G01*
X2196591Y3314700D03*
G01*
X1942591Y3314700D03*
G36*
X1848612Y2457704D02*
G01*
X1848612Y2647695D01*
X2038604Y2647695D01*
X2038604Y2457704D01*
G37*
D37*
G01*
X3352800Y3340100D03*
G01*
X4991100Y3327400D03*
G01*
X4991100Y2019300D03*
G01*
X3352800Y2032000D03*
G01*
X2908300Y3314700D03*
G01*
X2908300Y1968500D03*
G01*
X4381500Y3327400D03*
G01*
X5930900Y3327400D03*
G01*
X5930900Y1968500D03*
G01*
X7315200Y3327400D03*
G01*
X7315200Y2120900D03*
G01*
X4381500Y2298700D03*
M02*
