G04 Layer: BottomPasteMaskLayer*
G04 EasyEDA v6.4.32, 2022-03-02 21:26:25*
G04 a14d7df274ef46f18a143bcdf5e9aa52,ed70181f279245e6aff80281ee7dc86a,10*
G04 Gerber Generator version 0.2*
G04 Scale: 100 percent, Rotated: No, Reflected: No *
G04 Dimensions in millimeters *
G04 leading zeros omitted , absolute positions ,4 integer and 5 decimal *
%FSLAX45Y45*%
%MOMM*%

%ADD10C,0.0001*%

%LPD*%
G36*
X1484756Y1934210D02*
G01*
X1484756Y1774189D01*
X1664843Y1774189D01*
X1664843Y1934210D01*
G37*
G36*
X1484756Y1654810D02*
G01*
X1484756Y1494789D01*
X1664843Y1494789D01*
X1664843Y1654810D01*
G37*
G36*
X1524000Y2159000D02*
G01*
X1524000Y1879600D01*
X1625600Y1879600D01*
X1625600Y2159000D01*
G37*
G36*
X1524000Y1549400D02*
G01*
X1524000Y1270000D01*
X1625600Y1270000D01*
X1625600Y1549400D01*
G37*
G36*
X1713356Y1934210D02*
G01*
X1713356Y1774189D01*
X1893443Y1774189D01*
X1893443Y1934210D01*
G37*
G36*
X1713356Y1654810D02*
G01*
X1713356Y1494789D01*
X1893443Y1494789D01*
X1893443Y1654810D01*
G37*
G36*
X1752600Y2159000D02*
G01*
X1752600Y1879600D01*
X1854200Y1879600D01*
X1854200Y2159000D01*
G37*
G36*
X1752600Y1549400D02*
G01*
X1752600Y1270000D01*
X1854200Y1270000D01*
X1854200Y1549400D01*
G37*
G36*
X3811143Y3907789D02*
G01*
X3811143Y4067810D01*
X3631056Y4067810D01*
X3631056Y3907789D01*
G37*
G36*
X3811143Y4187189D02*
G01*
X3811143Y4347210D01*
X3631056Y4347210D01*
X3631056Y4187189D01*
G37*
G36*
X3771900Y3683000D02*
G01*
X3771900Y3962400D01*
X3670300Y3962400D01*
X3670300Y3683000D01*
G37*
G36*
X3771900Y4292600D02*
G01*
X3771900Y4572000D01*
X3670300Y4572000D01*
X3670300Y4292600D01*
G37*
G36*
X2185543Y3907789D02*
G01*
X2185543Y4067810D01*
X2005456Y4067810D01*
X2005456Y3907789D01*
G37*
G36*
X2185543Y4187189D02*
G01*
X2185543Y4347210D01*
X2005456Y4347210D01*
X2005456Y4187189D01*
G37*
G36*
X2146300Y3683000D02*
G01*
X2146300Y3962400D01*
X2044700Y3962400D01*
X2044700Y3683000D01*
G37*
G36*
X2146300Y4292600D02*
G01*
X2146300Y4572000D01*
X2044700Y4572000D01*
X2044700Y4292600D01*
G37*
G36*
X2934843Y3907789D02*
G01*
X2934843Y4067810D01*
X2754756Y4067810D01*
X2754756Y3907789D01*
G37*
G36*
X2934843Y4187189D02*
G01*
X2934843Y4347210D01*
X2754756Y4347210D01*
X2754756Y4187189D01*
G37*
G36*
X2895600Y3683000D02*
G01*
X2895600Y3962400D01*
X2794000Y3962400D01*
X2794000Y3683000D01*
G37*
G36*
X2895600Y4292600D02*
G01*
X2895600Y4572000D01*
X2794000Y4572000D01*
X2794000Y4292600D01*
G37*
G36*
X4380356Y4347210D02*
G01*
X4380356Y4187189D01*
X4560443Y4187189D01*
X4560443Y4347210D01*
G37*
G36*
X4380356Y4067810D02*
G01*
X4380356Y3907789D01*
X4560443Y3907789D01*
X4560443Y4067810D01*
G37*
G36*
X4419600Y4572000D02*
G01*
X4419600Y4292600D01*
X4521200Y4292600D01*
X4521200Y4572000D01*
G37*
G36*
X4419600Y3962400D02*
G01*
X4419600Y3683000D01*
X4521200Y3683000D01*
X4521200Y3962400D01*
G37*
G36*
X1941956Y1934210D02*
G01*
X1941956Y1774189D01*
X2122043Y1774189D01*
X2122043Y1934210D01*
G37*
G36*
X1941956Y1654810D02*
G01*
X1941956Y1494789D01*
X2122043Y1494789D01*
X2122043Y1654810D01*
G37*
G36*
X1981200Y2159000D02*
G01*
X1981200Y1879600D01*
X2082800Y1879600D01*
X2082800Y2159000D01*
G37*
G36*
X1981200Y1549400D02*
G01*
X1981200Y1270000D01*
X2082800Y1270000D01*
X2082800Y1549400D01*
G37*
G36*
X6084443Y3907789D02*
G01*
X6084443Y4067810D01*
X5904356Y4067810D01*
X5904356Y3907789D01*
G37*
G36*
X6084443Y4187189D02*
G01*
X6084443Y4347210D01*
X5904356Y4347210D01*
X5904356Y4187189D01*
G37*
G36*
X6045200Y3683000D02*
G01*
X6045200Y3962400D01*
X5943600Y3962400D01*
X5943600Y3683000D01*
G37*
G36*
X6045200Y4292600D02*
G01*
X6045200Y4572000D01*
X5943600Y4572000D01*
X5943600Y4292600D01*
G37*
G36*
X5335143Y3907789D02*
G01*
X5335143Y4067810D01*
X5155056Y4067810D01*
X5155056Y3907789D01*
G37*
G36*
X5335143Y4187189D02*
G01*
X5335143Y4347210D01*
X5155056Y4347210D01*
X5155056Y4187189D01*
G37*
G36*
X5295900Y3683000D02*
G01*
X5295900Y3962400D01*
X5194300Y3962400D01*
X5194300Y3683000D01*
G37*
G36*
X5295900Y4292600D02*
G01*
X5295900Y4572000D01*
X5194300Y4572000D01*
X5194300Y4292600D01*
G37*
G36*
X2350643Y1494789D02*
G01*
X2350643Y1654810D01*
X2170556Y1654810D01*
X2170556Y1494789D01*
G37*
G36*
X2350643Y1774189D02*
G01*
X2350643Y1934210D01*
X2170556Y1934210D01*
X2170556Y1774189D01*
G37*
G36*
X2311400Y1270000D02*
G01*
X2311400Y1549400D01*
X2209800Y1549400D01*
X2209800Y1270000D01*
G37*
G36*
X2311400Y1879600D02*
G01*
X2311400Y2159000D01*
X2209800Y2159000D01*
X2209800Y1879600D01*
G37*
G36*
X7339456Y4347210D02*
G01*
X7339456Y4187189D01*
X7519543Y4187189D01*
X7519543Y4347210D01*
G37*
G36*
X7339456Y4067810D02*
G01*
X7339456Y3907789D01*
X7519543Y3907789D01*
X7519543Y4067810D01*
G37*
G36*
X7378700Y4572000D02*
G01*
X7378700Y4292600D01*
X7480300Y4292600D01*
X7480300Y4572000D01*
G37*
G36*
X7378700Y3962400D02*
G01*
X7378700Y3683000D01*
X7480300Y3683000D01*
X7480300Y3962400D01*
G37*
G36*
X6770243Y3907789D02*
G01*
X6770243Y4067810D01*
X6590156Y4067810D01*
X6590156Y3907789D01*
G37*
G36*
X6770243Y4187189D02*
G01*
X6770243Y4347210D01*
X6590156Y4347210D01*
X6590156Y4187189D01*
G37*
G36*
X6731000Y3683000D02*
G01*
X6731000Y3962400D01*
X6629400Y3962400D01*
X6629400Y3683000D01*
G37*
G36*
X6731000Y4292600D02*
G01*
X6731000Y4572000D01*
X6629400Y4572000D01*
X6629400Y4292600D01*
G37*
G36*
X4398009Y2109343D02*
G01*
X4237990Y2109343D01*
X4237990Y1929256D01*
X4398009Y1929256D01*
G37*
G36*
X4118609Y2109343D02*
G01*
X3958590Y2109343D01*
X3958590Y1929256D01*
X4118609Y1929256D01*
G37*
G36*
X4622800Y2070100D02*
G01*
X4343400Y2070100D01*
X4343400Y1968500D01*
X4622800Y1968500D01*
G37*
G36*
X4013200Y2070100D02*
G01*
X3733800Y2070100D01*
X3733800Y1968500D01*
X4013200Y1968500D01*
G37*
M02*
